<svg xmlns="http://www.w3.org/2000/svg" xmlns:xlink="http://www.w3.org/1999/xlink"><symbol id="ico-email" viewBox="0 0 97.5 76.61" xmlns="http://www.w3.org/2000/svg"><title>ico-email</title><g id="aDocument"><g id="aSpread"><g id="aMouseOff"><path d="M90.54,67.9V26.11a31.53,31.53,0,0,1-3.76,3.59Q72.2,40.92,63.6,48.1q-2.78,2.34-4.51,3.65a25,25,0,0,1-4.71,2.64,13.7,13.7,0,0,1-5.58,1.33H48.7a13.72,13.72,0,0,1-5.58-1.33,24.82,24.82,0,0,1-4.7-2.64c-1.16-.87-2.67-2.08-4.52-3.65Q25.3,40.92,10.72,29.7A31.16,31.16,0,0,1,7,26.11V67.9a1.7,1.7,0,0,0,.52,1.23,1.66,1.66,0,0,0,1.22.51H88.8A1.66,1.66,0,0,0,90,69.13,1.7,1.7,0,0,0,90.54,67.9Zm0-57.18V9.39c0-.17,0-0.4,0-0.71A1.51,1.51,0,0,0,90.34,8L90,7.51a1,1,0,0,0-.49-0.41A2,2,0,0,0,88.8,7H8.71A1.78,1.78,0,0,0,7,8.71q0,9.14,8,15.45,10.49,8.26,21.82,17.25l1.9,1.6c1.06,0.89,1.89,1.57,2.5,2s1.43,1,2.42,1.72a14.56,14.56,0,0,0,2.74,1.49,6.36,6.36,0,0,0,2.35.49H48.8a6.3,6.3,0,0,0,2.34-.49,14.2,14.2,0,0,0,2.74-1.49q1.5-1,2.43-1.72c0.61-.46,1.45-1.15,2.5-2l1.9-1.6q11.32-9,21.82-17.25A25.73,25.73,0,0,0,88,17.87,13.59,13.59,0,0,0,90.54,10.72Zm7-2V67.9a8.72,8.72,0,0,1-8.7,8.71H8.71a8.39,8.39,0,0,1-6.15-2.56A8.39,8.39,0,0,1,0,67.9V8.71A8.39,8.39,0,0,1,2.56,2.56,8.39,8.39,0,0,1,8.71,0H88.8a8.4,8.4,0,0,1,6.15,2.56A8.37,8.37,0,0,1,97.5,8.71Z"/></g></g></g></symbol><symbol id="ico-fill_the_blanque" viewBox="0 0 79.83 97.5" xmlns="http://www.w3.org/2000/svg"><title>ico-fill_the_blanque</title><g id="bDocument"><g id="bSpread"><g id="bMouseOff"><path d="M70.89,88.77V17.67H62.16V31H17.67V17.67H8.94v71.1H70.89ZM43,10.19a4.36,4.36,0,0,0-7.48,3.12,4.36,4.36,0,1,0,8.73,0A4.22,4.22,0,0,0,43,10.19ZM70.89,8.94a8.74,8.74,0,0,1,6.24,2.59,8.23,8.23,0,0,1,2.7,6.13v71.1a8.2,8.2,0,0,1-2.7,6.13,8.73,8.73,0,0,1-6.24,2.6H8.94A8.74,8.74,0,0,1,2.7,94.9,8.21,8.21,0,0,1,0,88.77V17.67a8.24,8.24,0,0,1,2.7-6.13A8.75,8.75,0,0,1,8.94,8.94h18.5A13.83,13.83,0,0,1,32.22,2.5,12.48,12.48,0,0,1,39.91,0a12.48,12.48,0,0,1,7.69,2.5,13.91,13.91,0,0,1,4.78,6.45h18.5Z"/></g></g></g></symbol></svg>