<svg id="Layer_1" data-name="Layer 1" xmlns="http://www.w3.org/2000/svg" viewBox="0 0 20.09 35.48"><title>es_medium</title><g id="Document"><g id="Spread"><g id="Layer_1-2" data-name="Layer 1"><g id="Group"><path d="M11.46,34.72a1.73,1.73,0,0,1-.33-2.42c6.9-9.08,6.72-19.86,0-29.2a1.73,1.73,0,0,1,2.81-2c7.59,10.51,7.85,23,0,33.32A1.73,1.73,0,0,1,11.46,34.72Z" transform="translate(0.02 0.02)" style="fill:none;stroke:#000;stroke-linejoin:bevel;stroke-width:0.75px"/><path d="M5.72,30.81a1.73,1.73,0,0,1-.25-2.43c5.41-6.64,5.28-14.49,0-21.35A1.73,1.73,0,1,1,8.19,4.91c6.24,8.06,6.46,17.69,0,25.65A1.73,1.73,0,0,1,5.72,30.81Z" transform="translate(0.02 0.02)" style="fill:none;stroke:#000;stroke-linejoin:bevel;stroke-width:0.75px"/><path d="M1,26.42A1.73,1.73,0,0,1,.7,24c2.94-3.92,2.87-8.52,0-12.59a1.73,1.73,0,1,1,2.82-2c3.72,5.23,3.86,11.49,0,16.68A1.73,1.73,0,0,1,1,26.42Z" transform="translate(0.02 0.02)" style="stroke:#000;stroke-linejoin:bevel;stroke-width:0.75px"/></g></g></g></g></svg>