<svg id="Layer_1" data-name="Layer 1" xmlns="http://www.w3.org/2000/svg" viewBox="0 0 105.57 128.97"><title>herb-mogilev</title><g id="Document"><g id="Spread"><g id="_001" data-name=" 001"><g id="Group"><path d="M52.7,129l-2.63-2.6a30.67,30.67,0,0,0-8.16-5.75l-21.5-10.31A36,36,0,0,1,0,78V64.67l1.21-1.11A14.76,14.76,0,0,0,6,52.69,14.76,14.76,0,0,0,1.22,41.86L0,40.74V12l2.2-1a121.71,121.71,0,0,1,101.17.08l2.2,1-0.19,28.68-1.2,1.1a14.78,14.78,0,0,0-.85,20.88q0.41,0.44.85,0.85l1.21,1.12V77.94A36,36,0,0,1,85,110.34L63.5,120.67a30.17,30.17,0,0,0-8.18,5.75Z" transform="translate(0 -0.03)"/><path d="M52.7,126.38l-1.32-1.3a32.52,32.52,0,0,0-8.67-6.1l-21.5-10.31A34.09,34.09,0,0,1,1.88,78V65.49l0.6-.56A16.63,16.63,0,0,0,7.84,52.69,16.64,16.64,0,0,0,2.49,40.48l-0.6-.56V13.18l1.1-.5a119.83,119.83,0,0,1,99.61.08l1.1,0.5-0.17,26.65-0.6.55A16.66,16.66,0,0,0,102,64q0.45,0.49.95,0.95l0.6,0.56V77.92a34.09,34.09,0,0,1-19.31,30.74L62.7,119A32,32,0,0,0,54,125.1Z" transform="translate(0 -0.03)" style="fill:#fff"/><path d="M52.7,123.75a34.42,34.42,0,0,0-9.17-6.45L22,107A32.22,32.22,0,0,1,3.75,78V66.31a18.51,18.51,0,0,0,6-13.62,18.51,18.51,0,0,0-6-13.59V14.38a118,118,0,0,1,98.05.08l-0.16,24.63a18.53,18.53,0,0,0-1.06,26.18q0.51,0.55,1.06,1.06V77.91a32.21,32.21,0,0,1-18.25,29l-21.5,10.33A33.89,33.89,0,0,0,52.7,123.75Z" transform="translate(0 -0.03)" style="fill:#399ce0"/><g id="Group_1" data-name="Group 1"><path d="M52.7,123.75a34.15,34.15,0,0,0-9.17-6.45l-19.65-9.43H81.52L61.9,117.29A33.9,33.9,0,0,0,52.7,123.75Z" transform="translate(0 -0.03)" style="fill:#090"/><path d="M17.11,37.2l4.15-12.73,4.15-12.73,4.14,12.73L33.69,37.2H17.11Z" transform="translate(0 -0.03)"/><path d="M18.45,35.64l0.73-2.24,2.25,2.24h-3Zm3.79,0-2.71-2.7,2.73-2.72L25,32.94l-2.7,2.7H22.24Zm0.84,0,2.3-2.3,2.31,2.3H23.08Zm5.41,0-2.7-2.7,2.73-2.72,2.72,2.72-2.7,2.7h0Zm0.85,0,2.27-2.26,0.73,2.26h-3Zm-4-3.11-2.72-2.72,2.72-2.73,2.73,2.73Zm5.79-.46-2.26-2.26L30,28.66ZM19.63,32l1.09-3.36,1.14,1.13Zm2.63-2.63L20.92,28l1-3.08,0.35-1L25,26.68Zm6.25,0-2.73-2.72L28.52,24h0l0.33,1,1,3.06Zm-3.13-3.13-2.72-2.73,2.72-2.72,2.73,2.72Zm2.77-3.48-2.37-2.37L27,19.22Zm-5.51,0,1.15-3.53L25,20.42ZM25.39,20L24,18.63l1.29-4,0.1-.1,0.14,0.14,1.28,3.91Z" transform="translate(0 -0.03)" style="fill:#fff"/><path d="M25.41,13.24a1.68,1.68,0,1,1,1.68-1.68A1.68,1.68,0,0,1,25.41,13.24Z" transform="translate(0 -0.03)"/><path d="M25.41,12.81a1.26,1.26,0,1,1,1.26-1.26,1.26,1.26,0,0,1-1.26,1.26h0Z" transform="translate(0 -0.03)" style="fill:#fff"/><path d="M14.9,45.15V39.93h21v5.22h-21Z" transform="translate(0 -0.03)"/><path d="M16.06,39.93V36H34.74v3.94H16.06Z" transform="translate(0 -0.03)"/><path d="M15.54,44.32V40.66H35.25v3.65H15.54Z" transform="translate(0 -0.03)" style="fill:#fff"/><path d="M30.3,45.7V42.22h3.8V45.7H30.3Zm2.93-.88V43.09h-2v1.73h2Z" transform="translate(0 -0.03)"/><path d="M25.76,45.7V42.22h3.82V45.7H25.76Zm2.93-.88V43.09h-2v1.73h2Z" transform="translate(0 -0.03)"/><path d="M21.22,45.7V42.22H25V45.7H21.22Zm2.93-.88V43.09h-2v1.73h2Z" transform="translate(0 -0.03)"/><path d="M16.69,45.7V42.22H20.5V45.7H16.69Zm2.92-.88V43.09h-2v1.73h2Z" transform="translate(0 -0.03)"/><path d="M16.43,39.9V36.45H34.36V39.9H16.43Z" transform="translate(0 -0.03)" style="fill:#fff"/><path d="M17,39.32V37.17h2.13v2.15H17Zm1.63-.5V37.66H17.51v1.16h1.12Z" transform="translate(0 -0.03)"/><path d="M19.46,39.32V37.17h2.12v2.15H19.46Zm1.63-.5V37.66H20v1.16h1.09Z" transform="translate(0 -0.03)"/><path d="M21.9,39.32V37.17H24v2.15H21.9Zm1.63-.5V37.66H22.38v1.16h1.15Z" transform="translate(0 -0.03)"/><path d="M24.34,39.32V37.17h2.12v2.15H24.34Zm1.63-.5V37.66H24.83v1.16H26Z" transform="translate(0 -0.03)"/><path d="M26.77,39.32V37.17H28.9v2.15H26.77Zm1.63-.5V37.66H27.26v1.16H28.4Z" transform="translate(0 -0.03)"/><path d="M29.21,39.32V37.17h2.12v2.15H29.21Zm1.63-.5V37.66H29.7v1.16h1.14Z" transform="translate(0 -0.03)"/><path d="M31.65,39.32V37.16h2.12v2.16H31.65Zm1.62-.5V37.66H32.14v1.16h1.13Z" transform="translate(0 -0.03)"/><path d="M24.32,108.08L22,107a31.42,31.42,0,0,1-4-2.27l-1.49-1.07V45.06H34.26v63H24.32v0Z" transform="translate(0 -0.03)"/><path d="M17.27,49.53V45.21h7.87v4.32H17.27Z" transform="translate(0 -0.03)" style="fill:#fff"/><path d="M25.69,49.53V45.21h7.87v4.32H25.69Z" transform="translate(0 -0.03)" style="fill:#fff"/><path d="M17.25,54.49V50.18h3.53V54.5H17.25Z" transform="translate(0 -0.03)" style="fill:#fff"/><path d="M21.35,54.49V50.18h7.87V54.5H21.35Z" transform="translate(0 -0.03)" style="fill:#fff"/><path d="M29.77,54.49V50.18H33.6V54.5H29.77Z" transform="translate(0 -0.03)" style="fill:#fff"/><path d="M17.26,59.47V55.14h7.87v4.33H17.26Z" transform="translate(0 -0.03)" style="fill:#fff"/><path d="M25.69,59.47V55.14h7.87v4.33H25.69Z" transform="translate(0 -0.03)" style="fill:#fff"/><path d="M17.25,64.44V60.12h3.53v4.32H17.25Z" transform="translate(0 -0.03)" style="fill:#fff"/><path d="M21.34,64.44V60.12H29.2v4.32H21.34Z" transform="translate(0 -0.03)" style="fill:#fff"/><path d="M29.77,64.44V60.12H33.6v4.32H29.77Z" transform="translate(0 -0.03)" style="fill:#fff"/><path d="M17.26,69.41V65.09h7.86v4.32H17.26Z" transform="translate(0 -0.03)" style="fill:#fff"/><path d="M25.69,69.41V65.09h7.87v4.32H25.69Z" transform="translate(0 -0.03)" style="fill:#fff"/><path d="M17.25,74.38V70.06h3.53v4.33H17.25Z" transform="translate(0 -0.03)" style="fill:#fff"/><path d="M21.34,74.38V70.06H29.2v4.33H21.34Z" transform="translate(0 -0.03)" style="fill:#fff"/><path d="M29.77,74.38V70.06H33.6v4.33H29.77Z" transform="translate(0 -0.03)" style="fill:#fff"/><path d="M17.26,79.35V75h7.87v4.32H17.26v0Z" transform="translate(0 -0.03)" style="fill:#fff"/><path d="M25.69,79.35V75h7.86v4.32H25.69v0Z" transform="translate(0 -0.03)" style="fill:#fff"/><path d="M17.25,84.36V80h3.53v4.32H17.25v0Z" transform="translate(0 -0.03)" style="fill:#fff"/><path d="M21.34,84.36V80H29.2v4.32H21.34v0Z" transform="translate(0 -0.03)" style="fill:#fff"/><path d="M29.77,84.36V80H33.6v4.32H29.77v0Z" transform="translate(0 -0.03)" style="fill:#fff"/><path d="M17.27,89.33V85h7.87v4.32H17.27Z" transform="translate(0 -0.03)" style="fill:#fff"/><path d="M25.69,89.33V85h7.87v4.32H25.69Z" transform="translate(0 -0.03)" style="fill:#fff"/><path d="M17.25,94.31V90h3.53v4.32H17.25Z" transform="translate(0 -0.03)" style="fill:#fff"/><path d="M21.35,94.31V90h7.87v4.32H21.35Z" transform="translate(0 -0.03)" style="fill:#fff"/><path d="M29.77,94.31V90H33.6v4.32H29.77Z" transform="translate(0 -0.03)" style="fill:#fff"/><path d="M17.26,99.28V95h7.87v4.32H17.26v0Z" transform="translate(0 -0.03)" style="fill:#fff"/><path d="M25.69,99.28V95h7.87v4.32H25.69v0Z" transform="translate(0 -0.03)" style="fill:#fff"/><path d="M17.38,104.25l-0.13-.09V99.92h3.53v4.33h-3.4Z" transform="translate(0 -0.03)" style="fill:#fff"/><path d="M21.34,104.25V99.92H29.2v4.33H21.34Z" transform="translate(0 -0.03)" style="fill:#fff"/><path d="M29.77,104.25V99.92H33.6v4.33H29.77Z" transform="translate(0 -0.03)" style="fill:#fff"/><path d="M22.93,107.41L22,107a32.08,32.08,0,0,1-3-1.65l-0.67-.43h6.79v2.52h-2.2v0Z" transform="translate(0 -0.03)" style="fill:#fff"/><path d="M25.69,107.41V104.9h7.87v2.52H25.69Z" transform="translate(0 -0.03)" style="fill:#fff"/><path d="M41.17,20.39l5.42-6,5.42-6,5.42,6,5.43,6H41.17Z" transform="translate(0 -0.03)" style="fill:#fff;stroke:#000;stroke-miterlimit:79.83999633789062;stroke-width:0.6499999761581421px"/><path d="M45.57,18L52,10.9l3.22,3.56L58.44,18H45.57Z" transform="translate(0 -0.03)" style="fill:#fff;stroke:#000;stroke-miterlimit:79.83999633789062;stroke-width:0.6499999761581421px"/><path d="M48.1,18l2-2.16L52,13.66l2,2.17L56,18H48.1Z" transform="translate(0 -0.03)" style="fill:#fff;stroke:#000;stroke-miterlimit:79.83999633789062;stroke-width:0.6499999761581421px"/><path d="M43.6,30l-4.74-9.43a22.14,22.14,0,0,1,26.33,0L60.35,30H43.6Z" transform="translate(0 -0.03)"/><path d="M43.08,36L38,25.11C41,22,46.18,20,52,20s11,2,14,5.1L60.88,36H43.08Z" transform="translate(0 -0.03)"/><path d="M43.54,35.5L38.76,25.3a14.17,14.17,0,0,1,1.17-1l1-.73-1.44-2.85c2.71-2.23,7.3-3.88,12.48-3.88s9.77,1.66,12.48,3.88L63,23.51l1.07,0.75a14.25,14.25,0,0,1,1.17,1L60.41,35.5H43.54Z" transform="translate(0 -0.03)" style="fill:#fff"/><path d="M42.29,23.19L41,20.42c2.4-1.82,6.45-3,11-3s8.64,1.19,11,3l-1.33,2.75-0.56-.34a20.08,20.08,0,0,0-18.29,0Z" transform="translate(0 -0.03)"/><path d="M42.9,22l-0.67-1.3A18.32,18.32,0,0,1,52,18.18a18.31,18.31,0,0,1,9.79,2.53L61.1,21.89a18.9,18.9,0,0,0-9.1-2A17.88,17.88,0,0,0,42.9,22Z" transform="translate(0 -0.03)" style="fill:#fff"/><path d="M44.29,34.84l-4.36-9.29C42.55,22.89,47,21.13,52,21.13s9.47,1.75,12.1,4.41l-4.45,9.29H44.29Z" transform="translate(0 -0.03)"/><path d="M45.21,33.13L41.36,25.7c2.31-2.12,6.23-3.52,10.66-3.52s8.35,1.39,10.66,3.52l-3.92,7.43H45.21Z" transform="translate(0 -0.03)" style="fill:#fff"/><path d="M70.45,37.2L74.6,24.47l4.15-12.73L82.9,24.47,87,37.2H70.45Z" transform="translate(0 -0.03)"/><path d="M71.81,35.63l0.73-2.26,2.26,2.26h-3Zm3.8,0-2.7-2.71,2.72-2.71,2.72,2.71-2.7,2.71h0Zm0.85,0,2.3-2.3L81,35.63H76.46Zm5.4,0-2.7-2.71,2.71-2.71,2.73,2.71-2.7,2.71h0Zm0.84,0,2.25-2.25,0.73,2.25h-3Zm-3.94-3.11L76,29.8l2.72-2.72,2.71,2.72ZM73,32l1.11-3.4,1.14,1.14Zm11.5,0-2.22-2.2,1.13-1.13Zm-8.87-2.63L74.28,28l1-3.06,0.32-1h0l2.72,2.71Zm6.25,0-2.71-2.72L81.87,24l0.34,1,1,3.08Zm-3.12-3.12L76,23.56l2.72-2.73,2.71,2.73ZM76,22.79l1.16-3.57,1.2,1.21Zm5.5,0-2.32-2.33,1.18-1.18ZM78.75,20l-1.41-1.4,1.27-3.91,0.14-.14,0.1,0.11,1.29,3.94Z" transform="translate(0 -0.03)" style="fill:#fff"/><path d="M78.75,13.24a1.68,1.68,0,1,1,1.68-1.68A1.68,1.68,0,0,1,78.75,13.24Z" transform="translate(0 -0.03)"/><path d="M78.75,12.81A1.26,1.26,0,1,1,80,11.54h0A1.26,1.26,0,0,1,78.75,12.81Z" transform="translate(0 -0.03)" style="fill:#fff"/><path d="M68.24,45.15V39.93h21v5.22h-21Z" transform="translate(0 -0.03)"/><path d="M69.4,39.93V36H88.08v3.94H69.4Z" transform="translate(0 -0.03)"/><path d="M68.89,44.32V40.66h19.7v3.65H68.89Z" transform="translate(0 -0.03)" style="fill:#fff"/><path d="M70,45.7V42.22h3.81V45.7H70Zm3-.88V43.09H71v1.73h2Z" transform="translate(0 -0.03)"/><path d="M74.57,45.7V42.22h3.81V45.7H74.57Zm2.93-.88V43.09h-2v1.73h2Z" transform="translate(0 -0.03)"/><path d="M79.1,45.7V42.22h3.81V45.7H79.1Zm2.9-.88V43.09H80v1.73h2Z" transform="translate(0 -0.03)"/><path d="M83.64,45.7V42.22h3.81V45.7H83.64Zm2.93-.88V43.09h-2v1.73h2Z" transform="translate(0 -0.03)"/><path d="M69.78,39.9V36.45H87.71V39.9H69.78Z" transform="translate(0 -0.03)" style="fill:#fff"/><path d="M85,39.32V37.17h2.13v2.15H85Zm1.64-.5V37.66H85.49v1.16h1.15Z" transform="translate(0 -0.03)"/><path d="M82.55,39.32V37.17h2.12v2.15H82.55Zm1.63-.5V37.66H83v1.16h1.18Z" transform="translate(0 -0.03)"/><path d="M80.11,39.32V37.17h2.13v2.15H80.11Zm1.64-.5V37.66H80.61v1.16h1.14Z" transform="translate(0 -0.03)"/><path d="M77.68,39.32V37.17H79.8v2.15H77.68Zm1.63-.5V37.66H78.17v1.16h1.14Z" transform="translate(0 -0.03)"/><path d="M75.24,39.32V37.17h2.12v2.15H75.24Zm1.64-.5V37.66H75.73v1.16h1.15Z" transform="translate(0 -0.03)"/><path d="M72.8,39.32V37.17h2.12v2.15H72.8Zm1.63-.5V37.66H73.3v1.16h1.13Z" transform="translate(0 -0.03)"/><path d="M70.36,39.32V37.16h2.13v2.16H70.36Zm1.64-.5V37.66H70.86v1.16H72Z" transform="translate(0 -0.03)"/><path d="M69.87,108.08v-63H87.59v59.47l-0.21.15a32.13,32.13,0,0,1-4,2.28l-2.31,1.11H69.87Z" transform="translate(0 -0.03)"/><path d="M79,49.53V45.21h7.87v4.32H79Z" transform="translate(0 -0.03)" style="fill:#fff"/><path d="M70.57,49.53V45.21h7.87v4.32H70.57Z" transform="translate(0 -0.03)" style="fill:#fff"/><path d="M83.35,54.49V50.18h3.53V54.5H83.35Z" transform="translate(0 -0.03)" style="fill:#fff"/><path d="M74.93,54.49V50.18H82.8V54.5H74.93Z" transform="translate(0 -0.03)" style="fill:#fff"/><path d="M70.54,54.49V50.18h3.83V54.5H70.54Z" transform="translate(0 -0.03)" style="fill:#fff"/><path d="M79,59.47V55.14h7.88v4.33H79Z" transform="translate(0 -0.03)" style="fill:#fff"/><path d="M70.57,59.47V55.14h7.88v4.33H70.57Z" transform="translate(0 -0.03)" style="fill:#fff"/><path d="M83.36,64.44V60.12h3.53v4.32H83.36Z" transform="translate(0 -0.03)" style="fill:#fff"/><path d="M74.93,64.44V60.12H82.8v4.32H74.93Z" transform="translate(0 -0.03)" style="fill:#fff"/><path d="M70.54,64.44V60.12h3.83v4.32H70.54Z" transform="translate(0 -0.03)" style="fill:#fff"/><path d="M79,69.41V65.09h7.88v4.32H79Z" transform="translate(0 -0.03)" style="fill:#fff"/><path d="M70.57,69.41V65.09h7.87v4.32H70.57Z" transform="translate(0 -0.03)" style="fill:#fff"/><path d="M83.35,74.38V70.06h3.53v4.33H83.35Z" transform="translate(0 -0.03)" style="fill:#fff"/><path d="M74.93,74.38V70.06H82.8v4.33H74.93Z" transform="translate(0 -0.03)" style="fill:#fff"/><path d="M70.54,74.38V70.06h3.83v4.33H70.54Z" transform="translate(0 -0.03)" style="fill:#fff"/><path d="M79,79.35V75h7.88v4.32H79v0Z" transform="translate(0 -0.03)" style="fill:#fff"/><path d="M70.58,79.35V75h7.87v4.32H70.58v0Z" transform="translate(0 -0.03)" style="fill:#fff"/><path d="M83.36,84.36V80h3.53v4.32H83.36v0Z" transform="translate(0 -0.03)" style="fill:#fff"/><path d="M74.93,84.36V80H82.8v4.32H74.93v0Z" transform="translate(0 -0.03)" style="fill:#fff"/><path d="M70.54,84.36V80h3.83v4.32H70.54v0Z" transform="translate(0 -0.03)" style="fill:#fff"/><path d="M79,89.33V85h7.87v4.32H79Z" transform="translate(0 -0.03)" style="fill:#fff"/><path d="M70.57,89.33V85h7.87v4.32H70.57Z" transform="translate(0 -0.03)" style="fill:#fff"/><path d="M83.35,94.31V90h3.53v4.32H83.35Z" transform="translate(0 -0.03)" style="fill:#fff"/><path d="M74.93,94.31V90H82.8v4.32H74.93Z" transform="translate(0 -0.03)" style="fill:#fff"/><path d="M70.54,94.31V90h3.83v4.32H70.54Z" transform="translate(0 -0.03)" style="fill:#fff"/><path d="M79,99.28V95h7.88v4.32H79v0Z" transform="translate(0 -0.03)" style="fill:#fff"/><path d="M70.57,99.28V95h7.88v4.32H70.57v0Z" transform="translate(0 -0.03)" style="fill:#fff"/><path d="M83.36,104.25V99.92h3.53v4.33H83.36Z" transform="translate(0 -0.03)" style="fill:#fff"/><path d="M74.93,104.25V99.92H82.8v4.33H74.93Z" transform="translate(0 -0.03)" style="fill:#fff"/><path d="M70.54,104.25V99.92h3.83v4.33H70.54Z" transform="translate(0 -0.03)" style="fill:#fff"/><path d="M79,107.41V104.9h7.88V105l-0.45.3c-1,.6-2,1.16-3,1.66l-0.92.44H79Z" transform="translate(0 -0.03)" style="fill:#fff"/><path d="M70.57,107.41V104.9h7.87v2.52H70.57Z" transform="translate(0 -0.03)" style="fill:#fff"/><path d="M42.91,48l-0.14-.1c-3.23-2.34-5.29-7.71-5.29-11.67,0-7,6.51-12.75,14.52-12.75s14.51,5.71,14.51,12.75c0,4-2.06,9.33-5.29,11.67l-0.14.1H42.91Z" transform="translate(0 -0.03)"/><path d="M43.67,47.54l-0.13-.09c-3-2.22-4.84-7.42-4.84-11.18,0-6.68,6-12.11,13.3-12.11s13.3,5.43,13.3,12.11c0,3.76-1.89,9-4.85,11.18l-0.14.09H43.67Z" transform="translate(0 -0.03)" style="fill:#fff"/><path d="M41.73,43.72l-0.32-.56a15.9,15.9,0,0,1-1.88-7c0-5.94,5.59-10.77,12.47-10.77s12.47,4.83,12.47,10.77a15.93,15.93,0,0,1-1.89,7l-0.32.56H41.73Z" transform="translate(0 -0.03)"/><path d="M42.23,43.08l-0.29-.49A14.81,14.81,0,0,1,40.16,36c0-5.51,5.31-10,11.84-10s11.83,4.47,11.83,10A14.76,14.76,0,0,1,62,42.59l-0.28.49H42.23Z" transform="translate(0 -0.03)" style="fill:#ff4000"/><path d="M55.27,42.82c-0.19,0-.28,0-0.3-0.16h0a1.17,1.17,0,0,1-.32.06,0.75,0.75,0,0,1-.34,0,0.17,0.17,0,0,1,0-.19A2.23,2.23,0,0,1,54.47,42,1.07,1.07,0,0,1,55,41.5a0.6,0.6,0,0,0,.32-0.37,2.12,2.12,0,0,0,.29-0.67,0.53,0.53,0,0,0,0-.47,1.12,1.12,0,0,0-.44-0.35,2.93,2.93,0,0,1-1.37-1.12,0.41,0.41,0,0,0-.08-0.15H53.64a8.15,8.15,0,0,1,.6,1.16,2.6,2.6,0,0,1,.21,1.14,0.91,0.91,0,0,1-.15.64,0.51,0.51,0,0,1-.26-0.2,1.43,1.43,0,0,1,.09.31,0.14,0.14,0,0,1-.12.14,0.77,0.77,0,0,1-.25,0,2.6,2.6,0,0,1-.79-0.4,2.18,2.18,0,0,1,.11.37,0.07,0.07,0,0,1-.06.07,3,3,0,0,1-1.56-.84,5.05,5.05,0,0,1-1-1.81,3.49,3.49,0,0,0-.12-0.38H50.25a0.9,0.9,0,0,1,.09.42,0.15,0.15,0,0,1-.14.13A1.79,1.79,0,0,1,49.77,39a0.32,0.32,0,0,1-.27.06,2.19,2.19,0,0,0-.56,0,0.78,0.78,0,0,0-.22.09,0.37,0.37,0,0,1-.31.06,0.65,0.65,0,0,1,0-.2,0.6,0.6,0,0,1,.17-0.29,3.1,3.1,0,0,1,.31-0.27,0.78,0.78,0,0,0,.27-0.28A0.69,0.69,0,0,1,49.28,38a0.29,0.29,0,0,1,.17-0.09s0.06,0,0-.06H49.3a0.27,0.27,0,0,0-.12.1,1.48,1.48,0,0,1-.48-0.07,7.81,7.81,0,0,1-1.7-.59,0.29,0.29,0,0,0-.23.1,3.06,3.06,0,0,0-.35.56,0.46,0.46,0,0,0,0,.26,1.24,1.24,0,0,0,.07.25,0.79,0.79,0,0,0,.31.16,3.32,3.32,0,0,1,.13.56,0.86,0.86,0,0,1,0,.5v0.06a0.25,0.25,0,0,1-.16,0,0.83,0.83,0,0,1-.63-0.3L46,39.26h0a1.07,1.07,0,0,1-.21.23H45.65a2.31,2.31,0,0,1-.35-0.28A1.46,1.46,0,0,1,45.17,39,0.45,0.45,0,0,1,45,38.6V37.91a1.63,1.63,0,0,1,.14-0.56,3.69,3.69,0,0,0,.24-0.79,4.36,4.36,0,0,1,.13-0.64A1.07,1.07,0,0,1,46,35.6a0.56,0.56,0,0,1,.45,0,2.12,2.12,0,0,0,.65,0,0.22,0.22,0,0,1,.06-0.18,5.38,5.38,0,0,1,.29-0.68c0.08-.21.13-0.55,0.23-0.75a1.79,1.79,0,0,0,.11-0.2l-0.09-.08a0.69,0.69,0,0,0-.31,0,0.23,0.23,0,0,1-.27-0.09,0.25,0.25,0,0,1,.06-0.21q0.14-.1,0-0.12a0.24,0.24,0,0,0-.12.17,0.27,0.27,0,0,1,0,.14,0.38,0.38,0,0,1-.17.14,0.41,0.41,0,0,1-.34-0.15,0.61,0.61,0,0,1-.11-0.24,1.24,1.24,0,0,1,.1-0.42c0.11-.25.11-0.38,0.26-0.68a4.62,4.62,0,0,1,.28-0.48,3.35,3.35,0,0,1,.4-0.58l0-.07v-0.3l0.41-.18a1.79,1.79,0,0,1,.5-0.12,1.38,1.38,0,0,1,.22-0.33c0.07,0,.09,0,0.08.19a0.69,0.69,0,0,1,0,.19l0.46,0.12,0.08-.2a4.9,4.9,0,0,1-.08-0.68A3.67,3.67,0,0,1,49.56,29a0.56,0.56,0,0,0-.19-0.15H49.22a0.28,0.28,0,0,1-.3.2,0.36,0.36,0,0,1-.34-0.33,0.33,0.33,0,0,1,.26-0.36,0.64,0.64,0,0,1,.21,0,0.29,0.29,0,0,1,.12.08H49.4a0.28,0.28,0,0,1,.12-0.22H49.6a0.08,0.08,0,0,0,0-.06h0.16l0.1-.1A0.19,0.19,0,0,1,50,28a0.5,0.5,0,0,1,.29.12,0.18,0.18,0,0,0,.07-0.22,0.62,0.62,0,0,1,.06-0.38,0.26,0.26,0,0,1,.14,0h0.13c0,0.12.08,0.36,0.11,0.54L51.42,28l1.84-.21c0.61-.07,1.23-0.12,1.82-0.15a1.67,1.67,0,0,1,.58.07c0.09,0.06.09,0.11,0,.16a4.77,4.77,0,0,1-1.11.29l-2.16.39-1.48.34a2.85,2.85,0,0,1,0,.45h-0.3A0.68,0.68,0,0,0,50.44,29h0a0.41,0.41,0,0,1-.2.1,0.89,0.89,0,0,0,0,.44,0.53,0.53,0,0,1,0,.31l-0.08,0a1.62,1.62,0,0,1-.06.48l0.29,0.09,0.51,0.11a0.26,0.26,0,0,1,.17.14,1.49,1.49,0,0,0,.28-0.13,0.48,0.48,0,0,0,0-.28h0a0.06,0.06,0,0,0,0-.06h0a0.06,0.06,0,0,1,0-.07,0.48,0.48,0,0,0,0-.13,0.64,0.64,0,0,1,0-.15h0a0.09,0.09,0,0,1,0-.12,2.2,2.2,0,0,1,.13-0.43A0.89,0.89,0,0,1,51.58,29a1.38,1.38,0,0,1,.87-0.43,0.22,0.22,0,0,1,.17.07,1,1,0,0,1,.18.42,1.52,1.52,0,0,1,0,.73v0.07a3.51,3.51,0,0,1,.06.53c0.33-.12.72-0.24,1-0.33a9.48,9.48,0,0,1,.32,1,3.92,3.92,0,0,1,.12,2.14,5.51,5.51,0,0,1-.31.69,7.26,7.26,0,0,1-.46.65,0.89,0.89,0,0,1-.31,0,1,1,0,0,1,0,.19,7,7,0,0,1,1.13,0,4.09,4.09,0,0,1,1.4.45,0.7,0.7,0,0,0,.66,0A4,4,0,0,0,57,34.75a1.61,1.61,0,0,1,1.14-.36,1,1,0,0,1,1,1.1,2.18,2.18,0,0,1-.87,1.83,7.12,7.12,0,0,1-.92.58,0.32,0.32,0,0,0,.1.23,0.76,0.76,0,0,0,.41,0,0.67,0.67,0,0,1-.2.36,0.62,0.62,0,0,1-.76.06,0.79,0.79,0,0,1-.17-0.23,0.94,0.94,0,0,1,0-.63l0.07-.45a6.21,6.21,0,0,1-.49,1.27,1.86,1.86,0,0,0,.84.48,0.38,0.38,0,0,1,.32.53,9,9,0,0,1-.29.89A2.69,2.69,0,0,0,57,41.59a1,1,0,0,1,0,.36,0.17,0.17,0,0,1-.14.08H56.51a0.21,0.21,0,0,0-.27.12v0a0.54,0.54,0,0,1-.17.43,0.76,0.76,0,0,1-.35.23A3.08,3.08,0,0,0,55.27,42.82ZM56,41.48a0.15,0.15,0,0,0,.14-0.12h0A1.55,1.55,0,0,0,56.25,41a1.33,1.33,0,0,0,0-.3,1,1,0,0,1-.12.29,2.29,2.29,0,0,0-.1.23A0.74,0.74,0,0,0,56,41.48ZM45.88,37.55a3.31,3.31,0,0,0,.22-0.49,3,3,0,0,0,.19-0.47H46.21a1.56,1.56,0,0,0-.25.51A2.16,2.16,0,0,0,45.88,37.55Zm10.92-.74a3.09,3.09,0,0,1,.2-0.5,2.64,2.64,0,0,1,.39-0.4H57.1a2.88,2.88,0,0,1-.52-0.07,2.35,2.35,0,0,1,.21.51,0.51,0.51,0,0,1,0,.15c0,0.09,0,.22,0,0.32h0Zm-5.75-4h0.1a5.45,5.45,0,0,1-.25-0.55c-0.06-.14-0.23-0.58-0.28-0.72a0.37,0.37,0,0,1-.22,0,6.43,6.43,0,0,1,.6,1.25Z" transform="translate(0 -0.03)"/><path d="M54.75,42.49H54.52a0.09,0.09,0,0,1-.1-0.09,0.93,0.93,0,0,1,.13-0.27,0.1,0.1,0,0,1,.14,0l0,0a0.72,0.72,0,0,0,.2.07,0.17,0.17,0,0,1,.1,0v0.08A0.38,0.38,0,0,1,54.75,42.49Z" transform="translate(0 -0.03)" style="fill:#fff"/><path d="M50.12,39a0.85,0.85,0,0,1-.34,0,0.37,0.37,0,0,0,0-.15,2.38,2.38,0,0,0,.38-0.11,0.32,0.32,0,0,1,0,.32Zm-0.58-.65a0.2,0.2,0,0,1-.19-0.2,0.22,0.22,0,0,1,.09-0.1,0.31,0.31,0,0,1,.14,0l0.07,0.08a0.15,0.15,0,0,1,0,.17,0.2,0.2,0,0,1-.12.08v0Z" transform="translate(0 -0.03)" style="fill:#fff"/><path d="M49.63,37.88a0.07,0.07,0,0,0,0-.07,0.15,0.15,0,0,0,.08-0.14c0.08,0,.08,0,0,0.1h0C49.74,37.92,49.69,37.95,49.63,37.88Z" transform="translate(0 -0.03)" style="fill:#fff"/><path d="M49.77,38.63L50,38.56l0.61-.23a2,2,0,0,1,.31-0.13l-0.35.18L50,38.61A0.22,0.22,0,0,1,49.77,38.63Z" transform="translate(0 -0.03)" style="fill:#fff"/><path d="M49.61,39H49.15a2.07,2.07,0,0,1,.08-0.21,0.64,0.64,0,0,1,.1-0.24,0.15,0.15,0,0,1,.16-0.06h0.06a1.11,1.11,0,0,1,.06.42A0.71,0.71,0,0,0,49.61,39Z" transform="translate(0 -0.03)" style="fill:#fff"/><path d="M48.58,39.15A0.16,0.16,0,0,1,48.65,39,0.08,0.08,0,1,1,48.58,39.15Zm0.2-.11a0.36,0.36,0,0,1-.07-0.12,0.2,0.2,0,0,1,.09-0.07,0.23,0.23,0,0,1,.07.13l-0.09,0v0Zm0.22-.1-0.08-.15A0.16,0.16,0,0,1,49,38.67v0.27Z" transform="translate(0 -0.03)" style="fill:#fff"/><path d="M49.92,38.48c-0.09.07-.15,0.07-0.2,0s0,0,0-.14a0.68,0.68,0,0,0,.07-0.25,1,1,0,0,1,.06-0.32,7.62,7.62,0,0,1,.34-0.92,0.26,0.26,0,0,1,.19-0.22,0.68,0.68,0,0,1,.32,0,0.1,0.1,0,0,1,0,.1,0.49,0.49,0,0,1,0,.17,0.89,0.89,0,0,1-.09.29,2.75,2.75,0,0,1-.24.44c-0.15.19-.3,0.59-0.42,0.77Z" transform="translate(0 -0.03)" style="fill:#fff"/><path d="M51.36,38.29a0.3,0.3,0,0,1-.15-0.15,0.28,0.28,0,0,0,.14-0.06s0-.1,0-0.1H51.22a1.18,1.18,0,0,1,0-.22,1,1,0,0,0,.22.15h0.25a0.73,0.73,0,0,1-.22.21A0.55,0.55,0,0,1,51.36,38.29Z" transform="translate(0 -0.03)" style="fill:#fff"/><path d="M50.23,38.31s-0.1,0-.1,0l0.21-.4a5.89,5.89,0,0,1,.35-0.55A1.23,1.23,0,0,0,50.84,37a0.42,0.42,0,0,0,0-.2c0-.12.08-0.13,0.15,0A0.43,0.43,0,0,1,51,37a1.3,1.3,0,0,0,0,.24,0.92,0.92,0,0,1,0,.25,0.13,0.13,0,0,1-.06.1,1.77,1.77,0,0,0-.32.19A2,2,0,0,0,50.23,38.31Z" transform="translate(0 -0.03)" style="fill:#fff"/><path d="M50.31,36.51a0.41,0.41,0,0,1-.13-0.32,0.53,0.53,0,0,1,.25-0.2,1.17,1.17,0,0,0,.64.24c0.1,0,.13,0,0.07.13a0.21,0.21,0,0,1-.15.14H50.31Z" transform="translate(0 -0.03)" style="fill:#fff"/><path d="M53.92,41.46a1.45,1.45,0,0,1-.6-0.19,2.46,2.46,0,0,1-.62-0.56,6.77,6.77,0,0,1-.39-0.62A6.89,6.89,0,0,1,52,39.45a0.47,0.47,0,0,0-.13-0.21,0.16,0.16,0,0,0-.16,0s0.08,0.19.09,0.23a7,7,0,0,0,.5,1c0.22,0.37.4,0.62,0.47,0.74a0.49,0.49,0,0,1,.07.17,0.21,0.21,0,0,1-.16,0,2.5,2.5,0,0,1-1.17-.73,5.75,5.75,0,0,1-1-2.13l0.38-.18,0.29-.15,0.17,0.18,0.12,0.14h0a0.82,0.82,0,0,0,.06-0.34,0.9,0.9,0,0,0,.26-0.34H51.46a1.81,1.81,0,0,1-.23-0.24c-0.07,0-.09,0-0.08.13a2.78,2.78,0,0,1,0,.29,6.52,6.52,0,0,0-.64.2,0.1,0.1,0,0,1,0-.08,0.83,0.83,0,0,1,.41-0.43,0.38,0.38,0,0,0,.25-0.3V37a1.32,1.32,0,0,1,.06-0.42,0.66,0.66,0,0,1,.2-0.29A3.48,3.48,0,0,0,51.7,36a1.22,1.22,0,0,0,.3,0l0.48,1.39a4.4,4.4,0,0,0,.77,1.55,0.54,0.54,0,0,0,.16.15,0.31,0.31,0,0,0,.1-0.2,2.63,2.63,0,0,1,0-.28,4.65,4.65,0,0,1,.58,1,2.5,2.5,0,0,1,.2,1.14,0.57,0.57,0,0,1-.08.32,0.88,0.88,0,0,1-.28-0.25,7.58,7.58,0,0,1-.79-1.24A0.8,0.8,0,0,1,53,39.22c0-.13-0.06-0.14-0.14-0.12s-0.06.09,0,.22,0.22,0.5.36,0.74,0.37,0.55.52,0.81A1.6,1.6,0,0,1,53.92,41.46Z" transform="translate(0 -0.03)" style="fill:#fff"/><path d="M53.8,37.08a1.16,1.16,0,0,1,0-.52,1,1,0,0,0,.18.07A0.73,0.73,0,0,1,53.8,37.08Z" transform="translate(0 -0.03)" style="fill:#ff9"/><path d="M54,36.55l-0.2-.07a1.15,1.15,0,0,1,.06-0.27l0.21,0.08A0.37,0.37,0,0,0,54,36.55Z" transform="translate(0 -0.03)" style="fill:#fff"/><path d="M53.72,36.43s-0.65-.37-0.79-0.42,0-.2,0-0.28a6,6,0,0,1,.9.44C53.93,36.2,53.74,36.34,53.72,36.43Z" transform="translate(0 -0.03)" style="fill:#ff9"/><path d="M46.76,39.6a1,1,0,0,1-.45-0.15h0a1.84,1.84,0,0,0,.18-0.36,1.16,1.16,0,0,1,.17-0.26h0A1.82,1.82,0,0,1,46.76,39.6Z" transform="translate(0 -0.03)" style="fill:#fff"/><path d="M45.65,39.28a1,1,0,0,1-.4-0.41l0.11,0a0.9,0.9,0,0,0,.22-0.17h0a1,1,0,0,1,.19.27h0a0.93,0.93,0,0,1-.08.28Z" transform="translate(0 -0.03)" style="fill:#fff"/><path d="M45.21,38.8a0.36,0.36,0,0,1-.07-0.3,3.37,3.37,0,0,0,0-.71A3.65,3.65,0,0,1,45.41,37c0.09-.29.1-0.37,0.16-0.6a0.63,0.63,0,0,1,.22-0.53A0.79,0.79,0,0,1,46,35.7a1.89,1.89,0,0,1,.58,0H47a4,4,0,0,1,0,.49,0.69,0.69,0,0,0-.49,0,0.49,0.49,0,0,0-.11.11,0.16,0.16,0,0,1-.23,0h0a0.86,0.86,0,0,0-.34.48,3.27,3.27,0,0,0-.11.44,2.44,2.44,0,0,0-.06.3,0.19,0.19,0,0,1,0,.2,0.28,0.28,0,0,1-.33.09,0.11,0.11,0,0,0,.07.07h0.06v0.42a0.3,0.3,0,0,1-.09.25A1,1,0,0,1,45.21,38.8Z" transform="translate(0 -0.03)" style="fill:#fff"/><path d="M53.8,36.1l-0.91-.44a3.45,3.45,0,0,0,.37-0.87h0.57a1.77,1.77,0,0,1,0,.36A7.11,7.11,0,0,1,53.8,36.1Z" transform="translate(0 -0.03)" style="fill:#fff"/><path d="M52.7,34.66a0.15,0.15,0,0,1,0-.1,0.45,0.45,0,0,0-.26-0.35H52.35a1.52,1.52,0,0,1,0-.21l0.61,0.29A1.75,1.75,0,0,1,52.7,34.66Z" transform="translate(0 -0.03)" style="fill:#fff"/><path d="M51.71,34.73l-0.07-.2c0.15-.06.44-0.17,0.61-0.22l0.07,0.21Z" transform="translate(0 -0.03)" style="fill:#fff"/><path d="M50.93,36.12a0.64,0.64,0,0,1-.42-0.23,2,2,0,0,1,.11-0.29,5.55,5.55,0,0,1,.3-0.64l0.14-.29a1.8,1.8,0,0,1,.34-0.45c0.08,0.22.19,0.58,0.26,0.79a1,1,0,0,0-.2.21A5.06,5.06,0,0,0,51,36,0.83,0.83,0,0,1,50.93,36.12Zm0.35,0a0.31,0.31,0,0,1-.24,0,4.78,4.78,0,0,0,.41-0.72,1.3,1.3,0,0,1,.26-0.28s0.13,0.39.15,0.43a0.72,0.72,0,0,1-.13.14,3.55,3.55,0,0,1-.34.38Zm1.23-1.35a3.48,3.48,0,0,0-.14-0.47h0.08a0.43,0.43,0,0,1,.13.21,0.38,0.38,0,0,1,0,.15,0.09,0.09,0,0,1-.07.11h0Z" transform="translate(0 -0.03)" style="fill:#fff"/><path d="M51,34a1.52,1.52,0,0,1-.18-0.25l0.2-.07a0.23,0.23,0,0,0,.17.08Z" transform="translate(0 -0.03)" style="fill:#fff"/><path d="M51.27,33.64a0.12,0.12,0,0,1-.13-0.06,0.1,0.1,0,0,1,.14,0h0v0.06Z" transform="translate(0 -0.03)" style="fill:#fff"/><path d="M51,33.45H50.94c0.16,0,.19,0,0.11.06A0.11,0.11,0,0,1,51,33.45Z" transform="translate(0 -0.03)" style="fill:#fff"/><path d="M53.39,38.89a0.45,0.45,0,0,1-.12-0.13,3.86,3.86,0,0,1-.59-1.12c-0.07-.2-0.1-0.31-0.18-0.54-0.19-.51-0.29-0.86-0.48-1.43-0.1-.29-0.18-0.58-0.28-0.86l0.63-.21c0.24,0.79.49,1.6,0.72,2.4,0.1,0.36.21,0.76,0.28,1.11A2.79,2.79,0,0,1,53.39,38.89Zm-1.76-4.44A2.42,2.42,0,0,0,51.48,34l0.28-.06A2.17,2.17,0,0,0,52,33.86L52.16,34a2.87,2.87,0,0,1,.07.28Z" transform="translate(0 -0.03)" style="fill:#fff"/><path d="M51.81,33.81c-0.09,0-.13,0-0.15-0.06h0.16l0.07,0.07H51.81Z" transform="translate(0 -0.03)" style="fill:#fff"/><path d="M52,35.86a0.24,0.24,0,0,1-.21,0,0.68,0.68,0,0,0,.15-0.18Zm0.8-.29L52.58,35A1.46,1.46,0,0,0,53,34.39h0A1.09,1.09,0,0,1,53,35a1.65,1.65,0,0,1-.25.56h0Zm-1.91-.62a0.41,0.41,0,0,1,0-.33A0.77,0.77,0,0,1,51,34.36a1.68,1.68,0,0,1,.35-0.53l0.15-.08h0v0.13l-0.21.06a1.36,1.36,0,0,0,.06.18,3.41,3.41,0,0,0-.35.48,0.87,0.87,0,0,1-.16.34h0Z" transform="translate(0 -0.03)" style="fill:#fff"/><path d="M51.64,33.59a0.16,0.16,0,0,1-.14,0,0.24,0.24,0,0,0,0-.15,0.14,0.14,0,0,1,.15.17h0v0Z" transform="translate(0 -0.03)" style="fill:#fff"/><path d="M51.09,33.27a0.13,0.13,0,0,1-.2-0.06H51.1A0.07,0.07,0,0,1,51.09,33.27Z" transform="translate(0 -0.03)" style="fill:#fff"/><path d="M51.39,33.53a0.08,0.08,0,0,1-.07-0.06h0l-0.08-.12h0a0.08,0.08,0,0,0,0-.08,0.12,0.12,0,0,1,0-.09c0.1-.11.16,0,0.18,0.16S51.5,33.45,51.39,33.53Z" transform="translate(0 -0.03)" style="fill:#fff"/><path d="M51.1,33c-0.08.12-.13,0.11-0.16,0a0.24,0.24,0,0,1,.14,0h0Z" transform="translate(0 -0.03)" style="fill:#fff"/><path d="M48,34.37V34.25a0.83,0.83,0,0,1,0-.15h0.2c0.59-.07,1.17-0.16,1.72-0.27a4.45,4.45,0,0,0,.78-0.19v0.09c-0.61.15-1.52,0.49-2.4,0.64A0.64,0.64,0,0,1,48,34.37Z" transform="translate(0 -0.03)" style="fill:#ff9"/><path d="M48,34h0a0.18,0.18,0,0,1,0-.08V33.65a1.19,1.19,0,0,1,0-.29h0v0.26a1.42,1.42,0,0,1,.06.36H48v0Z" transform="translate(0 -0.03)" style="fill:#ff9"/><path d="M48.08,33.27h0V33.2A0.22,0.22,0,0,1,48.2,33h0a0.12,0.12,0,0,0,0,.06C48.17,33.22,48.13,33.27,48.08,33.27Z" transform="translate(0 -0.03)" style="fill:#fff"/><path d="M47.69,33.65h0s0-.07,0-0.1a0.17,0.17,0,0,1,.11,0,0.18,0.18,0,0,1,0,.06,0.2,0.2,0,0,1,0,.17H47.7V33.65Z" transform="translate(0 -0.03)" style="fill:#fff"/><path d="M48.37,32.79a0.29,0.29,0,0,1-.25,0s0.37-.77.38-0.84a2.18,2.18,0,0,1,.15.49,0.26,0.26,0,0,1-.08.29A0.49,0.49,0,0,1,48.37,32.79Z" transform="translate(0 -0.03)" style="fill:#fff"/><path d="M50.8,33.5c0-.06-0.09-0.47-0.11-0.54a2.08,2.08,0,0,0-.08-0.33,2.3,2.3,0,0,0-.46-0.9,3.18,3.18,0,0,0-1.4-.86,0.29,0.29,0,0,1-.07-0.13,3.18,3.18,0,0,1,1.45.69,2.43,2.43,0,0,1,.54.81,3.85,3.85,0,0,1,.22.52v0.08a0.29,0.29,0,0,0-.12.23,0.74,0.74,0,0,0,.08.4H50.8v0Z" transform="translate(0 -0.03)" style="fill:#fff"/><path d="M48.62,31.33a0.07,0.07,0,0,1-.07-0.08,0.17,0.17,0,0,0,0-.17c0-.09,0-0.1.06,0a0.22,0.22,0,0,1,0,.09A0.76,0.76,0,0,1,48.62,31.33Z" transform="translate(0 -0.03)" style="fill:#fff"/><path d="M48.24,33.94l0-.4a1.11,1.11,0,0,0,0-.12l0.53-.79a1,1,0,0,0,.2-0.63,0.61,0.61,0,0,0-.24-0.4,0.17,0.17,0,0,1,0-.1,0.67,0.67,0,0,0,.13-0.3,0.51,0.51,0,0,0,0-.19,3.32,3.32,0,0,1,1.29.86A2.55,2.55,0,0,1,50.62,33a4.22,4.22,0,0,0,.09.59A14.76,14.76,0,0,1,48.24,33.94Z" transform="translate(0 -0.03)" style="fill:#fff"/><path d="M48.46,30.89H48.31s0.13-.22.17-0.29l0.06-.08h0a0.39,0.39,0,0,1,0,.15A0.48,0.48,0,0,1,48.46,30.89Z" transform="translate(0 -0.03)" style="fill:#fff"/><path d="M50.34,31.41l-0.18-.16L49.84,31a5.68,5.68,0,0,1,.29-0.53h0.19a2,2,0,0,1,.43.11,0.24,0.24,0,0,1,.13.1V31a1.67,1.67,0,0,0-.37.14v0.21A0.55,0.55,0,0,1,50.34,31.41ZM49.74,31l-0.49-.24,0.09-.16h0.13a2,2,0,0,0,.44-0.2,0.1,0.1,0,0,1,.1.07Zm-0.38-.52V29.89h0.71a1.18,1.18,0,0,1-.08.41,1.67,1.67,0,0,1-.38.19H49.36Z" transform="translate(0 -0.03)" style="fill:#fff"/><path d="M48.48,31.65a0.1,0.1,0,0,1-.14,0h0a0.12,0.12,0,0,1,.07-0.14,0.1,0.1,0,0,1,.14,0l0,0a0.11,0.11,0,0,1-.09.13h0Z" transform="translate(0 -0.03)" style="fill:#fff"/><path d="M48.41,31.27l-0.22-.11a0.07,0.07,0,0,1,0-.07h0a0.19,0.19,0,0,0,.15,0c0.07,0,.1,0,0.07-0.08h0c0.07,0,.09.06,0,0.13A0.26,0.26,0,0,1,48.41,31.27Z" transform="translate(0 -0.03)" style="fill:#fff"/><path d="M47.52,32.9H47.37a2,2,0,0,1-.62-0.29l0.09-.14a1.64,1.64,0,0,0,.73.36ZM48,32.82l-0.15-.06a4.43,4.43,0,0,0,.51-1l0.12,0a1.65,1.65,0,0,1-.1.29A3.33,3.33,0,0,1,48,32.82Zm0.8-.48h0a1.69,1.69,0,0,0-.19-0.57h0l0.06-.06a0.62,0.62,0,0,1,.18.36,0.68,0.68,0,0,1-.09.27h0Zm-0.49-.88-0.43-.32,0.08,0a1.33,1.33,0,0,1,.27.16l0.15,0.14a0.06,0.06,0,1,1-.1.07h0Z" transform="translate(0 -0.03)" style="fill:#ff9"/><path d="M47.62,31a0.21,0.21,0,0,1,0-.11,2,2,0,0,1,.62-0.22,0.14,0.14,0,0,1,0,.1A1.51,1.51,0,0,0,47.62,31Z" transform="translate(0 -0.03)" style="fill:#fff"/><path d="M49.44,28.7c-0.15.06-.23,0-0.24-0.11,0.19,0,.28,0,0.27.09S49.46,28.69,49.44,28.7Z" transform="translate(0 -0.03)" style="fill:#fff"/><path d="M49.79,28.69H49.72a0.49,0.49,0,0,1-.19-0.17v-0.1a0.26,0.26,0,0,1,.28.21h0Z" transform="translate(0 -0.03)" style="fill:#fff"/><path d="M48.93,28.94a0.22,0.22,0,0,1-.25-0.19h0a0.18,0.18,0,0,1,.12-0.22h0a0.19,0.19,0,0,1,.24.21A0.2,0.2,0,0,1,48.93,28.94Z" transform="translate(0 -0.03)" style="fill:#fff"/><path d="M51,30.89a0.47,0.47,0,0,0,.08-0.16h0.06a0.11,0.11,0,0,1,0,.11C51.12,30.93,51.07,30.94,51,30.89Zm0.29,0a0.42,0.42,0,0,1,0-.11h0a0.27,0.27,0,0,1,.09.07Zm0.41-.15a0.25,0.25,0,0,1-.27-0.13A4,4,0,0,0,52,30.5l0.18,0.06-0.47.15Z" transform="translate(0 -0.03)" style="fill:#fff"/><path d="M51.58,30.2H51.46a0.24,0.24,0,0,1,.11.08h0V30.2Z" transform="translate(0 -0.03)" style="fill:#fff"/><path d="M51.7,30.45a0.12,0.12,0,1,1,0-.11,0.07,0.07,0,0,0,0-.1h0a0.74,0.74,0,0,0-.27-0.2h0a0.18,0.18,0,0,1-.11,0,0.21,0.21,0,0,1,0-.07,0.28,0.28,0,0,1,.07-0.16h0a0.07,0.07,0,0,1,.1,0h0a0.08,0.08,0,0,0,.1,0,0.32,0.32,0,0,1,.17,0v0.08a0.91,0.91,0,0,0,0,.12h0c0,0.25,0,.39-0.13.42Z" transform="translate(0 -0.03)" style="fill:#fff"/><path d="M49.34,29.75L49.71,29h0a0.37,0.37,0,0,0-.17-0.11,0.24,0.24,0,0,1,.28.11h0c0.11,0,.16,0,0.13.13a3.91,3.91,0,0,0,0,.57A2.44,2.44,0,0,1,49.34,29.75Z" transform="translate(0 -0.03)" style="fill:#fff"/><path d="M49.93,28.59a0.59,0.59,0,0,1-.22-0.3,0.07,0.07,0,0,1,.07,0,0.41,0.41,0,0,1,.21.3H49.93Z" transform="translate(0 -0.03)" style="fill:#fff"/><path d="M50,28.49a0.77,0.77,0,0,1-.13-0.19s0-.15.06-0.14a0.2,0.2,0,0,1,.1.07,0.3,0.3,0,0,1,0,.23S50.06,28.52,50,28.49Z" transform="translate(0 -0.03)" style="fill:#fff"/><path d="M50,28.89a0.2,0.2,0,0,1-.13-0.07h0a0.18,0.18,0,0,0,.1-0.11h0.19a0.11,0.11,0,0,0,.13-0.09h0a0.14,0.14,0,0,1,0,0h0a0.12,0.12,0,0,1-.07-0.12,0.06,0.06,0,0,1,0,0,0.19,0.19,0,0,1,.11.07h0.07a0.25,0.25,0,0,1,0,.23,0.6,0.6,0,0,1-.11.15A0.34,0.34,0,0,1,50,28.89Z" transform="translate(0 -0.03)" style="fill:#fff"/><path d="M50.68,29.23a4,4,0,0,1-.18-0.51,0.23,0.23,0,0,0,.08-0.17,0.32,0.32,0,0,0-.06-0.21,0.41,0.41,0,0,0-.14-0.15,0.49,0.49,0,0,0,0-.32,0.76,0.76,0,0,1,0-.24,0.21,0.21,0,0,1,.15,0c0.09,0.44.2,1.15,0.25,1.6H50.68Z" transform="translate(0 -0.03)" style="fill:#fff"/><path d="M52.4,30.52l-0.24-.13A0.44,0.44,0,0,1,52,30a1.17,1.17,0,0,1,0-.18,0.15,0.15,0,0,0-.09-0.17H51.42a0.15,0.15,0,0,1,0-.06,0.91,0.91,0,0,1,.23-0.46,1.43,1.43,0,0,1,.71-0.4,0.2,0.2,0,0,1,.24.1,1.77,1.77,0,0,1,.13.44,1.63,1.63,0,0,1,0,.47,0.09,0.09,0,0,1,0,.08h0a2.55,2.55,0,0,1,0,.57Z" transform="translate(0 -0.03)" style="fill:#fff"/><path d="M55.67,42.7a1.14,1.14,0,0,1-.29,0,0.45,0.45,0,0,1-.29,0,0.87,0.87,0,0,1,.15-0.2V42.31a0.3,0.3,0,0,1,.22,0,1.33,1.33,0,0,0,.34,0,0.72,0.72,0,0,1,.26,0h0A0.66,0.66,0,0,1,55.67,42.7Z" transform="translate(0 -0.03)" style="fill:#fff"/><path d="M55.13,42.09h-0.3A0.32,0.32,0,0,1,54.61,42l0.22-.18,0.32-.14a1.5,1.5,0,0,0,.46-0.72,2.12,2.12,0,0,0,.19-0.68,0.58,0.58,0,0,0-.27-0.44l0.27,0.1a0.77,0.77,0,0,1,.44.21,0.49,0.49,0,0,1,0,.36A4.29,4.29,0,0,0,56,41q-0.15.36-.27,0.72A3.2,3.2,0,0,0,55.13,42.09Z" transform="translate(0 -0.03)" style="fill:#fff"/><path d="M57.11,38.52A0.18,0.18,0,0,1,57,38.3l0,0a0.62,0.62,0,0,1,.25-0.3,0.62,0.62,0,0,0,.07.27,0.54,0.54,0,0,0,.33,0A0.62,0.62,0,0,1,57.11,38.52Zm-0.35-1,0.1-.48a2.11,2.11,0,0,1,.2-0.6A2.39,2.39,0,0,1,57.49,36a0.69,0.69,0,0,1,0,.34,0.41,0.41,0,0,1-.07.15,3.3,3.3,0,0,1-.27.4,3.66,3.66,0,0,0-.39.62h0Zm0.65-1.69H57.08l0.24-.16,0.09,0.15s0,0,0,0v0Z" transform="translate(0 -0.03)" style="fill:#fff"/><path d="M54.94,37.4a0.6,0.6,0,0,1,0-.43l0.21,0A2.83,2.83,0,0,1,54.94,37.4Z" transform="translate(0 -0.03)" style="fill:#ff9"/><path d="M55.18,36.95a1.14,1.14,0,0,1-.27-0.06A0.39,0.39,0,0,1,55,36.64h0.25A1.81,1.81,0,0,1,55.18,36.95Z" transform="translate(0 -0.03)" style="fill:#fff"/><path d="M54.84,36.86a5.14,5.14,0,0,1-.77-0.29,0.44,0.44,0,0,1,0-.23l0.2,0.09a3,3,0,0,0,.58.2S54.86,36.8,54.84,36.86Z" transform="translate(0 -0.03)" style="fill:#ff9"/><path d="M55.21,36.59H55A13.67,13.67,0,0,0,55.08,35l0.21,0.07v1.2A2.24,2.24,0,0,1,55.21,36.59Z" transform="translate(0 -0.03)" style="fill:#ff9"/><path d="M55.26,37V36.75a2.81,2.81,0,0,0,1.28,0l0.13-.06a1.07,1.07,0,0,1,0,.24A2.81,2.81,0,0,1,55.26,37Z" transform="translate(0 -0.03)" style="fill:#ff9"/><path d="M56.9,38.45a0.88,0.88,0,0,1-.17-0.62,1.47,1.47,0,0,1,.21-0.48,4.54,4.54,0,0,1,.49-0.69,1,1,0,0,0,.19-0.58,0.76,0.76,0,0,0-.22-0.51,0.6,0.6,0,0,1,.6-0.14A0.5,0.5,0,0,1,58,36a2.86,2.86,0,0,1-.24.58,2.67,2.67,0,0,1-.39.24,0.08,0.08,0,0,0,.07.06h0.1a2.17,2.17,0,0,0,.72-0.56A1.26,1.26,0,0,0,58.43,36a1.09,1.09,0,0,0,0-.49,0.37,0.37,0,0,0,0,.17,1.3,1.3,0,0,1-.52.9,3.25,3.25,0,0,0,.17-0.41,0.81,0.81,0,0,0,0-.67,0.44,0.44,0,0,0-.61-0.11h0a4.82,4.82,0,0,0-.64.42l-0.29-.06a0.48,0.48,0,0,1-.23-0.07,1.78,1.78,0,0,1,.34.89,1.07,1.07,0,0,1-.52.15,2.63,2.63,0,0,1-.87,0,11.23,11.23,0,0,0,.06-1.55,2.39,2.39,0,0,1,.35.15,0.74,0.74,0,0,0,.59.09,3.06,3.06,0,0,0,.6-0.38,1.7,1.7,0,0,1,1.33-.41,0.76,0.76,0,0,1,.69.65,2.3,2.3,0,0,1,0,.89,2.14,2.14,0,0,1-.52.89,3.79,3.79,0,0,1-.88.67A1.83,1.83,0,0,0,57,38,0.49,0.49,0,0,0,56.9,38.45Z" transform="translate(0 -0.03)" style="fill:#fff"/><path d="M54.08,36.21l-0.22-.09V34.77h0.26A6.75,6.75,0,0,1,54.08,36.21Z" transform="translate(0 -0.03)" style="fill:#ff9"/><path d="M54.9,36.55a2,2,0,0,1-.75-0.29V34.8A3.73,3.73,0,0,1,55,35v0.3a8.11,8.11,0,0,1-.07,1.15A0.49,0.49,0,1,1,54.9,36.55Z" transform="translate(0 -0.03)" style="fill:#fff"/><path d="M50.82,28.65h0a1.38,1.38,0,0,0,0-.45l2.9-.35c0.58-.06,1.14-0.12,1.73-0.14a0.27,0.27,0,0,1,.14,0,0.14,0.14,0,0,1-.12.06,8,8,0,0,1-1.24.26c-0.94.15-1.91,0.34-2.87,0.51Z" transform="translate(0 -0.03)" style="fill:#fff"/><path d="M53.46,34.39L53,34.24l-0.64-.32a2.24,2.24,0,0,1-.72-0.65,4,4,0,0,1-.57-1,4.84,4.84,0,0,1-.37-1l0.22-.08,1-.33,0.5-.17c0.45-.15,1-0.34,1.45-0.45a8.69,8.69,0,0,0,.29.92,5.27,5.27,0,0,1,.17.7,2.46,2.46,0,0,1-.13,1.49,3,3,0,0,1-.42.76A1.67,1.67,0,0,1,53.46,34.39Z" transform="translate(0 -0.03)" style="fill:#ff9"/><path d="M46.18,39.35a2.28,2.28,0,0,1-.25-0.45,3.08,3.08,0,0,0-.26-0.51,0.52,0.52,0,0,1,.13-0.5c0.08-.13.14-0.2,0.22-0.32,0.19-.31.25-0.61,0.42-0.92a0.51,0.51,0,0,1,.32-0.29,0.5,0.5,0,0,1,.22,0,2.76,2.76,0,0,0,.76.18,3.42,3.42,0,0,1,.79.06,0.61,0.61,0,0,1,.22.14c0,0.07.08,0.08,0.11,0h0a0.55,0.55,0,0,0-.39-0.32,1.41,1.41,0,0,0-.42,0,2.78,2.78,0,0,1-.8-0.12V36.1a4.09,4.09,0,0,0,.79,0,10.67,10.67,0,0,0,2.07-.51l0.45-.17a3.87,3.87,0,0,1-.13.44,0.73,0.73,0,0,0-.37.31,1.14,1.14,0,0,0,.12.42,1.29,1.29,0,0,1-.13.3c-0.1.18-.17,0.38-0.28,0.55a1.38,1.38,0,0,0-.11.23h-0.1c-0.07,0-.15,0-0.16-0.08a0.37,0.37,0,0,1,.09-0.28c0.09-.14-0.08,0-0.1,0a0.68,0.68,0,0,0-.15.33,0.23,0.23,0,0,1-.24.2,1.43,1.43,0,0,1-.28-0.07,5.94,5.94,0,0,1-.8-0.24c-0.3-.11-0.56-0.27-0.84-0.39a0.32,0.32,0,0,0-.32,0,1.12,1.12,0,0,0-.25.33,1.92,1.92,0,0,0-.28.66,0.82,0.82,0,0,0,.06.18,0.28,0.28,0,0,1-.24.14,0.63,0.63,0,0,0,.18.16h0a0.14,0.14,0,0,1-.07.11c-0.07,0,.08.08,0.15,0l0.1-.11,0.1,0.08S46.21,39.32,46.18,39.35Zm2.39-1.82h0a2.62,2.62,0,0,1-.77-0.23H47.67a0.19,0.19,0,0,0-.17,0,0.08,0.08,0,0,0,.06.06h0a3.26,3.26,0,0,0,.4.2A1.24,1.24,0,0,0,48.57,37.53Z" transform="translate(0 -0.03)" style="fill:#fff"/><path d="M46.81,33.66a0.2,0.2,0,0,1-.19-0.12,0.35,0.35,0,0,1-.09-0.21,6.36,6.36,0,0,1,.17-0.65,4,4,0,0,0,.54.27h0.09a0.33,0.33,0,0,1-.18.21,0.16,0.16,0,0,0-.07.06,0.27,0.27,0,0,1-.11.1,0.21,0.21,0,0,0,0,.16A0.13,0.13,0,0,1,46.81,33.66Zm-0.17-.25s0.08,0,.14-0.06a0.72,0.72,0,0,0,.08-0.17h0a0.11,0.11,0,0,0-.16,0h0a0.12,0.12,0,0,1-.06.16h0A0.35,0.35,0,0,0,46.64,33.41Z" transform="translate(0 -0.03)" style="fill:#fff"/><path d="M47.71,32.76a1.84,1.84,0,0,1-.82-0.43A0.79,0.79,0,0,1,47,32.11c0.14-.21.27-0.42,0.41-0.62s0.07-.11.1-0.14a0.54,0.54,0,0,1,.27-0.15,4.83,4.83,0,0,1,.47.35,0.67,0.67,0,0,1-.09.43,6.86,6.86,0,0,1-.38.71l-0.06.08h0ZM47.51,32a0.56,0.56,0,0,0,.21-0.1,0.47,0.47,0,0,1,.19-0.09c0.06,0,0-.08,0-0.09a0.54,0.54,0,0,1-.23,0,0.3,0.3,0,0,1-.07-0.1h0a0.48,0.48,0,0,0-.2.22A0.12,0.12,0,0,0,47.51,32Z" transform="translate(0 -0.03)" style="fill:#fff"/><path d="M56,42.2a2.17,2.17,0,0,1-.59-0.07l-0.16-.06a1.45,1.45,0,0,1,.31-0.21A2.24,2.24,0,0,0,56,41.6l0.15-.18a2.21,2.21,0,0,0,.22-1V40.06a0.46,0.46,0,0,0-.47-0.32,3.69,3.69,0,0,1-.52-0.17,5.09,5.09,0,0,1-.49-0.29,3,3,0,0,1-1-.75,0.88,0.88,0,0,1-.09-0.35,1.85,1.85,0,0,0,0-.45,0.51,0.51,0,0,0-.31-0.34,1.77,1.77,0,0,0,.14.27,0.75,0.75,0,0,1,0,.3,0.94,0.94,0,0,1-.2.11,1.61,1.61,0,0,0-.09-0.29c-0.1-.32-0.16-0.55-0.27-0.92A3.43,3.43,0,0,1,53,36.51a2.77,2.77,0,0,1-.11-0.4,1.17,1.17,0,0,1,.25.1,4.88,4.88,0,0,1,.55.31,1.39,1.39,0,0,0,0,.68,0.56,0.56,0,0,0,.16-0.14A1.18,1.18,0,0,0,54,36.64a5.59,5.59,0,0,0,.63.26h0.14a0.8,0.8,0,0,0,0,.43,0.84,0.84,0,0,0,.07.19h0a2.68,2.68,0,0,0,.3-0.52h0.31A4.72,4.72,0,0,0,56,37a1.75,1.75,0,0,0,.63,0,4,4,0,0,1-.11.48,10.89,10.89,0,0,1-.44,1,0.13,0.13,0,0,0,0,.16,1.85,1.85,0,0,0,.79.44l0.18,0.07a0.36,0.36,0,0,1,.11.14,0.58,0.58,0,0,1,0,.31c-0.1.36-.22,0.72-0.35,1.07a2.56,2.56,0,0,0-.11.87,1.06,1.06,0,0,1,0,.34c-0.06.12-.25,0-0.33,0l-0.19-.07v0.12c-0.2,0-.26,0-0.19.15a0.17,0.17,0,0,1,0,0Zm1-2.7h0a0.69,0.69,0,0,0-.2-0.15,1.2,1.2,0,0,1-.27-0.21A0.14,0.14,0,0,0,56.39,39h0a0.16,0.16,0,0,0,.06.13,0.66,0.66,0,0,0,.17.17,2.22,2.22,0,0,0,.35.16h0Zm-1.3-1a1,1,0,0,0,.48-0.57,0.1,0.1,0,0,0,0-.08h0a1.48,1.48,0,0,1-.49.57c-0.15,0-.08.08,0,0.05Z" transform="translate(0 -0.03)" style="fill:#fff"/><path d="M47.54,35.61l-0.27,0c0.08-.25.22-0.46,0.3-0.7a3.67,3.67,0,0,1,.14-0.45,0.86,0.86,0,0,0,.08-0.24h0.07a0.55,0.55,0,0,1,0,.14,0.54,0.54,0,0,0,0,.21,1.1,1.1,0,0,0,.44,0l0.54-.12c0.44-.13.71-0.19,1.15-0.36h0l0.67-.21a1.77,1.77,0,0,0,.21.32,0.84,0.84,0,0,0-.07.15,2.68,2.68,0,0,0-.17.53c-0.24.08-.67,0.28-0.92,0.37A5.72,5.72,0,0,1,47.54,35.61Zm1.38-.93a7.73,7.73,0,0,1,1.43-.34,0.2,0.2,0,0,0-.17-0.06,1.38,1.38,0,0,0-.45,0,1.49,1.49,0,0,0-.57.16l-0.24.15a0.06,0.06,0,0,1,0,0h0Z" transform="translate(0 -0.03)" style="fill:#fff"/><path d="M47.25,36a0.48,0.48,0,0,1,0-.34,4.66,4.66,0,0,0,2-.23c0.39-.12.78-0.3,1.18-0.44l0.26-.09a3.81,3.81,0,0,1-.13.4,3,3,0,0,0-.5.2A10.77,10.77,0,0,1,47.9,36H47.25Z" transform="translate(0 -0.03)" style="fill:#ff9"/><path d="M53.16,33.9c-0.1.07-.15,0-0.15-0.13V33.48a6,6,0,0,0-.3-0.85A6.29,6.29,0,0,0,52,33l-0.06-.11a2.42,2.42,0,0,1-.16-0.46,3.65,3.65,0,0,0,.85-0.19l-0.13-.43a2.17,2.17,0,0,0-.53.23,4.49,4.49,0,0,1-.16-0.43,4.67,4.67,0,0,0,.57-0.15A1.81,1.81,0,0,0,52.11,31a2,2,0,0,1,.51-0.16,2.25,2.25,0,0,0,.09.51,2.82,2.82,0,0,0,.55-0.23,4.19,4.19,0,0,1,.12.48,1.44,1.44,0,0,0-.58.13,4.27,4.27,0,0,1,.15.42,6.72,6.72,0,0,0,.75-0.3,1.42,1.42,0,0,1,.16.47,3.38,3.38,0,0,0-.8.21c0.09,0.28.2,0.65,0.3,0.9l0.16,0.24a0.13,0.13,0,0,1-.07.15Z" transform="translate(0 -0.03)"/><path d="M53.15,33.84a0.1,0.1,0,0,1-.06-0.06V33.47c-0.08-.28-0.25-0.68-0.34-0.94a3.75,3.75,0,0,0-.75.33,1.64,1.64,0,0,1-.13-0.36,3.78,3.78,0,0,0,.8-0.21,2.43,2.43,0,0,0-.18-0.56,1.44,1.44,0,0,0-.49.2,1.56,1.56,0,0,1-.1-0.24,5.12,5.12,0,0,0,.54-0.17,2.38,2.38,0,0,0-.2-0.5,1.23,1.23,0,0,1,.34-0.09,3.32,3.32,0,0,0,.12.49,4.36,4.36,0,0,0,.55-0.17s0.06,0.22.06,0.25a2.06,2.06,0,0,0-.55.15c0,0.06.18,0.49,0.2,0.56a5.78,5.78,0,0,0,.76-0.28,1.35,1.35,0,0,1,.08.3,6.86,6.86,0,0,0-.78.22c0.09,0.33.17,0.62,0.29,0.94a2.09,2.09,0,0,1,.15.27,0.07,0.07,0,0,1,0,.08Z" transform="translate(0 -0.03)" style="fill:#fff"/><path d="M47.5,33.58a0.2,0.2,0,0,1-.27,0l0.07-.08,0.15-.22h0.21l-0.09.08c0,0.08-.08,0,0,0.1a0.42,0.42,0,0,1,0,.12H47.5Z" transform="translate(0 -0.03)" style="fill:#fff"/><path d="M47.76,33.23a0.19,0.19,0,0,1-.19-0.16,0.17,0.17,0,0,1,.08-0.14,0.31,0.31,0,0,1,.2,0,0.16,0.16,0,0,1,0,.28Z" transform="translate(0 -0.03)" style="fill:#fff"/><path d="M39.11,49.38V44.51H64.89v4.87H39.11Z" transform="translate(0 -0.03)"/><path d="M39.84,48.82V45.31H64.16v3.51H39.84Z" transform="translate(0 -0.03)" style="fill:#fff"/><path d="M41.41,49.93V46.61h4.48v3.32H41.41Zm5.57,0V46.61h4.48v3.32H47Zm5.58,0V46.61H57v3.32H52.56Zm5.57,0V46.61H62.6v3.32H58.13ZM45,49V47.49H42.29V49H45Zm5.57,0V47.49H47.85V49h2.72Zm5.57,0V47.49H53.43V49h2.71Zm5.57,0V47.49H59V49h2.71Z" transform="translate(0 -0.03)"/><path d="M41.12,108.07V49.28H62.88v58.79H41.12Z" transform="translate(0 -0.03)"/><path d="M42,108.06v-1.19h3.94v1.19H42Zm4.56,0v-1.19H57.18v1.19H46.56Zm11.25,0v-1.19H62v1.19H57.81ZM42,106.2v-4.51h8.75v4.51H42Zm9.37,0v-4.51H62v4.51H51.37ZM42,101V96.49h3.94V101H42Zm4.56,0V96.49h9.61V101H46.56ZM57,101V96.49h5V101H57ZM42,95.8V91.29h8.76v4.52H42Zm9.37,0V91.29H62v4.52H51.37ZM42,90.69V86.17h3.94v4.52H42Zm4.56,0V86.17H57.18v4.52H46.56Zm11.26,0V86.17H62v4.52H57.82ZM42,85.49V81h8.75v4.52H42v0Zm9.37,0V81H62v4.52H51.39ZM42,80.29V75.78h3.94v4.51H42Zm4.56,0V75.78H57.18v4.51H46.56Zm11.25,0V75.78H62v4.51H57.81ZM42,75.1V70.59h8.76V75.1H42Zm9.37,0V70.59H62V75.1H51.37ZM42,69.91V65.38h3.94V69.9H42Zm4.56,0V65.38H57.18V69.9H46.56Zm11.25,0V65.38H62V69.9H57.81ZM42,64.71V60.19h8.75v4.52H42Zm9.37,0V60.19H62v4.52H51.37ZM42,59.51V55h3.94v4.51H42Zm4.56,0V55h9.61v4.51H46.56Zm10.42,0V55h5v4.51H57ZM42,54.32V49.79h8.76v4.53H42Zm9.37,0V49.79H62v4.53H51.37Z" transform="translate(0 -0.03)" style="fill:#fff"/><path d="M27.38,108H27v-0.15H26.19V63.21l1.67,0.34c4.66,1.29,8.1,4.07,8.89,7.43v0.35L37,70.5c1.43-4.4,7.62-7.71,15-7.71,7.91,0,14.45,3.81,15.23,8.67v0.47L67.39,71c0.78-3.36,4.23-6.14,8.89-7.43l1.67-.34v44.66H77.13V108H68.36v-0.15H35.78V108h-8.4Z" transform="translate(0 -0.03)" style="stroke:#000;stroke-miterlimit:79.83999633789062;stroke-width:1.309999942779541px"/><path d="M52,10.19a2.06,2.06,0,1,1,2.06-2.06A2.06,2.06,0,0,1,52,10.19h0Z" transform="translate(0 -0.03)"/><path d="M52,9.68a1.56,1.56,0,1,1,1.56-1.56A1.56,1.56,0,0,1,52,9.68h0Z" transform="translate(0 -0.03)" style="fill:#fff"/><path d="M36.68,107.87V72.46c0-5.34,6.87-9.66,15.32-9.66s15.31,4.33,15.31,9.66v35.42H36.68Z" transform="translate(0 -0.03)" style="fill:#fff"/><path d="M37.55,107.87V73.64c0-5,6.48-9.11,14.45-9.11s14.45,4.09,14.45,9.11v34.23H37.55Z" transform="translate(0 -0.03)"/><path d="M38.44,107.87v-34c0-4.72,6.08-8.55,13.56-8.55s13.56,3.83,13.56,8.55v33.95H38.44Z" transform="translate(0 -0.03)" style="fill:#399ce0"/><path d="M26.19,107.87V63.21l1.67,0.34c5.33,1.47,9.07,4.9,9.07,8.9v35.42H26.19Z" transform="translate(0 -0.03)" style="fill:#fff"/><path d="M27.32,108V66L29,66.43c4.15,1.38,7.08,4.6,7.08,8.35V108H27.32Z" transform="translate(0 -0.03)" style="stroke:#000;stroke-miterlimit:79.83999633789062;stroke-width:0.3199999928474426px"/><path d="M27.78,108V66.88l1.64,0.44c3.71,1.35,6.32,4.5,6.32,8.17V108h-8Z" transform="translate(0 -0.03)" style="fill:#fff"/><path d="M32.24,84.41a2.56,2.56,0,0,1-2-1,1.36,1.36,0,0,1,0-1.52l0.18-.24L30,81.59a3.58,3.58,0,0,1-1.69-1.05l-0.24-.24,0.24-.23A3.56,3.56,0,0,1,30.08,79h0.37l0-.07a1.57,1.57,0,0,1-.4-0.8,1.42,1.42,0,0,1,.58-1.35A3.24,3.24,0,0,1,34,76.6L34.7,77l-0.7.21a1.24,1.24,0,0,0-.92.63,1.35,1.35,0,0,0,.37,1l0.08,0.09L35.82,79l0.31,0.07v2.48l-0.31.06-2.3.08-0.08.11a1.32,1.32,0,0,0-.37,1,1.23,1.23,0,0,0,.92.63l0.73,0.25L34,84a3.53,3.53,0,0,1-1.41.39H32.24v0Z" transform="translate(0 -0.03)"/><path d="M32.11,83.89c-1.59.06-2.4-1.48-.23-2.79a3.43,3.43,0,0,1-3.09-.79,3.45,3.45,0,0,1,3.09-.79c-2.66-1.61-.81-3.58,1.42-2.47-1.32.42-1.18,1.21-.17,2.41l3.73,0.09h0v1.51h0l-3.73.09c-1,1.19-1.15,2,.17,2.4A3,3,0,0,1,32.11,83.89Z" transform="translate(0 -0.03)" style="fill:#fff"/><path d="M32.24,101.56a2.54,2.54,0,0,1-2-1,1.36,1.36,0,0,1,0-1.53l0.18-.23L30,98.74a3.6,3.6,0,0,1-1.69-1.06l-0.24-.23,0.24-.23a3.54,3.54,0,0,1,1.7-1.06l0.36-.06,0-.1A1.54,1.54,0,0,1,30,95.28a1.42,1.42,0,0,1,.58-1.35A3.24,3.24,0,0,1,34,93.75l0.68,0.36L34,94.36a1.23,1.23,0,0,0-.92.63,1.33,1.33,0,0,0,.37,1l0.08,0.1,2.31,0.09,0.31,0.07V98.7l-0.31.06-2.3.09-0.08.1a1.31,1.31,0,0,0-.37,1,1.22,1.22,0,0,0,.92.63l0.73,0.25-0.68.36a3.48,3.48,0,0,1-1.41.39H32.24v0Z" transform="translate(0 -0.03)"/><path d="M32.11,101c-1.59.06-2.4-1.48-.23-2.8a3.42,3.42,0,0,1-3.09-.78,3.41,3.41,0,0,1,3.09-.78c-2.66-1.62-.81-3.57,1.42-2.47-1.32.42-1.18,1.21-.17,2.4l3.73,0.09h0v1.52h0l-3.73.09c-1,1.19-1.15,2,.17,2.4A3,3,0,0,1,32.11,101Z" transform="translate(0 -0.03)" style="fill:#fff"/><path d="M67.23,107.87V72.45c0-4,3.74-7.43,9.06-8.9L78,63.21v44.66H67.23Z" transform="translate(0 -0.03)" style="fill:#fff"/><path d="M68.08,108V74.78c0-3.75,2.92-7,7.07-8.35L76.84,66v42H68.08Z" transform="translate(0 -0.03)" style="stroke:#000;stroke-miterlimit:79.83999633789062;stroke-width:0.3199999928474426px"/><path d="M68.41,108V75.5c0-3.67,2.6-6.82,6.31-8.17l1.65-.44V108h-8Z" transform="translate(0 -0.03)" style="fill:#fff"/><path d="M71.54,84.41A3.51,3.51,0,0,1,70.13,84l-0.68-.36,0.74-.25a1.22,1.22,0,0,0,.91-0.63,1.29,1.29,0,0,0-.37-1l-0.08-.11-2.31-.08H68V79.07L68.34,79l2.31-.09,0.08-.09a1.32,1.32,0,0,0,.37-1,1.23,1.23,0,0,0-.91-0.63L69.45,77l0.68-.36a3.25,3.25,0,0,1,3.42.18,1.44,1.44,0,0,1,.57,1.35,1.57,1.57,0,0,1-.36.77l0,0.06h0.37A3.6,3.6,0,0,1,75.78,80L76,80.31l-0.23.24a3.63,3.63,0,0,1-1.69,1.05l-0.38.06,0.18,0.24a1.36,1.36,0,0,1,0,1.52,2.54,2.54,0,0,1-2,1H71.54Z" transform="translate(0 -0.03)"/><path d="M72,83.89a3,3,0,0,1-1.19-.33c1.32-.42,1.18-1.21.17-2.4l-3.72-.09h0V79.56h0l3.74-.1c1-1.2,1.15-2-.17-2.41,2.23-1.11,4.09.86,1.43,2.47a3.44,3.44,0,0,1,3.09.79,3.42,3.42,0,0,1-3.09.79C74.44,82.41,73.62,83.95,72,83.89Z" transform="translate(0 -0.03)" style="fill:#fff"/><path d="M71.91,101.56H71.54a3.47,3.47,0,0,1-1.41-.39l-0.68-.36,0.74-.25a1.21,1.21,0,0,0,.91-0.63,1.28,1.28,0,0,0-.37-1l-0.08-.1-2.31-.09L68,98.7V96.22l0.31-.07,2.31-.09L70.7,96a1.29,1.29,0,0,0,.37-1,1.22,1.22,0,0,0-.91-0.63l-0.74-.24,0.68-.36a3.25,3.25,0,0,1,3.42.18,1.45,1.45,0,0,1,.57,1.35,1.55,1.55,0,0,1-.36.77l-0.05.07L74,96.16a3.58,3.58,0,0,1,1.7,1.06L76,97.46l-0.23.23a3.65,3.65,0,0,1-1.69,1.06l-0.38.06L73.88,99a1.36,1.36,0,0,1,0,1.53A2.53,2.53,0,0,1,71.91,101.56Z" transform="translate(0 -0.03)"/><path d="M72,101a3.07,3.07,0,0,1-1.19-.32c1.32-.42,1.18-1.22.17-2.4l-3.72-.09h0V96.7h0L71,96.6c1-1.19,1.15-2-.17-2.4,2.23-1.1,4.09.85,1.43,2.47a3.4,3.4,0,0,1,3.09.78,3.41,3.41,0,0,1-3.09.78C74.44,99.56,73.62,101.1,72,101Z" transform="translate(0 -0.03)" style="fill:#fff"/><path d="M58.17,109.64H57.85a7.75,7.75,0,0,1-1.39-.11l-0.2-.27-0.42.31a4.61,4.61,0,0,1-.74-1.35,0.6,0.6,0,0,1,.36-0.66h0.09l0.06-.39a2.13,2.13,0,0,0-.53-1.83,3.37,3.37,0,0,1-.5-3.54l0.06-.07,0.13-.08,0.08-.09a0.82,0.82,0,0,1-.09-1.09l0.18-.21-0.13-.12a1,1,0,0,1-.15-0.7V99.27H54.52A1.23,1.23,0,0,1,54.2,99l-0.07-.08a1.89,1.89,0,0,1,0-1V97.68a1.39,1.39,0,0,1-.35-1.05l-0.15-.3a2.54,2.54,0,0,1-.15-0.54V95.24l-0.21-.3A2.45,2.45,0,0,1,53,94.39L53,94.19H52.51l-0.06.18a2.44,2.44,0,0,1-.25.55l-0.2.29,0,0.55a2.54,2.54,0,0,1-.15.53l-0.13.3a1.47,1.47,0,0,1-.35,1v0.23a1.78,1.78,0,0,1,0,1l-0.07.08a1.16,1.16,0,0,1-.35.21H50.75V99.3a0.93,0.93,0,0,1-.16.68l-0.12.12,0.18,0.21a0.84,0.84,0,0,1-.09,1.08l0.08,0.08,0.12,0.08,0.07,0.06a3.37,3.37,0,0,1-.5,3.51,2.12,2.12,0,0,0-.51,1.8v0.38h0.09a0.6,0.6,0,0,1,.36.66,4.66,4.66,0,0,1-.72,1.34l-0.41-.3-0.2.27a7.92,7.92,0,0,1-1.37.1H47a11.35,11.35,0,0,1-1.82-.09,4.25,4.25,0,0,1-.79-0.14,0.74,0.74,0,0,1-.59-0.4,1.1,1.1,0,0,1,.75-0.29c1.4-.45,1.56-0.86,2.6-1.07l0.13-.21c0.55-1.19.32-3.25,0.34-5.48l0.06-.16,0.27-.25-0.1-.08a1.81,1.81,0,0,1-.2-1.27,0.72,0.72,0,0,1,.63-0.77l0.06-.51-0.2-.11a1.3,1.3,0,0,1-.1-0.87l0.08-.23L48,97.34a1.64,1.64,0,0,1,0-.91l0.07-.06L48,96.13a3.15,3.15,0,0,1,0-1.3l0.24-.22v0h0a4.63,4.63,0,0,1-1-.34A6.86,6.86,0,0,1,49,90.12l0.63-.77L48.9,87.61c-0.28-.72-0.55-1.47-0.78-2.27L48,84.66l-1.4,1.91,0.15,0.52a2.45,2.45,0,0,1-3.38,0,2.4,2.4,0,0,1,0-.38l0.06-.35-1.3-2.23-0.42.11L41.43,83V82.94h0l-0.22-.05a0.22,0.22,0,0,1-.14-0.12h0l-0.22.17L40.78,83h0.06a0.66,0.66,0,0,1,0,.76,0.78,0.78,0,0,1-.64.32H40.1a1.25,1.25,0,0,1-.28-0.1,0.66,0.66,0,0,1-.29-0.89L39.6,83a0.73,0.73,0,0,1,.46-0.29h0.27l0.17-.5h0a0.79,0.79,0,0,1,0-.47h0a0.69,0.69,0,0,1,.16-0.44h0L40.74,81a0.5,0.5,0,0,1,.16-0.19h0a0.91,0.91,0,0,1,.27-0.28l0.26-.1,0.11-.2V80.17l-1.76-.72c0.27-.37.54-0.76,0.8-1.14a4.48,4.48,0,0,0,.78.81L42,79.52l6.27-8.88A4,4,0,0,1,50,69.19l0.13-.05h0.09v0.22a3.55,3.55,0,0,1-.72,2.08L43.24,80.3l0.36,0.18a5.19,5.19,0,0,0,1.12.33c-0.28.38-.54,0.76-0.81,1.14l-1.15-1h0l-0.24.28,0.12,0.3a1.14,1.14,0,0,1,0,.36,0.78,0.78,0,0,1,0,.39h0l0.65,0.26L43.2,83l1.4,1.58,0.25-.17L45,84.57l2.18-3-0.27-.67a1.26,1.26,0,0,0-.62-0.63,2.92,2.92,0,0,1,3.35-1.37h0.14l0.6,0.1,0.34,0.06h0.13l0.28-.3,0.35-.49h0l-0.16-.13a1.65,1.65,0,0,1-.16-1c0-.73-0.76-0.5-0.64-1.17a1.64,1.64,0,0,1,.09-0.33l0.12-.23-0.31.13a3.15,3.15,0,0,1,1-3.13l0.24-.18h0A0.7,0.7,0,0,1,51.58,72,0.73,0.73,0,0,1,52,71.33h0V71.28c-0.94-3.09,2.42-5.9,5.31-2.07,1,1.28,1.89,3,2.79,2.9l0.9-.89h0l-0.51,1.55a1.26,1.26,0,0,1-1,.61c-0.65,0-1.48-.49-2.47-1.71-1.31-1.61-3.27-2.92-4.45-.48v0.12h0.12a0.73,0.73,0,0,1,.47.67,0.71,0.71,0,0,1-.06.28h0l0.44,0.38a3.23,3.23,0,0,1,1,2.77h0V75.6a4.15,4.15,0,0,1-.09,1,3.85,3.85,0,0,1-.71,1.4l0,0.06,0.69,0.59L54.68,79h0.07l0.61-.11h0.13a3,3,0,0,1,3.51,1,1.21,1.21,0,0,0-.54.69l-0.06.21,3.16,4.34h0.35c0.88,1,.63,1.83-0.46,2.58l-0.5-.1-2.87,2v0.21a0.38,0.38,0,0,1-.37.27H57.38v0.06a1.53,1.53,0,0,1-.29.37l-0.29.2L57,91a6.72,6.72,0,0,1,.94,3.24,4.53,4.53,0,0,1-.66.28H57.15v0.16l0.24,0.22a3.19,3.19,0,0,1,0,1.31l-0.1.24,0.07,0.05a1.59,1.59,0,0,1,0,.93l-0.1.17,0.08,0.24a1.31,1.31,0,0,1-.11.88l-0.07.09a0.89,0.89,0,0,1,0,.6,0.67,0.67,0,0,1,.58.7,1.82,1.82,0,0,1-.2,1.3l-0.1.08,0.28,0.26,0.07,0.16c0,2.26-.27,4.41.29,5.61l0.33,0.06c1.06,0.22,1.34.65,2.77,1.11a0.42,0.42,0,0,1,.32.3,0.37,0.37,0,0,1-.28.36,4.49,4.49,0,0,1-.81.14c-0.51.05-1.2,0.09-1.86,0.09H58.17v0.06ZM55.86,89.21l0.4-.07h0.28l2.73-2.38-0.5-.63,0.46-.26-1.48-2V84a4.26,4.26,0,0,1-.16.67l-0.15.26V85.1a24.1,24.1,0,0,1-.85,2.57ZM41.12,82.59V82.53l-0.55-.33H40.49Zm0.35-.47h0l-0.29-.18V82h0Zm0.36-.47h0Zm1-.69,0.06-.06-0.47-.28Zm-0.41-.35-0.3-.25-0.35-.14Zm-0.65-.39-0.17-.11h0Z" transform="translate(0 -0.03)" style="stroke:#000;stroke-linecap:round;stroke-linejoin:round;stroke-width:0.44999998807907104px"/><path d="M52.23,78.7a2,2,0,0,1-1-.54,1.65,1.65,0,0,1-.16-1c0-.73-0.76-0.5-0.64-1.17a7.65,7.65,0,0,0,.43-1.26c0.44-.42,3-0.8,3.39,0a3.49,3.49,0,0,1,.1,1.91C54,78,53.17,78.88,52.23,78.7Z" transform="translate(0 -0.03)"/><path d="M52.26,78.29a2,2,0,0,1-.86-0.37,1.16,1.16,0,0,1-.14-0.81c0-.6-0.62-0.42-0.52-1a7.86,7.86,0,0,0,.35-1c0.37-.35,2.73-0.85,3-0.23A5.73,5.73,0,0,1,54,76.94,1.58,1.58,0,0,1,52.26,78.29Z" transform="translate(0 -0.03)" style="fill:#fff"/><path d="M59.76,73.34c-0.68.17-1.6-.28-2.74-1.67-1.42-1.74-3.62-3.14-4.72.22-1.62-3.3,2-6.77,5.06-2.69,1,1.28,1.89,3,2.79,2.9L61,71.22h0l-0.43,1.42A1.41,1.41,0,0,1,59.76,73.34Z" transform="translate(0 -0.03)"/><path d="M59.69,73.1c-0.61,0-1.42-.54-2.48-1.71-1.88-2.08-3.67-3.62-4.85.35-1.53-3.12,2.06-6.33,5-2.48,1.21,1.61,2.56,4.34,3.64,2.18C60.71,72.52,60.3,73.09,59.69,73.1Z" transform="translate(0 -0.03)" style="fill:#fff"/><path d="M52.36,72.71A0.73,0.73,0,1,1,53.12,72,0.75,0.75,0,0,1,52.36,72.71Z" transform="translate(0 -0.03)"/><path d="M52.36,72.41a0.55,0.55,0,1,1,.58-0.55A0.57,0.57,0,0,1,52.36,72.41Z" transform="translate(0 -0.03)" style="fill:#fff"/><path d="M50.36,75.6a3.21,3.21,0,0,1,2-3.74,3.48,3.48,0,0,1,2,3.59A5.19,5.19,0,0,0,50.36,75.6Z" transform="translate(0 -0.03)"/><path d="M50.58,75.25a3.92,3.92,0,0,1,0-.82A8.68,8.68,0,0,1,51.87,74c0.88-.09,1.38.43,2.32,0.39a2.71,2.71,0,0,1,0,.71C52.87,74.66,51.58,74.45,50.58,75.25Zm3.6-1.05a1.62,1.62,0,0,1-.92-0.2c-1.76-.83-2.09.15-2.66,0.09a2.85,2.85,0,0,1,1.81-2A3.94,3.94,0,0,1,54.18,74.2Z" transform="translate(0 -0.03)" style="fill:#fff"/><path d="M47.63,109.44a21.3,21.3,0,0,1-2.46-.09,4.25,4.25,0,0,1-.79-0.14,0.74,0.74,0,0,1-.59-0.4,1.1,1.1,0,0,1,.75-0.29c1.4-.45,1.56-0.86,2.6-1.07l0.13-.21c0.55-1.19.32-3.25,0.34-5.48l0.06-.16,0.27-.25-0.1-.08a1.81,1.81,0,0,1-.2-1.27,0.72,0.72,0,0,1,.63-0.77l0.06-.51-0.2-.11a1.3,1.3,0,0,1-.1-0.87l0.08-.23L48,97.34a1.64,1.64,0,0,1,0-.91l0.07-.06L48,96.13a3.15,3.15,0,0,1,0-1.3l0.24-.22,0.07-.29a3.5,3.5,0,0,1,.23-1.39l0.27-.19a6.42,6.42,0,0,1,3.68.76l0.12,0.25a3.12,3.12,0,0,1-.39,1.16L52,95.2l0,0.55a2.54,2.54,0,0,1-.15.53l-0.13.3a1.47,1.47,0,0,1-.35,1v0.23a1.78,1.78,0,0,1,0,1l-0.07.08a1.16,1.16,0,0,1-.35.21H50.77v0.19a0.93,0.93,0,0,1-.16.68l-0.12.12,0.18,0.21a0.84,0.84,0,0,1-.09,1.08l0.08,0.08,0.12,0.08,0.07,0.06a3.37,3.37,0,0,1-.5,3.51,2.12,2.12,0,0,0-.51,1.8v0.38h0.09a0.6,0.6,0,0,1,.36.66,4.66,4.66,0,0,1-.72,1.34l-0.41-.3-0.2.27A7.92,7.92,0,0,1,47.63,109.44Z" transform="translate(0 -0.03)"/><path d="M49.4,109.12c-0.57-1.25-.66-1.68-1.87-1.65,0.6-1.28.31-3.54,0.31-5.72a1.93,1.93,0,0,1,2.1-.39,2.4,2.4,0,0,1,.58.34,3.15,3.15,0,0,1-.48,3.22,2.77,2.77,0,0,0-.54,2.61C50.18,107.63,50.06,108.12,49.4,109.12Z" transform="translate(0 -0.03)" style="fill:#fff"/><path d="M50.1,101.31a2.85,2.85,0,0,0-1.79-.09c-0.48-.09-0.47-0.65-0.42-1.24s0.56-.52,1-0.42a0.81,0.81,0,0,0,1,.54l0.12,0C50.55,100.5,50.63,100.91,50.1,101.31Z" transform="translate(0 -0.03)" style="fill:#fff"/><path d="M50.09,99.92A0.83,0.83,0,0,1,49,99.45v0L49.15,99a1.73,1.73,0,0,1,1.2,0A0.74,0.74,0,0,1,50.09,99.92Z" transform="translate(0 -0.03)" style="fill:#fff"/><path d="M49.14,98.82a1.4,1.4,0,0,1-.76-0.37,1.09,1.09,0,0,1,0-1A5.9,5.9,0,0,1,51,97.37a4.27,4.27,0,0,1,0,1.21,1,1,0,0,1-.58.21A2.6,2.6,0,0,0,49.14,98.82Z" transform="translate(0 -0.03)" style="fill:#fff"/><path d="M48.38,97.36a1,1,0,0,1-.11-1,7.52,7.52,0,0,1,3.07.06,1.23,1.23,0,0,1-.29.86A7.21,7.21,0,0,0,48.38,97.36Z" transform="translate(0 -0.03)" style="fill:#fff"/><path d="M51.35,96.31a5.73,5.73,0,0,0-3,0,2.18,2.18,0,0,1-.1-1.51,6.07,6.07,0,0,1,3.42.23A2.35,2.35,0,0,1,51.35,96.31Z" transform="translate(0 -0.03)" style="fill:#fff"/><path d="M51.72,94.89a6.28,6.28,0,0,0-3.21-.45,2.34,2.34,0,0,1,.14-1.64,6.52,6.52,0,0,1,3.67.72A2.6,2.6,0,0,1,51.72,94.89Z" transform="translate(0 -0.03)" style="fill:#fff"/><path d="M47.43,109.18c-1.68,0-4-.16-3.23-0.39,1.78-.56,1.8-1,3.28-1.19,1.25-.07,1.15.36,1.31,1.48A8,8,0,0,1,47.43,109.18Z" transform="translate(0 -0.03)" style="fill:#fff"/><path d="M57.85,109.63a7.75,7.75,0,0,1-1.39-.11l-0.2-.27-0.42.31a4.61,4.61,0,0,1-.74-1.35,0.6,0.6,0,0,1,.36-0.66h0.09l0.06-.39a2.13,2.13,0,0,0-.53-1.83,3.37,3.37,0,0,1-.5-3.54l0.06-.07,0.13-.08,0.08-.09a0.82,0.82,0,0,1-.09-1.09l0.18-.21-0.13-.12a1,1,0,0,1-.15-0.7V99.26H54.52A1.23,1.23,0,0,1,54.2,99l-0.07-.08a1.89,1.89,0,0,1,0-1V97.68a1.39,1.39,0,0,1-.35-1.05l-0.15-.3a2.54,2.54,0,0,1-.15-0.54V95.24l-0.21-.3a3.14,3.14,0,0,1-.4-1.17L53,93.52a6.47,6.47,0,0,1,3.76-.77L57,92.93a3.5,3.5,0,0,1,.23,1.41l-0.09.37,0.24,0.22a3.19,3.19,0,0,1,0,1.31l-0.1.24,0.07,0.05a1.59,1.59,0,0,1,0,.93l-0.1.17,0.08,0.24a1.31,1.31,0,0,1-.11.88l-0.07.09a0.89,0.89,0,0,1,0,.6,0.67,0.67,0,0,1,.58.7,1.82,1.82,0,0,1-.2,1.3l-0.1.08,0.28,0.26,0.07,0.16c0,2.26-.27,4.41.29,5.61l0.33,0.06c1.06,0.22,1.34.65,2.77,1.11a0.42,0.42,0,0,1,.32.3,0.37,0.37,0,0,1-.28.36,4.49,4.49,0,0,1-.81.14A22.17,22.17,0,0,1,57.85,109.63Z" transform="translate(0 -0.03)"/><path d="M55.78,109.12c-0.65-1-.78-1.49-0.11-1.59a2.77,2.77,0,0,0-.54-2.61,3.14,3.14,0,0,1-.48-3.22,2.3,2.3,0,0,1,.58-0.34,1.91,1.91,0,0,1,2.09.39c0,2.18-.28,4.44.32,5.72C56.44,107.43,56.35,107.87,55.78,109.12Z" transform="translate(0 -0.03)" style="fill:#fff"/><path d="M55.08,101.31a0.72,0.72,0,0,1,0-1.25,0.8,0.8,0,0,0,1.13-.49c0.51-.1,1-0.16,1.06.42s0.07,1.15-.42,1.24A2.84,2.84,0,0,0,55.08,101.31Z" transform="translate(0 -0.03)" style="fill:#fff"/><path d="M55.1,99.92A0.75,0.75,0,0,1,54.84,99,1.72,1.72,0,0,1,56,99l0.14,0.43A0.84,0.84,0,0,1,55.1,99.92Z" transform="translate(0 -0.03)" style="fill:#fff"/><path d="M56,98.82a2.61,2.61,0,0,0-1.24,0,1,1,0,0,1-.59-0.21,4.26,4.26,0,0,1,0-1.21,5.87,5.87,0,0,1,2.6.12,1.08,1.08,0,0,1,0,1A1.39,1.39,0,0,1,56,98.82Z" transform="translate(0 -0.03)" style="fill:#fff"/><path d="M56.81,97.36a7.23,7.23,0,0,0-2.68-.06,1.23,1.23,0,0,1-.28-0.86,7.48,7.48,0,0,1,3.06-.06A1,1,0,0,1,56.81,97.36Z" transform="translate(0 -0.03)" style="fill:#fff"/><path d="M53.84,96.31A2.36,2.36,0,0,1,53.49,95a6.09,6.09,0,0,1,3.43-.23,2.1,2.1,0,0,1-.09,1.51A5.73,5.73,0,0,0,53.84,96.31Z" transform="translate(0 -0.03)" style="fill:#fff"/><path d="M53.46,94.89a2.67,2.67,0,0,1-.58-1.37,6.53,6.53,0,0,1,3.67-.72,2.36,2.36,0,0,1,.14,1.64A6.29,6.29,0,0,0,53.46,94.89Z" transform="translate(0 -0.03)" style="fill:#fff"/><path d="M57.75,109.18a7.89,7.89,0,0,1-1.36-.11c0.16-1.12.06-1.54,1.31-1.48,1.48,0.18,1.5.63,3.28,1.19C61.7,109,59.44,109.21,57.75,109.18Z" transform="translate(0 -0.03)" style="fill:#fff"/><path d="M56.28,98.7c0-4-.3-4.89-0.65-5.5C56.32,93.79,57.12,95.15,56.28,98.7Z" transform="translate(0 -0.03)"/><path d="M56.9,107.11c0-4-.3-4.9-0.65-5.5C56.7,101.71,57.08,102.21,56.9,107.11Z" transform="translate(0 -0.03)"/><path d="M60.28,108.93c-2-1.09-2.62-1.05-3.13-.9C57.47,107.65,58,107.44,60.28,108.93Z" transform="translate(0 -0.03)"/><path d="M45.36,108.75c-0.19,0,0-.19.22-0.37-0.13.23-.07,0.4,1.71-0.07A7.73,7.73,0,0,1,45.36,108.75Z" transform="translate(0 -0.03)"/><path d="M49.26,105.54c1.21-2.58,1-3.33.76-3.87C50.59,101.93,51,102.44,49.26,105.54Z" transform="translate(0 -0.03)"/><path d="M52.71,94.19a11,11,0,0,1-2.37-.24c-0.34.1-1.43-3.3-.35-4.72h5.44c1.09,1.41.56,5-.35,4.72A11.79,11.79,0,0,1,52.71,94.19Z" transform="translate(0 -0.03)"/><path d="M53.19,93.83a12.87,12.87,0,0,1-2.85-.44c-0.34.08-1.43-2.91-.35-4.16h5.44c1.09,1.25.56,4.37-.35,4.16A3.21,3.21,0,0,1,53.19,93.83Z" transform="translate(0 -0.03)" style="fill:#fff"/><path d="M49.19,94.71a5.51,5.51,0,0,1-2-.49C47.3,92,48.74,90.44,49.87,89h5.68a8.47,8.47,0,0,1,2.36,5.21,3.81,3.81,0,0,1-2.72.34c-0.36-1.83-1-3.15-2.24-3.5H52.49c-1.25.35-1.88,1.67-2.24,3.5A3.26,3.26,0,0,1,49.19,94.71Z" transform="translate(0 -0.03)"/><path d="M46.37,86.79l-2-1.33,3.85-5.22,2,1.33Z" transform="translate(0 -0.03)"/><path d="M49.76,89.66a23.43,23.43,0,0,1-2.47-9.86A3,3,0,0,1,49,78.95a2.21,2.21,0,0,1,1.09.21h5.16a2.46,2.46,0,0,1,2.83.65,23.27,23.27,0,0,1-2.46,9.86H49.76Z" transform="translate(0 -0.03)"/><path d="M55.8,94.27c-0.34-1.6-1.61-3.27-2.8-3.53H52.56A4,4,0,0,0,50,93.95a2.1,2.1,0,0,1-.69.22,4.16,4.16,0,0,1-1.61-.39c0.06-2,1.18-3.18,2.26-4.39a21.41,21.41,0,0,0,2.4.18,29.82,29.82,0,0,0,3-.18c1.09,1.21,2.2,2.43,2.26,4.39C56.87,94.15,56.71,94.48,55.8,94.27Z" transform="translate(0 -0.03)" style="fill:#fff"/><path d="M55.52,91.16c-0.07.08-.24,0-0.25-0.17A0.25,0.25,0,0,1,55,90.61a0.37,0.37,0,0,1-.16-0.46,0.51,0.51,0,0,1-.28-0.49,4.5,4.5,0,0,1,2.29-.54,1.91,1.91,0,0,0,.56.89A2.34,2.34,0,0,1,55.52,91.16Z" transform="translate(0 -0.03)"/><path d="M46.38,86.46l-1.81-1.18L48,80.65l1.81,1.18Z" transform="translate(0 -0.03)" style="fill:#fff"/><path d="M52.41,89.36L50,89.23a21.48,21.48,0,0,1-2.26-9.07,2.7,2.7,0,0,1,1.61-.79,2,2,0,0,1,1,.2h4.74a2.25,2.25,0,0,1,2.61.59,21.49,21.49,0,0,1-2.26,9.07Z" transform="translate(0 -0.03)" style="fill:#fff"/><path d="M59.87,86.73l-4.7-6.47,2.11-.95L62,85.78Z" transform="translate(0 -0.03)"/><path d="M59.59,85.93l-4.12-5.5,1.84-.81,4.12,5.51Z" transform="translate(0 -0.03)" style="fill:#fff"/><path d="M57.83,89.79l-1.34-.62,3.76-3.27L61.81,87Z" transform="translate(0 -0.03)"/><path d="M57.92,89.58L57,89.06l3.14-2.6,1.17,0.68Z" transform="translate(0 -0.03)" style="fill:#fff"/><path d="M61.41,87.71a3.39,3.39,0,0,1-2.63-1.6,5.22,5.22,0,0,1,3.1-1C62.76,86.11,62.51,87,61.41,87.71Z" transform="translate(0 -0.03)"/><path d="M61.36,87.59a2.74,2.74,0,0,1-2.18-1.31,4.3,4.3,0,0,1,2.56-.82A1.27,1.27,0,0,1,61.36,87.59Z" transform="translate(0 -0.03)" style="fill:#fff"/><path d="M45,87.75a3,3,0,0,1-1.71-.69,2.75,2.75,0,0,1,1.56-2.57,4.21,4.21,0,0,1,1.82,2.6A2.41,2.41,0,0,1,45,87.75Z" transform="translate(0 -0.03)"/><path d="M45,87.47a2.76,2.76,0,0,1-1.54-.58,2.33,2.33,0,0,1,1.4-2.2,3.65,3.65,0,0,1,1.66,2.22A2.24,2.24,0,0,1,45,87.47Z" transform="translate(0 -0.03)" style="fill:#fff"/><path d="M43.71,86.89L41.43,83a2,2,0,0,1,1-.86l2.81,3.17A1.32,1.32,0,0,1,43.71,86.89Z" transform="translate(0 -0.03)"/><path d="M43.77,86.69l-2.11-3.56,0.84-.75L45,85.25a1.31,1.31,0,0,1-1.17,1.44H43.77Z" transform="translate(0 -0.03)" style="fill:#fff"/><path d="M43.06,80.62l-1.3-.78,6.5-9.2A4,4,0,0,1,50,69.19l0.13-.05h0.09v0.22a3.55,3.55,0,0,1-.72,2.08Z" transform="translate(0 -0.03)" style="fill:#fff;stroke:#000;stroke-miterlimit:79.83999633789062;stroke-width:0.05000000074505806px"/><path d="M42.49,80.28l-0.16-.09,5.41-7.68a15.67,15.67,0,0,1,1.1-1.43L48.91,71v0.08a11.87,11.87,0,0,1-1,1.51Z" transform="translate(0 -0.03)"/><path d="M44,81.92a7.83,7.83,0,0,0-4.17-2.5c0.27-.37.54-0.76,0.8-1.14a7.84,7.84,0,0,0,4.18,2.49A8.68,8.68,0,0,0,44,81.92Z" transform="translate(0 -0.03)" style="fill:#fff;stroke:#000;stroke-miterlimit:79.83999633789062;stroke-width:0.05000000074505806px"/><path d="M44.24,81.34c-1-.63-3-1.81-4-2.39l0.06-.08c1,0.63,3,1.81,4,2.38Z" transform="translate(0 -0.03)"/><path d="M42.52,81.3l-1.23-.73,0.21-.37,0.06-.08,1.3,0.78,0,0.1Z" transform="translate(0 -0.03)" style="fill:#fff;stroke:#000;stroke-miterlimit:79.83999633789062;stroke-width:0.05000000074505806px"/><path d="M42.13,81.75L41,81.08l0.27-.46,1.22,0.73Z" transform="translate(0 -0.03)" style="fill:#fff;stroke:#000;stroke-miterlimit:79.83999633789062;stroke-width:0.05000000074505806px"/><path d="M41.74,82.21l-1-.62L41,81.13l1.1,0.67Z" transform="translate(0 -0.03)" style="fill:#fff;stroke:#000;stroke-miterlimit:79.83999633789062;stroke-width:0.05000000074505806px"/><path d="M41.26,82.6l-0.74-.44,0.15-.5h0l1,0.61h0Z" transform="translate(0 -0.03)" style="fill:#fff;stroke:#000;stroke-miterlimit:79.83999633789062;stroke-width:0.05000000074505806px"/><path d="M40.76,83l-0.43-.25,0.17-.52,0.7,0.42-0.33.25Z" transform="translate(0 -0.03)" style="fill:#fff;stroke:#000;stroke-miterlimit:79.83999633789062;stroke-width:0.05000000074505806px"/><path d="M39.83,84a0.66,0.66,0,0,1-.29-0.89L39.61,83a0.79,0.79,0,0,1,1-.2,0.66,0.66,0,0,1,.25.9l0,0.05A0.79,0.79,0,0,1,39.83,84Z" transform="translate(0 -0.03)" style="fill:#fff;stroke:#000;stroke-miterlimit:79.83999633789062;stroke-width:0.05000000074505806px"/><path d="M42.43,81.16l-0.49-.29,0.18-.24,0-.07,0.5,0.3Z" transform="translate(0 -0.03)"/><path d="M42,81.61l-0.44-.27L41.82,81l0.47,0.29Z" transform="translate(0 -0.03)"/><path d="M41.64,82.06l-0.37-.23,0.21-.3,0.42,0.25Z" transform="translate(0 -0.03)"/><path d="M41.19,82.47l-0.24-.14L41.14,82l0.34,0.21Z" transform="translate(0 -0.03)"/><path d="M40.77,82.83l-0.1-.06V82.7l0.12-.2L41,82.61l-0.17.15Z" transform="translate(0 -0.03)"/><path d="M40.45,82.23a0.65,0.65,0,0,1,.16-0.64,1,1,0,0,1,.57.15,0.16,0.16,0,0,1,.06.22h0A1.37,1.37,0,0,1,40.45,82.23Z" transform="translate(0 -0.03)"/><path d="M40.53,82.14a0.59,0.59,0,0,1,.15-0.57,0.9,0.9,0,0,1,.51.13,0.14,0.14,0,0,1,.06.19h0A1.16,1.16,0,0,1,40.53,82.14Z" transform="translate(0 -0.03)" style="fill:#fff"/><path d="M40.47,81.75a0.64,0.64,0,0,1,.33-0.57,1,1,0,0,1,.55.23,0.15,0.15,0,0,1,0,.21A1.59,1.59,0,0,1,40.47,81.75Z" transform="translate(0 -0.03)"/><path d="M40.55,81.71a0.59,0.59,0,0,1,.31-0.51,0.86,0.86,0,0,1,.49.21,0.13,0.13,0,0,1,0,.18h0A1.49,1.49,0,0,1,40.55,81.71Z" transform="translate(0 -0.03)" style="fill:#fff"/><path d="M40.64,81.31A0.66,0.66,0,0,1,41,80.74a0.91,0.91,0,0,1,.54.23,0.13,0.13,0,0,1,0,.18l0,0A1.56,1.56,0,0,1,40.64,81.31Z" transform="translate(0 -0.03)"/><path d="M40.71,81.28a0.59,0.59,0,0,1,.3-0.51,0.86,0.86,0,0,1,.5.21,0.12,0.12,0,0,1,0,.17h0A1.33,1.33,0,0,1,40.71,81.28Z" transform="translate(0 -0.03)" style="fill:#fff"/><path d="M41.91,80.94a2.2,2.2,0,0,1-1-.16,0.86,0.86,0,0,1,.65-0.43,1,1,0,0,1,.5.38,0.15,0.15,0,0,1-.08.2H41.91Z" transform="translate(0 -0.03)"/><path d="M41.87,80.92a2.08,2.08,0,0,1-1-.15,0.79,0.79,0,0,1,.59-0.38,0.84,0.84,0,0,1,.44.35,0.13,0.13,0,0,1-.06.17h0Z" transform="translate(0 -0.03)" style="fill:#fff"/><path d="M41.79,83.16c0-.3-0.63-0.16-0.7-0.4s0.56-.62.61-1c0,0,.6-0.35,0-0.14A0.82,0.82,0,0,1,41,81.3a0.53,0.53,0,0,1,.24-0.47,6,6,0,0,0,.79.1,0.77,0.77,0,0,1,.67,1,1.07,1.07,0,0,1-.33.93A0.75,0.75,0,0,0,41.79,83.16Z" transform="translate(0 -0.03)"/><path d="M41.88,83c0-.28-0.59-0.14-0.67-0.37s0.52-.58.58-0.94c0,0,.56-0.33,0-0.14A0.93,0.93,0,0,1,41,81.27a0.46,0.46,0,0,1,.24-0.41A5.32,5.32,0,0,0,42,81a0.63,0.63,0,0,1,.57.86,1,1,0,0,1-.21.89A0.69,0.69,0,0,0,41.88,83Z" transform="translate(0 -0.03)" style="fill:#fff"/><path d="M41.65,84.21L41.43,83a1.34,1.34,0,0,0,1.22-.67l0.65,0.26A1.65,1.65,0,0,1,41.65,84.21Z" transform="translate(0 -0.03)"/><path d="M41.72,84l-0.17-.9a1.66,1.66,0,0,0,1.1-.67l0.6,0.22A1.46,1.46,0,0,1,41.72,84Z" transform="translate(0 -0.03)" style="fill:#fff"/><path d="M48.46,85.34c-1-.95-0.73-4.56-2-4.95,0.86-1.41,2.8-1.66,4.59-1.23C51.61,80.23,49.46,84.2,48.46,85.34Z" transform="translate(0 -0.03)"/><path d="M48.41,84.84c-0.83-.87-0.59-4-1.68-4.37,0.74-1.31,2.35-1.49,3.89-1.08C51.11,80.37,49.27,83.78,48.41,84.84Z" transform="translate(0 -0.03)" style="fill:#fff"/><path d="M48.23,84.2c-0.73-.78-1-3.56-2-3.88,0.57-1.31,2.44-1.79,3.92-1.19C50.62,80,49,83.26,48.23,84.2Z" transform="translate(0 -0.03)"/><path d="M48.24,83.89c-0.68-.72-0.72-3.47-1.62-3.78,0.6-1.07,2.19-1.26,3.45-.94C50.47,80,48.94,83,48.24,83.89Z" transform="translate(0 -0.03)" style="fill:#fff"/><path d="M57.32,85.11c-1.11-1.05-3.68-4.81-3.24-5.92,1.74-.58,3.71-0.51,4.7.8C57.56,80.51,58.18,84.08,57.32,85.11Z" transform="translate(0 -0.03)"/><path d="M57.32,84.61c-1-1-3.15-4.22-2.78-5.24,1.49-.53,3.12-0.51,4,0.73C57.48,80.56,58,83.66,57.32,84.61Z" transform="translate(0 -0.03)" style="fill:#fff"/><path d="M57.43,83.94c-0.85-.87-2.82-4-2.49-4.87,1.43-.73,3.34-0.42,4,0.84C58,80.32,58.08,83.11,57.43,83.94Z" transform="translate(0 -0.03)"/><path d="M57.38,83.64c-0.79-.8-2.62-3.68-2.31-4.53,1.22-.44,2.81-0.38,3.53.64C57.74,80.12,58,82.86,57.38,83.64Z" transform="translate(0 -0.03)" style="fill:#fff"/><path d="M55.63,90.85c-0.06.07-.2,0-0.21-0.13a0.21,0.21,0,0,1-.2-0.3A0.28,0.28,0,0,1,55.09,90a0.38,0.38,0,0,1-.24-0.38,3.89,3.89,0,0,1,1.92-.43,1.44,1.44,0,0,0,.42.77A1.79,1.79,0,0,1,55.63,90.85Z" transform="translate(0 -0.03)" style="fill:#fff"/><path d="M57.32,90.09A1.34,1.34,0,0,1,56.77,89a2.74,2.74,0,0,1,1.28.51C58.13,90,57.86,90.17,57.32,90.09Z" transform="translate(0 -0.03)"/><path d="M57.51,90.08A1.25,1.25,0,0,1,57,89.25a1.73,1.73,0,0,1,.92.33C58,90,57.89,90.1,57.51,90.08Z" transform="translate(0 -0.03)" style="fill:#fff"/><path d="M58.17,80.07c-0.23-.49-0.61-0.94-2.61-1C58.06,78.93,58.22,79.46,58.17,80.07Z" transform="translate(0 -0.03)"/><path d="M47.12,80.16c0.2-1.07,1.47-1,2.88-.86C48.81,79.28,47.68,79.35,47.12,80.16Z" transform="translate(0 -0.03)"/><path d="M52.47,89.48c-0.11-1.23-.2-2.46-0.22-3.69,0-2.11.11-4.26,0.22-6.35h0.62c-0.2,2.12-.57,4.34-0.57,6.52a34,34,0,0,0,.3,3.48Z" transform="translate(0 -0.03)"/><path d="M52.56,80a2.78,2.78,0,0,1-1.93-.69,4,4,0,0,0,.92-1.1,2,2,0,0,0,2-.25A8,8,0,0,1,55,79.37,6.56,6.56,0,0,1,52.56,80Z" transform="translate(0 -0.03)"/><path d="M52.57,79.8A2.08,2.08,0,0,1,51,79.21a5.31,5.31,0,0,0,.61-0.92,2.15,2.15,0,0,0,1.94-.17,6,6,0,0,1,1.16,1.14A6,6,0,0,1,52.57,79.8Z" transform="translate(0 -0.03)" style="fill:#fff"/><path d="M54.07,79.43a4.51,4.51,0,0,0-.66-1.05,3.19,3.19,0,0,1,.74.82A0.21,0.21,0,0,0,54.07,79.43Z" transform="translate(0 -0.03)"/><path d="M52.4,77.42s-0.16-1.69-.17-1.89a2.72,2.72,0,0,1,1.37.11c0.25,0.21-.35,0-0.38,0-0.66,0-.79.08-0.79,0.66a2.06,2.06,0,0,0,0,.53c0,0.16.74-.14,0.49,0.1A1.79,1.79,0,0,0,52.4,77.42Z" transform="translate(0 -0.03)"/><path d="M52.82,78.13c0-.48-0.1-0.55-0.66-0.55,0,0-.52.15-0.32,0A2.36,2.36,0,0,1,53,77.46,2.26,2.26,0,0,1,52.82,78.13Z" transform="translate(0 -0.03)"/><path d="M52,76.52c0-.51-0.11-0.58-0.7-0.58,0,0-.56.15-0.34,0a2.55,2.55,0,0,1,1.22-.1A2.38,2.38,0,0,1,52,76.52Z" transform="translate(0 -0.03)"/></g></g></g></g></g></svg>