<svg id="Layer_1" data-name="Layer 1" xmlns="http://www.w3.org/2000/svg" viewBox="0 0 105 130.51"><title>herb-gomel</title><g id="Document"><g id="Spread"><g id="_001" data-name=" 001"><g id="Group"><path d="M52.51,130.51l-3.12-4.69c-3.4-5.12-8.64-9-18.58-9H15.24C6.91,116.78,0,114.2,0,100.52V0H105V100.52c0,13.7-6.94,16.26-15.24,16.26H74.22c-9.94,0-15.17,3.93-18.59,9.06Z" transform="translate(0 0)"/><path d="M52.51,127.13l-1.56-2.34c-3.74-5.62-9.55-9.89-20.14-9.89H15.24c-7.37,0-13.37-1.82-13.37-14.38V1.88H103.16v98.64c0,12.56-6,14.38-13.36,14.38H74.22c-10.59,0-16.39,4.26-20.15,9.89Z" transform="translate(0 0)" style="fill:#fff"/><path d="M52.51,123.75C48.44,117.62,42,113,30.81,113H15.24c-6.64,0-11.49-1.27-11.49-12.51V3.75h97.53v96.77c0,11.24-4.85,12.51-11.49,12.51H74.22C63,113,56.6,117.62,52.51,123.75Z" transform="translate(0 0)" style="fill:#09c"/><g id="Group_1" data-name="Group 1"><path d="M17.21,91.31a2.71,2.71,0,0,1-.87-0.12,5,5,0,0,1-.79-0.43l-0.17-.1L14.5,90.6l-0.74-.06a4.6,4.6,0,0,1-.64,0,1.13,1.13,0,0,1-.55-0.24A3.13,3.13,0,0,1,12,89.17a10,10,0,0,1-.42-1.3,2.49,2.49,0,0,1,0-1A6.77,6.77,0,0,1,12,85.43a2.53,2.53,0,0,1,.32-0.66c0.38-.53.35-0.11,0.49-0.44a0.81,0.81,0,0,0,0-.6A1.46,1.46,0,0,1,12.22,83a2,2,0,0,1,.32-1,4.9,4.9,0,0,1,.64-0.92,3.58,3.58,0,0,1,.91-0.74,2.45,2.45,0,0,1,.7-0.19,12.62,12.62,0,0,1,1.64-.28c1.49-.09,3,0.38,4.48.18a1.44,1.44,0,0,0,.53-0.17,0.75,0.75,0,0,0,.3-0.27c0.63-1.24,2.54-.65,3.49-0.74h0.09l0.15-.36V77.8a1.89,1.89,0,0,0,0-.69,3.89,3.89,0,0,0-.27-0.62,5.26,5.26,0,0,1-.2-0.84,4.88,4.88,0,0,1-.09-1.07c0-.55.14-0.38,0.11-0.74l-0.14-.47-0.29-.18-0.23-.07A0.32,0.32,0,0,1,24.22,73a1.75,1.75,0,0,1,.15-1.34c0.24-.95.26-0.46,0.46-1.31A2.76,2.76,0,0,1,25,69.87v-0.1a1.83,1.83,0,0,1-1.16-.08c-1.13-1.61,1.4-3.68,1.93-5.08a39.28,39.28,0,0,1,1.62-3.94c0.35-.68.59-0.77,0.86-1.37,0.43-1,.39-2,0.79-3.09,0.1-.26.51-1.08,0.58-1.27l0.54-1.68V53.18l-0.23.07a1.78,1.78,0,0,1-.6.36c-0.32.12-.65,0.24-1,0.35s-0.48.1-.77,0.2a3.94,3.94,0,0,1-.54.24,4.68,4.68,0,0,1-.57,0c-0.52.21,0,.41-0.6,0.64a1.31,1.31,0,0,1-.87.07,1.86,1.86,0,0,1-.92-0.73,1.82,1.82,0,0,1-.24-0.67,5.85,5.85,0,0,0,0-.72l-0.36-.21L23,52.62H22.93l-0.34-.26-0.07-.08a3.53,3.53,0,0,1-.47-0.34,2.46,2.46,0,0,1-.19-1.17c-0.17-.39-0.45-0.07-0.81-0.56a1.54,1.54,0,0,1-.35-1.27,2.91,2.91,0,0,1,1.3-1c0.57-.48,1.54-1.24,2.19-1.73,0.26-.2.58-0.38,0.82-0.53a2.83,2.83,0,0,0,.72-0.47,2,2,0,0,0,0-.69c0.08-.38-0.06-0.4,0-0.94a3.33,3.33,0,0,1,.27-1.2,2.68,2.68,0,0,1,.73-0.86,13.09,13.09,0,0,1,1.75-.68,5,5,0,0,0,1.07-.65,1,1,0,0,0,.28-0.38,3.5,3.5,0,0,0,0-1v-3c0,0.14-.3-0.88.18-1,0.82-.24,1.15,1.34,1.26,1.54l0.14,0.43V36.6a2.9,2.9,0,0,1,0-.84c0,0.09-.21-1,0.26-1.14C32.46,34.28,33,35.79,33.2,36c0.34,0.42.62,0.88,0.91,1.31a15.75,15.75,0,0,1,.85,1.4,6.87,6.87,0,0,1,.83,2.5V41.6H36c0.21-.17.46-1,1.08-0.92a3.76,3.76,0,0,1,2.09,1.55,4.93,4.93,0,0,1,.76,1.24,9.16,9.16,0,0,1,.51,1.42,18.17,18.17,0,0,1,.61,4c0,1.38-.57,2.11-0.44,3a0.26,0.26,0,0,1-.38.27l-0.31-.34L40,52.06a13.39,13.39,0,0,1,.57,1.7,4.17,4.17,0,0,0,.6,2.11,0.27,0.27,0,0,1-.23.43,1.92,1.92,0,0,1-.74-0.2l-0.38-.24v3.83a0.83,0.83,0,0,1,0,.31v0.12L40.27,60a3,3,0,0,1,1.65.1,11,11,0,0,1,2.36,1.17A12.51,12.51,0,0,0,47.47,63c1.88,0.46,3.74-.1,5.82-0.06s3.89,0.7,5.74.24c0.76-.19,2.17-1.8,3.37-2,2.84-.39,5.64,1.23,8.18,2.14a29.94,29.94,0,0,1,5,2.32,15.49,15.49,0,0,1,4.27,3,17.68,17.68,0,0,1,1.23,2.56,6.21,6.21,0,0,0,1,1.38,6.57,6.57,0,0,0,2,1.27,10.22,10.22,0,0,0,1.9.56l2,0.29,3.73,0.17,0.83-.22a1.24,1.24,0,0,1,1,.1c0.56,0.46.31,1.43,0.27,1.84a3.69,3.69,0,0,1-.63,1.92A5.34,5.34,0,0,1,91,79.86a6.81,6.81,0,0,1-1.79.54h0a6.67,6.67,0,0,1-2.61.17H86.49a5.8,5.8,0,0,1-1.72-.74,5.52,5.52,0,0,1-1.45,0H83.25a3.12,3.12,0,0,1-1.47-.89l0.2,0.9a4.46,4.46,0,0,1-.19,1.77c-0.29.83-.43,0.18-0.5,0.72a4.17,4.17,0,0,0,.37,1c0.26,1.26.76,3.24,0.37,4.61a2,2,0,0,1-.94,1.2c-0.84.4-2,0-2.66,0-1.8-.06-3.65-0.09-5.46-0.31-0.65-.08-1.49-0.31-2.08-0.41a8.11,8.11,0,0,0-2.17-.26,5.12,5.12,0,0,0-.9.37,3.74,3.74,0,0,1-1.06.33,4,4,0,0,1-1.3-.3,10.34,10.34,0,0,1-1.06-.44l-0.79-.39h0a1.57,1.57,0,0,1,0,.76,1.29,1.29,0,0,1-1,.44,1.89,1.89,0,0,1-.91-0.14,6,6,0,0,1-.7-0.6h0l-0.08-.06v0.22a0.83,0.83,0,0,1-.14.69,1.83,1.83,0,0,1-.78.68,2.15,2.15,0,0,1-1,.2,2.46,2.46,0,0,1-1-.2c-0.76-.36-0.15-0.48-0.58-0.52-0.64-.07-0.59.65-1.41,0.75a2.53,2.53,0,0,1-1.54-.35A2,2,0,0,1,54,89a4,4,0,0,1-.55-0.77s-0.26-1-.21-0.85a1.21,1.21,0,0,0-.3-0.6,2.6,2.6,0,0,0-1.42-.55H46.94l-0.08.38c0.14,0.47.84,1.39,0.28,2-2.19,2.49-6.88.3-9.77,0.54-1.23.1-1.71,0.25-3,.35a23.6,23.6,0,0,1-2.7.15,18.79,18.79,0,0,1-2-.2,4.39,4.39,0,0,1-1.19-.2c-0.46-.19-0.28-0.37-0.68-0.51a5,5,0,0,0-1.2,0,2.75,2.75,0,0,1-1-.1c-0.08,0-.77-0.64-0.88-0.69a1.78,1.78,0,0,0-.65-0.15,1.35,1.35,0,0,0-.81.07,1.17,1.17,0,0,0-.25.61,2.79,2.79,0,0,1-.26,1.37,1.75,1.75,0,0,1-1.28.28,3.63,3.63,0,0,1-1.58-.25,0.44,0.44,0,0,1-.28-0.25l-0.19-.21-0.25.28a11.15,11.15,0,0,1-.59,1.11,1.5,1.5,0,0,1-.61.34A2.45,2.45,0,0,1,17.21,91.31Z" transform="translate(0 0)"/><path d="M22.4,50.63c-0.19-.29-0.63-0.33-0.83-0.61a1.26,1.26,0,0,1-.32-1,3,3,0,0,1,1.21-.92c0.65-.55,1.22-1.2,1.9-1.72,0.25-.19.54-0.35,0.81-0.52a3.2,3.2,0,0,0,.77-0.51,1.57,1.57,0,0,0,.32-0.69,7.14,7.14,0,0,0,0-1,3.07,3.07,0,0,1,.21-1,2.41,2.41,0,0,1,.66-0.78,14,14,0,0,1,1.5-.77,5.82,5.82,0,0,0,1.12-.81,1.17,1.17,0,0,0,.35-0.48,3.85,3.85,0,0,0,0-1.1V35.64c0-.4-0.24-0.7,0-0.78,0.55-.16.68,0.92,1,1.41,0.14,0.27,0,.86.35,0.83s0.22-1,.29-1.5c0-.31-0.21-0.82.09-0.92,0.59-.2.88,0.89,1.26,1.38A13.61,13.61,0,0,1,34,37.35c0.29,0.45.58,0.91,0.83,1.38a8.07,8.07,0,0,1,.52,1.15,10.12,10.12,0,0,1,.29,1.38,0.74,0.74,0,0,0,.09.57c0.42,0.23.84-.66,1.32-0.6A3.55,3.55,0,0,1,39,42.7a4.6,4.6,0,0,1,.72,1.18,8.29,8.29,0,0,1,.49,1.38,15.59,15.59,0,0,1,.72,3.65c0,1-.54,2.29-0.43,3a2.08,2.08,0,0,1-.89-1c-0.13,0,.53,1.82.67,2.88A4.45,4.45,0,0,0,40.79,56a2.33,2.33,0,0,1-1.3-.59c-0.25.06-.07,1.25-0.08,1.89v2.44a0.85,0.85,0,0,0,0,.6c0.58,0.56,1.64-.21,2.4,0a11.68,11.68,0,0,1,2.3,1.5,13,13,0,0,0,3.27,1.73c1.91,0.45,3.92-.09,5.87-0.06s3.93,0.71,5.81.23c1.25-.31,2.06-1.78,3.34-2,2.75-.38,5.44,1.18,8.05,2.13a30.56,30.56,0,0,1,4.94,2.3,14.94,14.94,0,0,1,4.21,3,18.06,18.06,0,0,1,1.21,2.53,6.27,6.27,0,0,0,1,1.44,6.88,6.88,0,0,0,2.07,1.32,14.15,14.15,0,0,0,4,.86,20.62,20.62,0,0,0,3.45,0c0.56,0,1.24-.52,1.67-0.17a1.76,1.76,0,0,1,.18,1.61,3,3,0,0,1-.69,1.5,5.81,5.81,0,0,1-2.07,1.21,7.23,7.23,0,0,1-1.73.51,6.46,6.46,0,0,1-2.3,0c-0.61-.12-1.11-0.62-1.73-0.74s-1,.1-1.5,0a2.07,2.07,0,0,1-1.27-.55A5,5,0,0,1,81.07,77a29.13,29.13,0,0,1,.65,2.86,4.26,4.26,0,0,1-.18,1.67,4.83,4.83,0,0,0-.52.78,3.6,3.6,0,0,0,.37,1.12c0.28,1.32.75,2.74,0.37,4a1.68,1.68,0,0,1-.8,1c-0.76.36-1.69,0-2.53,0-1.81-.06-3.64-0.09-5.44-0.31-0.69-.08-1.38-0.3-2.07-0.4a8.4,8.4,0,0,0-2.25-.26,5.12,5.12,0,0,0-1,.38,3.58,3.58,0,0,1-1,.32,3.67,3.67,0,0,1-1.21-.29,9.17,9.17,0,0,1-1-.43,6.43,6.43,0,0,1-.8-0.44c-0.12-.07-0.22-0.33-0.35-0.26-0.34.2,0.35,0.84,0.14,1.18a1.08,1.08,0,0,1-.8.32,1.6,1.6,0,0,1-.78-0.12,7.53,7.53,0,0,1-.77-0.6,0.47,0.47,0,0,0-.38-0.17c-0.33.17,0,.77-0.2,1.09a1.51,1.51,0,0,1-.67.58,1.91,1.91,0,0,1-.83.17A2,2,0,0,1,58.13,89a2.81,2.81,0,0,0-.66-0.54c-0.55-.06-0.92.68-1.47,0.74a2.27,2.27,0,0,1-1.38-.32,1.78,1.78,0,0,1-.43-0.49,3.72,3.72,0,0,1-.52-0.72c-0.12-.26-0.1-0.57-0.21-0.83a1.38,1.38,0,0,0-.4-0.72A3.09,3.09,0,0,0,51.52,86h-4a0.94,0.94,0,0,0-.69,0c-0.48.52,0.63,1.57,0.17,2.1-2.11,2.4-6.4.18-9.59,0.44-1,.08-2,0.27-3,0.36a23.06,23.06,0,0,1-2.68.15,18.28,18.28,0,0,1-2-.2,4.18,4.18,0,0,1-1.12-.18c-0.26-.11-0.42-0.42-0.69-0.51a4.9,4.9,0,0,0-1.27-.06,3,3,0,0,1-.86-0.1c-0.34-.14-0.53-0.53-0.86-0.69a1.93,1.93,0,0,0-.75-0.18,1.55,1.55,0,0,0-1,.11,1.4,1.4,0,0,0-.35.75,3,3,0,0,1-.2,1.26,1.51,1.51,0,0,1-1.09.2A3.43,3.43,0,0,1,20,89.23a2,2,0,0,0-.58-0.49,0.75,0.75,0,0,0-.46.38,12.29,12.29,0,0,1-.58,1.09,1.35,1.35,0,0,1-.52.29,2.14,2.14,0,0,1-.72.14,2.19,2.19,0,0,1-.78-0.11,5.27,5.27,0,0,1-.74-0.4L15.42,90a4.69,4.69,0,0,0-.95-0.09l-0.75-.05a3.09,3.09,0,0,1-.59,0,0.8,0.8,0,0,1-.43-0.17,2.93,2.93,0,0,1-.46-1,3.76,3.76,0,0,1-.4-0.83,2.48,2.48,0,0,1,0-.89,6.59,6.59,0,0,1,.4-1.38,2.13,2.13,0,0,1,.28-0.6A3.69,3.69,0,0,0,13,84.51a1.14,1.14,0,0,0,0-.81,4.35,4.35,0,0,1-.6-0.66,1.16,1.16,0,0,1,.28-0.69,4.61,4.61,0,0,1,.6-0.86,3.29,3.29,0,0,1,.84-0.69,2.2,2.2,0,0,1,.63-0.18c0.45-.09.9-0.12,1.35-0.17l0.64-.06h1.55c0.55,0,.78.1,1.18,0.12a7.39,7.39,0,0,0,1.39,0,1.79,1.79,0,0,0,.63-0.21,1,1,0,0,0,.4-0.37c0.53-1.08,2.28-.62,3.45-0.75a0.31,0.31,0,0,0,.2,0,1.91,1.91,0,0,0,.32-1.3,2.26,2.26,0,0,0,0-.77,3.42,3.42,0,0,0-.29-0.66,5.37,5.37,0,0,1-.25-0.81,4.34,4.34,0,0,1-.09-1,6.41,6.41,0,0,0,.11-0.77,1.17,1.17,0,0,0-.2-0.64A1,1,0,0,0,24.81,73a0.51,0.51,0,0,1-.26-0.08,1.66,1.66,0,0,1,.19-1.14c0.12-.45.35-0.87,0.46-1.32a1.08,1.08,0,0,0,.11-0.86c-0.25-.28-0.94.32-1.15,0-0.94-1.41,1.31-3.14,2-4.71,0.54-1.3,1.08-2.61,1.61-3.91,0.23-.57.49-1.14,0.69-1.72,0.32-.94.47-1.94,0.81-2.88,0.16-.43.41-0.83,0.58-1.26a5.46,5.46,0,0,0,.56-1.76A0.38,0.38,0,0,0,30.33,53c-0.35-.18-0.73.3-1.09,0.43s-0.64.24-1,.35-0.53.11-.78,0.2a5,5,0,0,1-.52.23,3.44,3.44,0,0,0-.61,0c-0.25.09-.36,0.41-0.6,0.51a1.05,1.05,0,0,1-.69,0,1.55,1.55,0,0,1-.78-0.63,1.52,1.52,0,0,1-.2-0.57A2.37,2.37,0,0,0,24,52.85a1,1,0,0,0-.47-0.31c-0.13-.07-0.29-0.09-0.43-0.16a1.11,1.11,0,0,1-.34-0.26C22.39,51.76,22.69,51,22.4,50.63Z" transform="translate(0 0)" style="fill:#fc0"/><path d="M29,48.57c2-1.37,5.24-1.48,7.41-1.14A3.49,3.49,0,0,0,34.2,48c1.54,0.2,4.19,1.63,4,2.06-0.83-.3-1.48-0.29-1.81.31a5.08,5.08,0,0,1,2.32,2.15,2.84,2.84,0,0,0-2.09.27,1.68,1.68,0,0,1,.88,1.84,1.49,1.49,0,0,0-1.12-.22,1.21,1.21,0,0,0,.32,1.27c-3.09.51-4.27-.86-5.33-2.38,1.06,0.92,2.48,2.17,3.83,1.93a3.21,3.21,0,0,1-.51-1.59,2.69,2.69,0,0,1,1.48.2A2.1,2.1,0,0,0,34,52.44a3,3,0,0,1,3.07-.62c-0.25-.88-1.36-1.15-2.74-1.24a2.08,2.08,0,0,1,2.15-1,4.38,4.38,0,0,0-4.13-.38,1.85,1.85,0,0,1,.53-1.09A9.13,9.13,0,0,0,29,48.57Z" transform="translate(0 0)"/><path d="M25.46,47.48c0.64-1.49,2.17-2.16,4.1-1.94A7.11,7.11,0,0,0,25.46,47.48Z" transform="translate(0 0)"/><path d="M26.83,46.57a2.32,2.32,0,0,0,1.25,1.25,3.26,3.26,0,0,0,1-2A5.2,5.2,0,0,0,26.83,46.57Z" transform="translate(0 0)"/><path d="M65.89,82.25c-6-2.47-12.36-2.12-12.45,3.53a3.54,3.54,0,0,0,1.84,3.48c-3.85-.53-3.33-11.68,7.42-8.43C52,73.19,55.51,66,61.75,67.49,54.25,67,54.24,75.38,65.89,82.25Z" transform="translate(0 0)"/><path d="M72.78,81.67a1,1,0,0,1,.92,1.24,1.32,1.32,0,0,1-1.6.55,1,1,0,0,1-.92-1.24A1.32,1.32,0,0,1,72.78,81.67Z" transform="translate(0 0)"/><path d="M74.18,78.92a1.29,1.29,0,0,1,.55,1.6,1.06,1.06,0,0,1-1.49.16l-0.06-.05a1.29,1.29,0,0,1-.55-1.6,1.06,1.06,0,0,1,1.49-.16Z" transform="translate(0 0)"/><path d="M72.31,85.15a1.07,1.07,0,0,1,1,1.13v0a1.33,1.33,0,0,1-1.58.64,1.07,1.07,0,0,1-1-1.13v0A1.33,1.33,0,0,1,72.31,85.15Z" transform="translate(0 0)"/><path d="M76.18,80.25a0.84,0.84,0,0,1,1.18-.13l0,0a1,1,0,0,1-.31,1.31,0.84,0.84,0,0,1-1.18.13l0,0A1,1,0,0,1,76.18,80.25Z" transform="translate(0 0)"/><path d="M75.95,76a1,1,0,0,1,.64,1.26l0,0a1.19,1.19,0,0,1-1.49.52,1,1,0,0,1-.64-1.26l0,0A1.19,1.19,0,0,1,75.95,76Z" transform="translate(0 0)"/><path d="M77.44,77.28a1,1,0,0,1,1.27.62l0,0.05a1.19,1.19,0,0,1-.87,1.31,1,1,0,0,1-1.27-.62l0-.05A1.19,1.19,0,0,1,77.44,77.28Z" transform="translate(0 0)"/><path d="M80,75.12a1,1,0,0,1-.08,1.41l0,0a1.19,1.19,0,0,1-1.55-.29,1,1,0,0,1,.08-1.41l0,0A1.19,1.19,0,0,1,80,75.12Z" transform="translate(0 0)"/><path d="M77,73.47a0.84,0.84,0,0,1,.83.93,1,1,0,0,1-1.1.79,0.84,0.84,0,0,1-.83-0.93A1,1,0,0,1,77,73.47Z" transform="translate(0 0)"/><path d="M76.36,71.65a0.6,0.6,0,0,1,.6.67,0.74,0.74,0,0,1-.79.57,0.6,0.6,0,0,1-.6-0.67A0.74,0.74,0,0,1,76.36,71.65Z" transform="translate(0 0)"/><path d="M78.66,71.71a0.6,0.6,0,0,1,.6.67,0.74,0.74,0,0,1-.79.57,0.6,0.6,0,0,1-.6-0.67A0.74,0.74,0,0,1,78.66,71.71Z" transform="translate(0 0)"/><path d="M73.27,72.55a0.6,0.6,0,0,1,.6.67,0.74,0.74,0,0,1-.79.57,0.6,0.6,0,0,1-.6-0.67A0.74,0.74,0,0,1,73.27,72.55Z" transform="translate(0 0)"/><path d="M74.66,68.75a0.6,0.6,0,0,1,.6.67,0.74,0.74,0,0,1-.79.57,0.6,0.6,0,0,1-.6-0.67A0.74,0.74,0,0,1,74.66,68.75Z" transform="translate(0 0)"/><path d="M70.49,72.46a0.6,0.6,0,0,1,.6.67,0.74,0.74,0,0,1-.79.57A0.6,0.6,0,0,1,69.7,73,0.74,0.74,0,0,1,70.49,72.46Z" transform="translate(0 0)"/><path d="M71.13,74.94a0.6,0.6,0,0,1,.6.67,0.74,0.74,0,0,1-.79.57,0.6,0.6,0,0,1-.6-0.67A0.74,0.74,0,0,1,71.13,74.94Z" transform="translate(0 0)"/><path d="M67.75,74.16a0.6,0.6,0,0,1,.6.67,0.74,0.74,0,0,1-.79.57,0.6,0.6,0,0,1-.6-0.67A0.74,0.74,0,0,1,67.75,74.16Z" transform="translate(0 0)"/><path d="M63.68,74.71a0.6,0.6,0,0,1,.6.67,0.74,0.74,0,0,1-.79.57,0.6,0.6,0,0,1-.6-0.67A0.74,0.74,0,0,1,63.68,74.71Z" transform="translate(0 0)"/><path d="M62.37,71.74a0.53,0.53,0,0,1,.53.59,0.65,0.65,0,0,1-.7.5,0.53,0.53,0,0,1-.53-0.59A0.65,0.65,0,0,1,62.37,71.74Z" transform="translate(0 0)"/><path d="M59.57,71.74a0.46,0.46,0,0,1,.46.51,0.57,0.57,0,0,1-.61.44A0.46,0.46,0,0,1,59,72.2v0A0.57,0.57,0,0,1,59.57,71.74Z" transform="translate(0 0)"/><path d="M60.4,74a0.48,0.48,0,0,1,.47.49s0,0,0,0a0.58,0.58,0,0,1-.63.45,0.48,0.48,0,0,1-.47-0.49s0,0,0,0A0.58,0.58,0,0,1,60.4,74Z" transform="translate(0 0)"/><path d="M41.06,85.67a0.78,0.78,0,0,1,0,1.1L41,86.83a1,1,0,0,1-1.25-.22,0.78,0.78,0,0,1,0-1.1l0.07-.06A1,1,0,0,1,41.06,85.67Z" transform="translate(0 0)"/><path d="M44.11,85.69a0.78,0.78,0,0,1,0,1.1L44,86.85a1,1,0,0,1-1.25-.22,0.78,0.78,0,0,1,0-1.1l0.07-.06A1,1,0,0,1,44.11,85.69Z" transform="translate(0 0)"/><path d="M44.11,83a0.78,0.78,0,0,1,0,1.1L44,84.21A1,1,0,0,1,42.78,84a0.78,0.78,0,0,1,0-1.1l0.07-.06A1,1,0,0,1,44.11,83Z" transform="translate(0 0)"/><path d="M41.11,80.92a0.78,0.78,0,0,1,0,1.1L41,82.08a1,1,0,0,1-1.25-.22,0.78,0.78,0,0,1,0-1.1l0.07-.06A1,1,0,0,1,41.11,80.92Z" transform="translate(0 0)"/><path d="M44.17,78.65a0.78,0.78,0,0,1,0,1.1l-0.07.06a1,1,0,0,1-1.25-.22,0.78,0.78,0,0,1,0-1.1l0.07-.06A1,1,0,0,1,44.17,78.65Z" transform="translate(0 0)"/><path d="M37.86,77.06a0.78,0.78,0,0,1,0,1.1l-0.07.06A1,1,0,0,1,36.53,78a0.78,0.78,0,0,1,0-1.1l0.07-.06A1,1,0,0,1,37.86,77.06Z" transform="translate(0 0)"/><path d="M36.66,79.68a0.78,0.78,0,0,1,0,1.1l-0.07.06a1,1,0,0,1-1.25-.22,0.78,0.78,0,0,1,0-1.1l0.07-.06A1,1,0,0,1,36.66,79.68Z" transform="translate(0 0)"/><path d="M37.52,83.31a0.78,0.78,0,0,1,0,1.1l-0.07.06a1,1,0,0,1-1.25-.22,0.78,0.78,0,0,1,0-1.1l0.07-.06A1,1,0,0,1,37.52,83.31Z" transform="translate(0 0)"/><path d="M35.19,86.41a0.78,0.78,0,0,1,0,1.1l-0.07.06a1,1,0,0,1-1.25-.22,0.78,0.78,0,0,1,0-1.1l0.07-.06A1,1,0,0,1,35.19,86.41Z" transform="translate(0 0)"/><path d="M33.26,83.16a0.78,0.78,0,0,1,0,1.1l-0.07.06a1,1,0,0,1-1.25-.22,0.78,0.78,0,0,1,0-1.1L32,82.94A1,1,0,0,1,33.26,83.16Z" transform="translate(0 0)"/><path d="M27.68,84.34a0.78,0.78,0,0,1,0,1.1l-0.07.06a1,1,0,0,1-1.25-.22,0.78,0.78,0,0,1,0-1.1l0.07-.06A1,1,0,0,1,27.68,84.34Z" transform="translate(0 0)"/><path d="M30.82,85.95a0.78,0.78,0,0,1,0,1.1l-0.07.06a1,1,0,0,1-1.25-.22,0.78,0.78,0,0,1,0-1.1l0.07-.06A1,1,0,0,1,30.82,85.95Z" transform="translate(0 0)"/><path d="M50.67,83.22a0.78,0.78,0,0,1,0,1.1l-0.07.06a1,1,0,0,1-1.25-.22,0.78,0.78,0,0,1,0-1.1L49.42,83A1,1,0,0,1,50.67,83.22Z" transform="translate(0 0)"/><path d="M50.61,80.28a0.78,0.78,0,0,1,0,1.1l-0.07.06a1,1,0,0,1-1.25-.22,0.78,0.78,0,0,1,0-1.1l0.07-.06A1,1,0,0,1,50.61,80.28Z" transform="translate(0 0)"/><path d="M49.57,77.12a0.78,0.78,0,0,1,0,1.1l-0.07.06a1,1,0,0,1-1.25-.22,0.78,0.78,0,0,1,0-1.1l0.07-.06A1,1,0,0,1,49.57,77.12Z" transform="translate(0 0)"/><path d="M54,77.18a0.78,0.78,0,0,1,0,1.1l-0.07.06a1,1,0,0,1-1.25-.22,0.78,0.78,0,0,1,.06-1.1l0,0A1,1,0,0,1,54,77.18Z" transform="translate(0 0)"/><path d="M54.23,80a0.78,0.78,0,0,1,0,1.1l-0.07.06a1,1,0,0,1-1.25-.22,0.78,0.78,0,0,1,0-1.1L53,79.77A1,1,0,0,1,54.23,80Z" transform="translate(0 0)"/><path d="M57,78.1a0.78,0.78,0,0,1,.06,1.1L57,79.26A1,1,0,0,1,55.72,79a0.78,0.78,0,0,1,0-1.1l0.07-.06A1,1,0,0,1,57,78.1Z" transform="translate(0 0)"/><path d="M53.61,74.24a0.6,0.6,0,0,1,.6.67,0.74,0.74,0,0,1-.79.57,0.6,0.6,0,0,1-.6-0.67A0.74,0.74,0,0,1,53.61,74.24Z" transform="translate(0 0)"/><path d="M53.32,71.77a0.6,0.6,0,0,1,.6.67,0.74,0.74,0,0,1-.79.57,0.6,0.6,0,0,1-.6-0.67A0.74,0.74,0,0,1,53.32,71.77Z" transform="translate(0 0)"/><path d="M50.33,74a0.48,0.48,0,0,1,.47.49s0,0,0,0a0.58,0.58,0,0,1-.63.45,0.48,0.48,0,0,1-.47-0.49s0,0,0,0A0.58,0.58,0,0,1,50.33,74Z" transform="translate(0 0)"/><path d="M48.09,73.41a0.48,0.48,0,0,1,.47.49s0,0,0,0a0.58,0.58,0,0,1-.63.45,0.48,0.48,0,0,1-.47-0.49s0,0,0,0A0.58,0.58,0,0,1,48.09,73.41Z" transform="translate(0 0)"/><path d="M46.25,72.9a0.48,0.48,0,0,1,.47.49s0,0,0,0a0.58,0.58,0,0,1-.63.45,0.48,0.48,0,0,1-.47-0.49s0,0,0,0A0.58,0.58,0,0,1,46.25,72.9Z" transform="translate(0 0)"/><path d="M27.82,75.74a0.38,0.38,0,0,0-.38.43,0.47,0.47,0,0,0,.5.36,0.38,0.38,0,0,0,.38-0.43A0.47,0.47,0,0,0,27.82,75.74Z" transform="translate(0 0)"/><path d="M43,70.36a0.38,0.38,0,0,0-.38.43,0.47,0.47,0,0,0,.5.36,0.38,0.38,0,0,0,.38-0.43A0.47,0.47,0,0,0,43,70.36Z" transform="translate(0 0)"/><path d="M41.56,72.17a0.38,0.38,0,0,0-.38.43,0.47,0.47,0,0,0,.5.36,0.38,0.38,0,0,0,.38-0.43A0.47,0.47,0,0,0,41.56,72.17Z" transform="translate(0 0)"/><path d="M41.83,74.56a0.78,0.78,0,0,1,0,1.1l-0.07.06a1,1,0,0,1-1.25-.22,0.78,0.78,0,0,1,0-1.1l0.07-.06A1,1,0,0,1,41.83,74.56Z" transform="translate(0 0)"/><path d="M36.78,74.13a0.6,0.6,0,0,1,.6.67,0.73,0.73,0,0,1-.79.57A0.6,0.6,0,0,1,36,74.7,0.73,0.73,0,0,1,36.78,74.13Z" transform="translate(0 0)"/><path d="M31.92,74.79a0.6,0.6,0,0,1,.6.67,0.73,0.73,0,0,1-.79.57,0.6,0.6,0,0,1-.6-0.67A0.73,0.73,0,0,1,31.92,74.79Z" transform="translate(0 0)"/><path d="M30.94,77.15a0.6,0.6,0,0,1,.6.67,0.73,0.73,0,0,1-.79.57,0.6,0.6,0,0,1-.6-0.67A0.73,0.73,0,0,1,30.94,77.15Z" transform="translate(0 0)"/><path d="M27.72,78.53a0.6,0.6,0,0,0-.6.67,0.73,0.73,0,0,0,.79.57,0.6,0.6,0,0,0,.6-0.67A0.73,0.73,0,0,0,27.72,78.53Z" transform="translate(0 0)"/><path d="M44.42,72.26a0.38,0.38,0,0,0-.38.43,0.47,0.47,0,0,0,.5.36,0.38,0.38,0,0,0,.38-0.43A0.47,0.47,0,0,0,44.42,72.26Z" transform="translate(0 0)"/><path d="M67.41,78.15a0.78,0.78,0,0,1,0,1.1l-0.07.06a1,1,0,0,1-1.25-.22,0.78,0.78,0,0,1,0-1.1l0.07-.06A1,1,0,0,1,67.41,78.15Z" transform="translate(0 0)"/><path d="M69.31,81.32a0.78,0.78,0,0,1,0,1.1l-0.07.06A1,1,0,0,1,68,82.26a0.78,0.78,0,0,1,0-1.1l0.07-.06A1,1,0,0,1,69.31,81.32Z" transform="translate(0 0)"/><path d="M69,84.19a0.78,0.78,0,0,1,0,1.1l-0.07.06a1,1,0,0,1-1.25-.22,0.78,0.78,0,0,1,.07-1.1l0,0A1,1,0,0,1,69,84.19Z" transform="translate(0 0)"/><path d="M65.39,84.89a0.78,0.78,0,0,1-.07,1.1h0a1,1,0,0,1-1.25-.22,0.78,0.78,0,0,1,0-1.1l0.07-.06A1,1,0,0,1,65.39,84.89Z" transform="translate(0 0)"/><path d="M75.42,86.44c1.43,0.37,3.57.94,4.57,0.29s0.86-2.58-1.21-4.09c0.22,0.92.69,2.25-2.53,2.56C75.79,85.25,74.38,85.75,75.42,86.44Z" transform="translate(0 0)"/><path d="M43.6,74.41a9.93,9.93,0,0,1,3.92,2.82,2.3,2.3,0,0,0-1.23-.14c1.2,1.25,1.57,3.45,1.63,5.05a2.42,2.42,0,0,0-1.3-1c0.45,1,.91,1.89.46,4.8-0.22-1.89-.34-4.33-1.46-5.43a2.66,2.66,0,0,1,1.83.66c-0.4-2-.9-3.68-2.26-4.45a1.7,1.7,0,0,1,1.13-.18A7.21,7.21,0,0,0,43.6,74.41Z" transform="translate(0 0)"/><path d="M34.74,76.63c-1,1.43-1.25,2.86-.2,4.29-2.84.13-6.65-.15-5.72,1.49-2.9-.46-5.49-0.58-6.3,1.35-1.23-.6-8.31-1.83-9.31.52,0.3-2.85,6.56-1.82,9.28-1,0.43-1.77,2.71-1.82,5.61-1.47,0.12-.95,1.35-1.42,3.45-1.46a3.58,3.58,0,0,0,1.12-1.19,2.08,2.08,0,0,0-.23,1.19,6.88,6.88,0,0,1,1.26.08C32,78.46,34.06,77.33,34.74,76.63Z" transform="translate(0 0)"/><path d="M32.3,36.85a12,12,0,0,1,2.88,5.47,6.32,6.32,0,0,1-2.93-1.49A11.21,11.21,0,0,1,32.3,36.85Z" transform="translate(0 0)"/><path d="M30.11,41.57c2.12-.38,3.66,1,5.43,1-1.45.53-3,.32-4.54,1.09C29.83,42.63,29.86,42,30.11,41.57Z" transform="translate(0 0)"/><path d="M28.22,81.92a4.92,4.92,0,0,1-2.67-2.83,6.57,6.57,0,0,0,.39-2.1A5.56,5.56,0,0,0,28.22,81.92Z" transform="translate(0 0)"/><path d="M23.94,52.78c-0.19.37-.09,0.14,0,0.33a4.89,4.89,0,0,0,1.83-.48,1.69,1.69,0,0,0,.63-0.3C26.53,52,25.6,52.61,23.94,52.78Z" transform="translate(0 0)"/><path d="M23.61,50.63a0.15,0.15,0,0,0-.15.15v0a0.19,0.19,0,0,0,.2.15,0.15,0.15,0,0,0,.15-0.15v0A0.19,0.19,0,0,0,23.61,50.63Z" transform="translate(0 0)"/><path d="M23,50.79a0.15,0.15,0,0,0-.15.15v0a0.19,0.19,0,0,0,.2.15A0.15,0.15,0,0,0,23.2,51v0A0.19,0.19,0,0,0,23,50.79Z" transform="translate(0 0)"/><path d="M23.16,51.41a0.13,0.13,0,0,0-.12.14h0a0.15,0.15,0,0,0,.17.12,0.13,0.13,0,0,0,.13-0.13h0a0.15,0.15,0,0,0-.17-0.12h0Z" transform="translate(0 0)"/><path d="M25.53,50.32a0.25,0.25,0,0,0-.25.28,0.31,0.31,0,0,0,.33.24,0.25,0.25,0,0,0,.25-0.28A0.31,0.31,0,0,0,25.53,50.32Z" transform="translate(0 0)"/><path d="M24.48,50.36a0.19,0.19,0,0,0-.19.19v0a0.24,0.24,0,0,0,.26.18,0.19,0.19,0,0,0,.19-0.19v0A0.24,0.24,0,0,0,24.48,50.36Z" transform="translate(0 0)"/><path d="M23.71,51.33a0.13,0.13,0,0,0-.13.13v0a0.16,0.16,0,0,0,.17.13,0.13,0.13,0,0,0,.13-0.13v0A0.16,0.16,0,0,0,23.71,51.33Z" transform="translate(0 0)"/><path d="M24.4,51.23a0.18,0.18,0,0,0-.18.18v0a0.23,0.23,0,0,0,.24.17,0.18,0.18,0,0,0,.18-0.18v0A0.23,0.23,0,0,0,24.4,51.23Z" transform="translate(0 0)"/><path d="M25.21,51.27a0.23,0.23,0,0,0-.23.26,0.28,0.28,0,0,0,.3.22,0.23,0.23,0,0,0,.23-0.26A0.28,0.28,0,0,0,25.21,51.27Z" transform="translate(0 0)"/><path d="M26.73,50.6a0.29,0.29,0,0,0-.29.33,0.36,0.36,0,0,0,.39.28,0.29,0.29,0,0,0,.29-0.33A0.36,0.36,0,0,0,26.73,50.6Z" transform="translate(0 0)"/><path d="M16.16,90.55A4.11,4.11,0,0,1,14,88.23a5.2,5.2,0,0,0,.33-1.73A4.53,4.53,0,0,0,16.16,90.55Z" transform="translate(0 0)"/><path d="M20.3,89.41A2.49,2.49,0,0,1,18.93,88a3.29,3.29,0,0,0,.2-1.07A2.82,2.82,0,0,0,20.3,89.41Z" transform="translate(0 0)"/><path d="M58.46,89.26a3.69,3.69,0,0,1-2-2.11,5,5,0,0,0,.3-1.57A4.12,4.12,0,0,0,58.46,89.26Z" transform="translate(0 0)"/><path d="M60.64,88.39a2.58,2.58,0,0,1,.33-2,3.42,3.42,0,0,0,1-.51A2.94,2.94,0,0,0,60.64,88.39Z" transform="translate(0 0)"/><path d="M79.22,81.62a2.61,2.61,0,0,1,2,.68,3.43,3.43,0,0,0,.33,1.09A2.94,2.94,0,0,0,79.22,81.62Z" transform="translate(0 0)"/><path d="M32.59,35.42h0c-0.23-.42-0.48-0.8-0.85-0.68h0l-0.63-.94c-0.24-.44.2-1,0.27-1.61a3.27,3.27,0,0,0-.5-1.39c-0.08-.22-0.15-0.44.13-0.54h0.7c0.35,0,.31.17,0.38,0.42,0.18,0.58-.41,1.29-0.43,1.93a1.67,1.67,0,0,0,0,.52c0.15,0.6,1.36.85,1.11,1.71-0.06.21-.1,0.44-0.14,0.66Z" transform="translate(0 0)"/><path d="M30.73,35.56l-0.1-.23C30.49,35,30.32,34.79,30,34.87s-0.09.32,0,.56h0l-0.18-.23c-0.26-.25-0.6-0.44-0.86-0.71A3,3,0,0,1,28.83,33,2.88,2.88,0,0,0,28,32c-0.12-.17-0.24-0.34,0-0.49l0.17-.09,0.18-.09,0.23-.08c0.29-.11.3,0.06,0.44,0.26,0.3,0.44,0,1.2.11,1.76a1.37,1.37,0,0,0,.17.42c0.28,0.48,1.38.38,1.38,1.18v0.66Z" transform="translate(0 0)"/></g></g></g></g></g></svg>