<svg id="Layer_1" data-name="Layer 1" xmlns="http://www.w3.org/2000/svg" viewBox="0 0 105.39 128.76"><title>herb-grodno</title><g id="Document"><g id="Spread"><g id="_001" data-name=" 001"><g id="Group"><path d="M52.62,128.81L50,126.22a30.5,30.5,0,0,0-8.15-5.73l-21.46-10.3A35.9,35.9,0,0,1,0,77.85V64.56l1.2-1.11A14.74,14.74,0,0,0,5.95,52.61,14.75,14.75,0,0,0,1.21,41.79L0,40.68V12l2.19-1a121.49,121.49,0,0,1,101,.08l2.2,1-0.18,28.64-1.2,1.1a14.73,14.73,0,0,0-.86,20.81q0.41,0.45.86,0.86l1.21,1.12V77.79a35.93,35.93,0,0,1-20.35,32.38L63.41,120.48a30.24,30.24,0,0,0-8.16,5.74Z" transform="translate(0 -0.05)"/><path d="M52.62,126.18l-1.32-1.3a32.36,32.36,0,0,0-8.65-6.09L21.18,108.5A34,34,0,0,1,1.88,77.85V65.38l0.6-.56A16.62,16.62,0,0,0,7.82,52.61a16.63,16.63,0,0,0-5.34-12.2l-0.6-.56V13.16l1.1-.5a119.62,119.62,0,0,1,99.44.08l1.1,0.51-0.17,26.62-0.6.55a16.61,16.61,0,0,0-1,23.47q0.46,0.5,1,1l0.6,0.56V77.79a34.06,34.06,0,0,1-19.28,30.69L62.6,118.79a32.1,32.1,0,0,0-8.67,6.09Z" transform="translate(0 -0.05)" style="fill:#fff"/><path d="M52.62,123.55a34.23,34.23,0,0,0-9.16-6.44L22,106.81a32.16,32.16,0,0,1-18.24-29V66.2A18.49,18.49,0,0,0,9.7,52.61,18.5,18.5,0,0,0,3.76,39V14.36a117.74,117.74,0,0,1,97.88.08L101.47,39a18.48,18.48,0,0,0-1.08,26.11q0.52,0.56,1.08,1.08v11.6a32.18,32.18,0,0,1-18.22,29L61.79,117.1A34,34,0,0,0,52.62,123.55Z" transform="translate(0 -0.05)" style="fill:#004aa7"/><g id="Group_1" data-name="Group 1"><g id="Group_2" data-name="Group 2"><path d="M50.32,120.89L50,120.63a34.46,34.46,0,0,0-2.85-2.05l-0.22-.14H58.29l-0.18.11a33.52,33.52,0,0,0-2.86,2.05l-0.35.29H50.32Z" transform="translate(0 -0.05)" style="fill:#ccc;stroke:#000;stroke-miterlimit:79.83999633789062;stroke-width:0.28999999165534973px"/><path d="M42.6,116.09l-5-2.39,15-.09,15,0.09-5,2.39h-20Zm-9.72-4.66L28,109.08h1.1c15.11-.36,32-0.36,47.14,0h1l-4.83,2.32-7.86-.14c-7.9-.08-16-0.07-23.91,0Zm-9-4.31L22,106.2l-1-.54v-22l1.42-1.53,1.51,1.53V86l0.86-.1c15.24-1.75,40.57-1.77,55.76,0l1.58,0.21V83.69l1.43-1.53L85,83.69v21.57l-1.79.94L81.5,107l-5.18-.26c-15-.6-32.6-0.49-47.5.06l-5,.21v0.1h0.06ZM82.1,104.6v-2.19l-2-.15a484.48,484.48,0,0,0-55.07,0l-1.19.07v2.19l5-.22c14.93-.55,32.58-0.56,47.49,0Zm0-4.63V97.78l-1.84-.18c-16.1-1.41-39.34-1.15-55.3.06l-1.07.08v2.18l1.2-.08a506.71,506.71,0,0,1,55.08,0Zm0-4.62v-2.2l-1.73-.21c-15.7-1.69-40-1.37-55.53.07l-1,.09v2.18L25,95.2a405.59,405.59,0,0,1,55.3,0Zm0-4.62v-2.2l-1.62-.24c-15.31-2-40.64-1.61-55.76.08l-0.83.11v2.18l1-.1a341.21,341.21,0,0,1,55.53,0Z" transform="translate(0 -0.05)" style="fill:#ccc;stroke:#000;stroke-miterlimit:79.83999633789062;stroke-width:0.28999999165534973px"/><path d="M31.15,85.32v-3l1.42-1.53,1.5,1.53v2.79l-1.51.1Z" transform="translate(0 -0.05)" style="fill:#ccc;stroke:#000;stroke-miterlimit:79.83999633789062;stroke-width:0.28999999165534973px"/><path d="M31.15,94.8v-7l1.33-.1,1.6-.1v7.08L33,94.7l-1.67.08H31.15v0Z" transform="translate(0 -0.05)" style="fill:#ccc;stroke:#000;stroke-miterlimit:79.83999633789062;stroke-width:0.28999999165534973px"/><path d="M31.15,104.27v-7h0.11l1.66-.08,1.16-.06v7.07H31.72Z" transform="translate(0 -0.05)" style="fill:#ccc;stroke:#000;stroke-miterlimit:79.83999633789062;stroke-width:0.28999999165534973px"/><path d="M34.08,112l-2.93-1.41v-3.87h3V112h0Z" transform="translate(0 -0.05)" style="fill:#ccc;stroke:#000;stroke-miterlimit:79.83999633789062;stroke-width:0.28999999165534973px"/><path d="M51.53,84.6V80.24L53,78.71l1.51,1.53V84.6h-3Z" transform="translate(0 -0.05)" style="fill:#ccc;stroke:#000;stroke-miterlimit:79.83999633789062;stroke-width:0.28999999165534973px"/><path d="M51.53,94.27V87h2.94v7.31H51.53v0Z" transform="translate(0 -0.05)" style="fill:#ccc;stroke:#000;stroke-miterlimit:79.83999633789062;stroke-width:0.28999999165534973px"/><path d="M51.53,103.94V96.66h2.94v7.29H51.53Z" transform="translate(0 -0.05)" style="fill:#ccc;stroke:#000;stroke-miterlimit:79.83999633789062;stroke-width:0.28999999165534973px"/><path d="M51.53,113.6v-7.25h2.94v7.25H51.53Z" transform="translate(0 -0.05)" style="fill:#ccc;stroke:#000;stroke-miterlimit:79.83999633789062;stroke-width:0.28999999165534973px"/><path d="M52.62,122.95c-0.33-.33-0.67-0.64-1-1l-0.08-.06V116h2.94v5.22l-0.3.25Q53.37,122.2,52.62,122.95Z" transform="translate(0 -0.05)" style="fill:#ccc;stroke:#000;stroke-miterlimit:79.83999633789062;stroke-width:0.28999999165534973px"/><path d="M41.34,89.59V81.42l1.42-1.53,1.51,1.53v8.09H43.36l-1.82.05h-0.2v0Z" transform="translate(0 -0.05)" style="fill:#ccc;stroke:#000;stroke-miterlimit:79.83999633789062;stroke-width:0.28999999165534973px"/><path d="M41.34,99.22V92h2.92v7.23H41.34Z" transform="translate(0 -0.05)" style="fill:#ccc;stroke:#000;stroke-miterlimit:79.83999633789062;stroke-width:0.28999999165534973px"/><path d="M41.34,108.84v-7.18h2.93v7.21H43.66Z" transform="translate(0 -0.05)" style="fill:#ccc;stroke:#000;stroke-miterlimit:79.83999633789062;stroke-width:0.28999999165534973px"/><path d="M44.27,116.91l-0.17-.09-0.64-.31-2.12-1v-4.22h2.93v5.62Z" transform="translate(0 -0.05)" style="fill:#ccc;stroke:#000;stroke-miterlimit:79.83999633789062;stroke-width:0.28999999165534973px"/><path d="M64.66,89.61h-0.9l-1.82-.05H61.73V81.42l1.43-1.53,1.5,1.53V89.6h0Z" transform="translate(0 -0.05)" style="fill:#ccc;stroke:#000;stroke-miterlimit:79.83999633789062;stroke-width:0.28999999165534973px"/><path d="M64.66,99.23H61.73V91.88h2.94v7.35Z" transform="translate(0 -0.05)" style="fill:#ccc;stroke:#000;stroke-miterlimit:79.83999633789062;stroke-width:0.28999999165534973px"/><path d="M64.59,108.84H61.73v-7.26h2.93v7.24H64.59v0Z" transform="translate(0 -0.05)" style="fill:#ccc;stroke:#000;stroke-miterlimit:79.83999633789062;stroke-width:0.28999999165534973px"/><path d="M61.73,116.53v-5.31h2.93v3.88l-2.87,1.37Z" transform="translate(0 -0.05)" style="fill:#ccc;stroke:#000;stroke-miterlimit:79.83999633789062;stroke-width:0.28999999165534973px"/><path d="M74.84,85.36H74.38l-1.65-.12H71.91V82.33l1.43-1.53,1.5,1.53v3Z" transform="translate(0 -0.05)" style="fill:#ccc;stroke:#000;stroke-miterlimit:79.83999633789062;stroke-width:0.28999999165534973px"/><path d="M74.84,94.84H74l-1.66-.09H71.92v-7.2l0.73,0.05,1.67,0.13h0.53v7.11Z" transform="translate(0 -0.05)" style="fill:#ccc;stroke:#000;stroke-miterlimit:79.83999633789062;stroke-width:0.28999999165534973px"/><path d="M74.84,104.29H71.92V97h0.34l1.67,0.08,0.92,0.07v7.14Z" transform="translate(0 -0.05)" style="fill:#ccc;stroke:#000;stroke-miterlimit:79.83999633789062;stroke-width:0.28999999165534973px"/><path d="M71.92,111.64v-5H72.1l1.43,0.05h1.32v3.53Z" transform="translate(0 -0.05)" style="fill:#ccc;stroke:#000;stroke-miterlimit:79.83999633789062;stroke-width:0.28999999165534973px"/></g><g id="Group_3" data-name="Group 3"><path d="M6.65,86.9A24,24,0,0,0,6.79,81c1.62-2.16,2.09-4.48,2.64-7.35-0.23-3.13,0-5,3.13-6.17,6-1.13,8.28-2.77,9-4.62L25,66.53a5.63,5.63,0,0,0-3.63,2,7.66,7.66,0,0,0-7,1.41,11.74,11.74,0,0,0-4.4,8.43C10.66,82.07,10,85.12,6.65,86.9Z" transform="translate(0 -0.05)" style="fill:#ffbf00;stroke:#000;stroke-linejoin:bevel;stroke-width:0.28999999165534973px"/><path d="M10.11,89.78H9.7C9.28,84.9,14,80,14.23,73.78c0.83-3.21,3.71-.72,5.55-1.17,1.67-2.08,4.46-2.89,8.42-2.33-1.52-2.47-6-3.8-6.93-6.86-0.34-.78,0-1.55-0.28-2.21a15.19,15.19,0,0,0-1.24-1.35,2.92,2.92,0,0,1-.64-1.54c0-.57.67-1,0.83-1.51,0.51-1.79-.39-3.85.28-5.58,0.75-1.94,3.07-3,3.93-4.85a5.37,5.37,0,0,0,.36-2.09c0-.8-0.31-1.59-0.27-2.4a5.78,5.78,0,0,1,.45-2.22,9.83,9.83,0,0,1,1.36-1.73,0.69,0.69,0,0,0,.32-0.4c-2.42-.52-4.46,1.75-6.84.69a2.93,2.93,0,0,1-1.11-1.06,3.74,3.74,0,0,1-.79-1.26,1.88,1.88,0,0,1,0-1.63c0.28-.34.88-0.13,1.29-0.28a5.5,5.5,0,0,0,1.63-.79,9.83,9.83,0,0,0,1.25-1.46c0.33-.38.65-0.77,1-1.13a6.71,6.71,0,0,1,.84-0.84,5.41,5.41,0,0,1,1.56-1,7.66,7.66,0,0,1,2.16-.22,1.27,1.27,0,0,0,.88-0.21,4.24,4.24,0,0,1-.83-1,5,5,0,0,1-.58-1.61,1.27,1.27,0,0,1,0-.75,0.83,0.83,0,0,1,.69-0.52c0.47,0.07.6,0.55,0.85,1.15a3.85,3.85,0,0,0,1.31,1.93,1.44,1.44,0,0,0,.79.28,1.88,1.88,0,0,0,.93-0.35,12.64,12.64,0,0,0,2.88-2.63c1.17-1.37,1.78-3.17,3-4.54a3.23,3.23,0,0,1,1.23-1.11,1.62,1.62,0,0,1,1.2,0c1.43,0.69-.72,2.09-1.2,4.23,2.26,0,4.41-.24,5.85-0.16,0.44-1,2-5,4-4.86a0.75,0.75,0,0,1,.54.7c0.08,1.61-1.68,2.41-2.58,4.13,1.43,0.06,2.55.24,3.61-.34,2.33-1.29,2.74-4.75,4.9-6.3a1.65,1.65,0,0,1,1-.37,1,1,0,0,1,.81.46,2,2,0,0,1-.38,1.43,11.14,11.14,0,0,1-2.61,4,4.8,4.8,0,0,0,2.5-.73c1.2-.71,2.18-1.9,3.4-2.69a0.6,0.6,0,0,1,.69.1,1.12,1.12,0,0,1,0,1.09c-0.73,1.79-2.59,3-4.23,4a8.26,8.26,0,0,1-2.77,1c-4.79.86-8.48,0.22-14.61,0.16a6.44,6.44,0,0,0-3.49.68c-1,.68-2.09,1.88-1.83,3a1.07,1.07,0,0,0,1.07.74L52.64,30l0.09-3h1.38L54,30l3,0.28v1.39l-2.83-.08-0.1,3H52.68l0.09-3L34.38,31l0.12,0.33a2.06,2.06,0,0,0,.15.29,2.73,2.73,0,0,0,1.39.75,8,8,0,0,0,2,.48,20.25,20.25,0,0,0,2.51-.06c0.53,0,1.18-.37,1.59,0a0.63,0.63,0,0,1,.16.68,1.3,1.3,0,0,1-.84.47c-0.42.17-1.17-.08-1.34,0.34-0.26.7,0.7,1.35,1.23,1.87a7.69,7.69,0,0,0,2.06,1.29,3.83,3.83,0,0,0,1,.34,4.12,4.12,0,0,0,1.22,0,5.81,5.81,0,0,0,1-.31,1,1,0,0,1,.39-0.16,2.22,2.22,0,0,1,1.18.79,0.71,0.71,0,0,1,.33.52c-0.21.89-2.94,1.37-3,1.59-0.1.8,2.76,2.14,3.25,2.36a2.39,2.39,0,0,0,1.2.14c1.36-.15,2.54-1.08,3.89-1.32a6.37,6.37,0,0,1,1.91,0,1.15,1.15,0,0,1,.66.23,0.25,0.25,0,0,1,0,.25,1.67,1.67,0,0,1-1.07.27,10.38,10.38,0,0,0-1.15.34,4.25,4.25,0,0,0-.7.36,4.77,4.77,0,0,0-1,.66,0.78,0.78,0,0,0-.22.34,0.36,0.36,0,0,0,0,.27,2.53,2.53,0,0,0,1.29,1.09,5.09,5.09,0,0,0,1.36.23,7.68,7.68,0,0,1,.82.11c0.28,0,.68.06,1,0.07h1.93c0.34,0,.86-0.31,1,0s-0.42.75-.77,1a4.25,4.25,0,0,1-1.73.41A7.3,7.3,0,0,1,56,47a9.64,9.64,0,0,1-1.36-.16,9.53,9.53,0,0,1-1.3-.34c-0.61-.21-1.19-0.52-1.79-0.78s-1-1-1.54-.68A1.08,1.08,0,0,0,50,46c0,0.33.31,0.82,0,1s-0.61-.61-1-0.89a34,34,0,0,1-3.74-3.31c-1.26-1.31-2.17-2.91-3.41-4.22a24.66,24.66,0,0,0-2.79-2.51,9.69,9.69,0,0,0-2.51-1.76c-0.69-.25-1.75-0.81-2.2-0.22-0.82,1,1.31,1.5,1.62,3.69a0.94,0.94,0,0,1-.4,1c-1.11.27-.88-3-2-2.79-0.45.1-.29,0.88-0.25,1.34,0.11,1.38,1.13,2.56,1.41,3.93a12.87,12.87,0,0,1,.23,4,18.2,18.2,0,0,1-1.7,5.63C35,51.19,38,49,40.49,48.88s5.08,1.07,7.62,1.47a54.36,54.36,0,0,0,7,.84,63.88,63.88,0,0,0,10.47-.72c1.27-.18,2.49-1,3.76-0.82,0.69,0.1,1.15.91,1.83,1,1.19,0.22,1.88-.4,2.86-0.73,3.32-1.11,7,1,8.47,4.24-2.34-2-4-2.86-4.92-2.44,2.06,1.5,3,3.94,3.56,6.84,0.75,3.67,2.36,9.7,9.12,8.93a3.22,3.22,0,0,1,2.13.32c1,0.87.48,2.57,1,3.76a5.91,5.91,0,0,0,1,1.49,7.34,7.34,0,0,0,1.49,1.27,6.22,6.22,0,0,1,1.54.82,1.38,1.38,0,0,1,.27,1.09c-0.17.76-1.29,1-1.49,1.78a1.25,1.25,0,0,0,.16,1c0.34,0.54,1.21.59,1.56,1.13a2.92,2.92,0,0,1,.32,1.47A7.21,7.21,0,0,1,98,83.37c-0.09.48,0,1.2-.43,1.41a1.44,1.44,0,0,1-1.29-.62,3.6,3.6,0,0,1-.7-1.42A11,11,0,0,1,95.16,81c-0.19-1.08.05-2.26-.38-3.27-0.84-4.85-3.39-7.69-5.92-7,0,4.4,6.08,7.49,5.38,12.18-0.23.57-1.31,0.24-1.7,0.71,4.4,4.33.35,6.84-1,4.17C92,80.21,90.74,76.43,86.82,74c-2.61-1.65-4.26-1-9.61-3a19.28,19.28,0,0,1-10.26-8.8c-5.63.31-3.31,4.54-15.57,4.52-5.77,0-7.47,3.35-11.45,4.11-2.34.44-5,1-7.13,0.23,0.33,3.77-1,4.11-3.13,4.42a78.23,78.23,0,0,0-11.84-1.2c-1.46,0-2.67.44-3,3.26-0.16,2.2,1.25,8.24-2.27,7.29C13.27,88.48,12.06,89.76,10.11,89.78Z" transform="translate(0 -0.05)" style="fill:#ffbf00;stroke:#000;stroke-miterlimit:79.83999633789062;stroke-width:0.28999999165534973px"/><path d="M25.81,33.43a1.44,1.44,0,0,1-1.34-.92c0.39-.72,1.35-0.71,2.67-0.24A2.3,2.3,0,0,1,25.81,33.43Z" transform="translate(0 -0.05)"/><path d="M24.09,32.59c0.86-1.58,2.37-1.5,4.28-.4A4.71,4.71,0,0,0,24.09,32.59Z" transform="translate(0 -0.05)"/><path d="M33.47,47.64c0.86-4.85.18-7.43-1.83-9.16C33.66,39.34,35,43.08,33.47,47.64Z" transform="translate(0 -0.05)"/><path d="M33,49.62a9.36,9.36,0,0,0-.25-5C33.71,45.62,33.66,47.39,33,49.62Z" transform="translate(0 -0.05)"/><path d="M36,52.7c-1.29-.67-1.07-1.47,1.44-2.3C35.82,51.18,35.46,52,36,52.7Z" transform="translate(0 -0.05)"/><path d="M37.7,52.74c-1.35-1.48-.45-2.76,2.23-3.37C37.87,50,37.3,51.49,37.7,52.74Z" transform="translate(0 -0.05)"/><path d="M39.17,52.49c-0.84-2.11.17-3.24,3.73-3C39.8,49.67,39.16,50.82,39.17,52.49Z" transform="translate(0 -0.05)"/><path d="M40.59,51.79c0-1.68,1.54-2.32,4-1.54C42.69,50,41,50.71,40.59,51.79Z" transform="translate(0 -0.05)"/><path d="M42.79,51.42c0.44-1,2.24-1.25,3.52-.66C45.22,50.6,43.38,50.78,42.79,51.42Z" transform="translate(0 -0.05)"/><path d="M42.08,69.18c1.41-1.62,1.83-3.32.91-5.1C45.12,65.83,44.47,67.52,42.08,69.18Z" transform="translate(0 -0.05)"/><path d="M44.5,67.81a3.28,3.28,0,0,0,.7-3.93C46.85,65.22,46.35,66.53,44.5,67.81Z" transform="translate(0 -0.05)"/><path d="M46,66.9a3.29,3.29,0,0,0,2.07-3.42C49.14,65.32,48.21,66.36,46,66.9Z" transform="translate(0 -0.05)"/><path d="M48.63,66.11a2.4,2.4,0,0,0,1.06-2.72C50.69,64.59,50.13,65.45,48.63,66.11Z" transform="translate(0 -0.05)"/><path d="M30.11,59.47c0.29-2.53,1.79-3.37,4.13-3.12C32.1,56.57,30.65,57.53,30.11,59.47Z" transform="translate(0 -0.05)"/><path d="M29.94,57.71c-0.79-4.45.22-7,2.45-8.41C30.55,51.34,29.62,54,29.94,57.71Z" transform="translate(0 -0.05)"/><path d="M30.29,58.63c-1.16-2.25-.38-3.79,1.69-4.89C30.33,55.12,29.66,56.72,30.29,58.63Z" transform="translate(0 -0.05)"/><path d="M28.29,70.32c-1.77-1.67-2.26-3.36-.67-5.1A5.39,5.39,0,0,0,28.29,70.32Z" transform="translate(0 -0.05)"/><path d="M32.75,71a6.39,6.39,0,0,0,1.07-4.93C34.8,68.3,34.25,69.87,32.75,71Z" transform="translate(0 -0.05)"/><path d="M85.22,71.94a22.35,22.35,0,0,1-3.66-.73l-0.13-.06-2-.42c-5.29-1.82-8.95-5.32-10.54-9.46a22.83,22.83,0,0,0,8.46,8.18l4.11,1.7Z" transform="translate(0 -0.05)"/><path d="M75.07,67.25c-2.73-1.5-2.88-3.64-1.35-6.25C72.84,63.6,73.15,65.73,75.07,67.25Z" transform="translate(0 -0.05)"/><path d="M76.46,68.33c-2.37-1.16-2.59-3-1.4-5.24C74.42,65.32,74.76,67.12,76.46,68.33Z" transform="translate(0 -0.05)"/><path d="M77.79,69.27c-2-.83-2.29-2.29-1.44-4.23C75.95,66.91,76.33,68.37,77.79,69.27Z" transform="translate(0 -0.05)"/><path d="M79.26,69.94c-1.65-.48-2-1.61-1.49-3.21A2.84,2.84,0,0,0,79.26,69.94Z" transform="translate(0 -0.05)"/><path d="M80.37,70.46c-1.29-.14-1.7-0.94-1.53-2.19A2.16,2.16,0,0,0,80.37,70.46Z" transform="translate(0 -0.05)"/><path d="M65.76,61.46c-1-.11-1.55-0.71-1.36-2A2.63,2.63,0,0,0,67,61.4,4.87,4.87,0,0,1,65.76,61.46Z" transform="translate(0 -0.05)"/><path d="M63.94,61.25A1.25,1.25,0,0,1,63.29,60a2,2,0,0,0,2.22,1.07A2.28,2.28,0,0,1,63.94,61.25Z" transform="translate(0 -0.05)"/><path d="M63,62a1.24,1.24,0,0,1-1-.89,2,2,0,0,0,2.47.2A2.31,2.31,0,0,1,63,62Z" transform="translate(0 -0.05)"/><path d="M61.83,62.58A1.17,1.17,0,0,1,60.72,62a2.86,2.86,0,0,0,2.56-.16A3.2,3.2,0,0,1,61.83,62.58Z" transform="translate(0 -0.05)"/><path d="M31.15,31.64c-2.48-1.19-4.7-1.35-6.54-.08C26.36,29.84,28.63,30,31.15,31.64Z" transform="translate(0 -0.05)"/><path d="M29,39.74c-1.19-1.88-3.29-2.61-6-2.5C25.89,36.74,28.06,37.48,29,39.74Z" transform="translate(0 -0.05)"/><path d="M23.68,51.43c-1.59-2-1.14-3.63.67-5.13C23,48,22.68,49.7,23.68,51.43Z" transform="translate(0 -0.05)"/></g></g></g></g></g></g></svg>