<svg id="Layer_1" data-name="Layer 1" xmlns="http://www.w3.org/2000/svg" viewBox="0 0 105 130.51"><title>herb-bobruisk</title><g id="Document"><g id="Spread"><g id="_001" data-name=" 001"><g id="Group"><path d="M52.52,130.51l-3.12-4.68c-3.41-5.12-8.65-9.06-18.58-9.06H15.24C6.92,116.77,0,114.2,0,100.52V0H105V100.52c0,13.69-6.93,16.26-15.24,16.26H74.22c-9.94,0-15.17,3.93-18.58,9.06Z" transform="translate(0 0)"/><path d="M52.52,127.13L51,124.79c-3.75-5.63-9.56-9.89-20.14-9.89H15.24c-7.36,0-13.37-1.83-13.37-14.38V1.88H103.15v98.64c0,12.56-6,14.38-13.36,14.38H74.22c-10.59,0-16.39,4.26-20.14,9.89Z" transform="translate(0 0)" style="fill:#fff"/><path d="M52.52,123.75C48.43,117.62,42,113,30.82,113H15.24c-6.64,0-11.49-1.27-11.49-12.51V3.75h97.53v96.77c0,11.24-4.85,12.51-11.49,12.51H74.22C63,113,56.6,117.62,52.52,123.75Z" transform="translate(0 0)" style="fill:#e5e5e5"/><g id="Group_1" data-name="Group 1"><path d="M64.26,114.57L57.44,76.25l1.09-.2,6.79,38.2V114.2l-1.07.34h0v0Zm-27.48-1.06v0.06L43.46,76l1.09,0.2-6.69,37.51h0Zm34.6-.34L52.45,41.54l1.2-.32,19,71.89v-0.05l-1.27.07h0v0ZM30.82,113H29.76l19-71.8L50,41.54,31,113H30.82Zm-7.76,0L50,27.34l1.2,0.38L24.38,113H23.06Zm55.14,0L51.35,27.72l1.2-.38,27,85.69H78.2v0Z" transform="translate(0 0)" style="fill:#ff7f00"/><path d="M52.09,27.65a2.12,2.12,0,0,1-1.86-1.47L50.14,26V25.31c0.09-4.61.16-7.95,0.21-10.74V14.33l0.18-.08a1.76,1.76,0,0,1,1.26-.06L52,14.26v0.37c0.06,3,.15,6.67.26,11.88v1.12H52.09v0Z" transform="translate(0 0)" style="stroke:#000;stroke-miterlimit:79.83999633789062;stroke-width:0.550000011920929px"/><path d="M52.09,27.65a2.12,2.12,0,0,1-1.86-1.47L50.14,26V25.31c0.09-4.61.16-7.95,0.21-10.74V14.33l0.18-.08a1.76,1.76,0,0,1,1.26-.06L52,14.26v0.37c0.06,3,.15,6.67.26,11.88v1.12H52.09v0Z" transform="translate(0 0)" style="fill:#cb6c38"/><path d="M50.34,26.4V26.31a2.53,2.53,0,0,1-.13-0.25h0l0.23-11.69H50.6Z" transform="translate(0 0)" style="fill:#fcab4b"/><path d="M50.55,26.73l0-.08-0.07-.11V26.47l0.19-12.22h0.09Z" transform="translate(0 0)" style="fill:#fcab4b"/><path d="M50.76,27l-0.06-.06-0.06-.09h0L50.77,14.2h0.1Z" transform="translate(0 0)" style="fill:#fcab4b"/><path d="M51,27.22h0l-0.07-.07h0l0.06-13h0V27.22Z" transform="translate(0 0)" style="fill:#fcab4b"/><path d="M51.2,27.38H51.13V14.11h0Z" transform="translate(0 0)" style="fill:#fcab4b"/><path d="M51.42,27.5h0l-0.1-13.39h0Z" transform="translate(0 0)" style="fill:#fcab4b"/><path d="M53,37.54l-3.88-1.39,0.29-11a3.18,3.18,0,0,1,3.47.23Z" transform="translate(0 0)" style="fill:#cb6c38;stroke:#000;stroke-linejoin:bevel;stroke-width:0.27000001072883606px"/><path d="M53,38.43A5.33,5.33,0,0,1,49.19,37L49,36.81v-0.7c0.19-4.61.33-7.94,0.44-10.74V25.13L49.85,25a7.09,7.09,0,0,1,2.61,0l0.3,0.07v0.38c0.14,3,.31,6.66.55,11.87l0,1.12H53Z" transform="translate(0 0)" style="stroke:#000;stroke-miterlimit:79.83999633789062;stroke-width:0.550000011920929px"/><path d="M53,38.43A5.33,5.33,0,0,1,49.19,37L49,36.81v-0.7c0.19-4.61.33-7.94,0.44-10.74V25.13L49.85,25a7.09,7.09,0,0,1,2.61,0l0.3,0.07v0.38c0.14,3,.31,6.66.55,11.87l0,1.12H53Z" transform="translate(0 0)" style="fill:#cb6c38"/><path d="M49.43,37.18l-0.11-.09L49,36.83h0l0.5-11.7h0.32Z" transform="translate(0 0)" style="fill:#fcab4b"/><path d="M49.86,37.51l-0.11-.07-0.14-.11-0.08-.07L49.9,25h0.26Z" transform="translate(0 0)" style="fill:#fcab4b"/><path d="M50.3,37.79l-0.12-.07L50,37.63h0L50.28,25h0.19Z" transform="translate(0 0)" style="fill:#fcab4b"/><path d="M50.74,38H50.68l-0.14-.07h0l0.13-13h0.16Z" transform="translate(0 0)" style="fill:#fcab4b"/><path d="M51.19,38.17l-0.14,0V24.9h0.11Z" transform="translate(0 0)" style="fill:#fcab4b"/><path d="M51.64,38.28H51.57L51.43,24.89h0Z" transform="translate(0 0)" style="fill:#fcab4b"/><path d="M54.58,60.63a10,10,0,0,1-7.13-2.73l-0.3-.31,0-1.3c0.35-8.61.6-14.83,0.82-20V35.81l0.65-.13a13.24,13.24,0,0,1,4.86-.12l0.55,0.13v0.7c0.26,5.64.58,12.45,1,22.18l0.1,2.1h-0.7Z" transform="translate(0 0)" style="stroke:#000;stroke-miterlimit:79.83999633789062;stroke-width:0.550000011920929px"/><path d="M54.58,60.63a10,10,0,0,1-7.13-2.73l-0.3-.31,0-1.3c0.35-8.61.6-14.83,0.82-20V35.81l0.65-.13a13.24,13.24,0,0,1,4.86-.12l0.55,0.13v0.7c0.26,5.64.58,12.45,1,22.18l0.1,2.1h-0.7Z" transform="translate(0 0)" style="fill:#cb6c38"/><path d="M47.89,58.29l-0.18-.16-0.52-.49v0L48,35.76l0.24,0,0.35-.07Z" transform="translate(0 0)" style="fill:#fcab4b"/><path d="M48.7,58.92l-0.21-.15-0.26-.19-0.16-.14,0.69-22.82,0.34-.07h0.14Z" transform="translate(0 0)" style="fill:#fcab4b"/><path d="M49.52,59.42l-0.23-.12L49,59.13h0L49.48,35.5h0.36Z" transform="translate(0 0)" style="fill:#fcab4b"/><path d="M50.35,59.82h-0.1L50,59.65h0L50.2,35.4h0.29Z" transform="translate(0 0)" style="fill:#fcab4b"/><path d="M51.19,60.13L50.93,60h0V35.35h0.19Z" transform="translate(0 0)" style="fill:#fcab4b"/><path d="M52,60.35H51.87l-0.27-25h0.1Z" transform="translate(0 0)" style="fill:#fcab4b"/><path d="M42.31,115.11h0l2.1-46.81V68h0.27l12.5,0.43h0.26v0.26L59.21,117h0a23.45,23.45,0,0,0-6.69,6.78A22.72,22.72,0,0,0,42.31,115.11Z" transform="translate(0 0)"/><path d="M42.87,115.36l0.25-6.63c0.64-16.51,1.13-29.35,1.56-40.41l12.5,0.45c0.39,12.83.85,28.05,1.48,48.58a23.7,23.7,0,0,0-6.15,6.41A22.73,22.73,0,0,0,42.87,115.36Z" transform="translate(0 0)" style="fill:#cb6c38"/><g id="Group_2" data-name="Group 2"><path d="M42.88,115.36l1.8-47H45.9l-1.52,47.75Q43.66,115.72,42.88,115.36Z" transform="translate(0 0)" style="fill:#fcab4b"/><path d="M44.73,116.3l1.44-47.93h1L46,117.08Z" transform="translate(0 0)" style="fill:#fcab4b"/><path d="M46.57,117.49l1.09-49.06h0.8l-0.88,49.8C47.25,118,46.92,117.74,46.57,117.49Z" transform="translate(0 0)" style="fill:#fcab4b"/><path d="M48.43,119l0.7-50.5h0.6l-0.54,51.2h0C49,119.46,48.69,119.22,48.43,119Z" transform="translate(0 0)" style="fill:#fcab4b"/><path d="M50.31,120.87h0l0.31-52.36H51l-0.19,52.93Z" transform="translate(0 0)" style="fill:#fcab4b"/><path d="M52.22,123.31h0L52.09,68.58h0.19l0.19,55.1Z" transform="translate(0 0)" style="fill:#fcab4b"/></g><g id="Group_3" data-name="Group 3"><path d="M93.79,112.73L21.39,41.14C19,38.82,24.28,33.77,27,34.43l1,0.63,71.35,74.37a7.63,7.63,0,0,1-5.57,3.33v0Z" transform="translate(0 0)"/><path d="M94.2,112.68L21.58,40.86c-2.35-2.31,4.28-8.14,6.17-5.63l71.42,74.44h0a7.53,7.53,0,0,1-5,3h0Z" transform="translate(0 0)" style="fill:#cb6c38"/><path d="M98.92,110L26.49,34.68h0.35a1.55,1.55,0,0,1,.91.58l71.42,74.43h0L99,110H98.92Z" transform="translate(0 0)" style="fill:#fcab4b"/><path d="M98.5,110.43L25.39,34.85l0.25-.11h0.6L98.83,110.1l0.05,0.06-0.33.37Z" transform="translate(0 0)" style="fill:#fcab4b"/><path d="M98.08,110.91L24.49,35.24,25.06,35l73.3,75.61h0l-0.3.27h0Z" transform="translate(0 0)" style="fill:#fcab4b"/><path d="M97.56,111.27L23.72,35.75l0.35-.26L97.82,111.1h0l-0.25.18h0Z" transform="translate(0 0)" style="fill:#fcab4b"/><path d="M97,111.61L23,36.32l0.07-.07,0.16-.11,74,75.37v0.05l-0.17.1Z" transform="translate(0 0)" style="fill:#fcab4b"/><path d="M96.47,112L22.37,37l0.1-.1,74.09,75h-0.1V112Z" transform="translate(0 0)" style="fill:#fcab4b"/></g><g id="Group_4" data-name="Group 4"><path d="M4.56,107h0L74.23,34.2l0.17-.08c1-.27,4,2.65,4.19,4l-0.12.62-67.15,74h0A7.61,7.61,0,0,1,4.56,107Z" transform="translate(0 0)"/><path d="M4.66,107.37h0l69.77-73c0.58-.47,3.67,2.37,3.89,3.69l-0.1.46L11,112.7h0A7.5,7.5,0,0,1,4.66,107.37Z" transform="translate(0 0)" style="fill:#cb6c38"/><path d="M4.65,107.34h0L74.39,34.42a0.44,0.44,0,0,1,.4,0l0.09,0-70,73.37h0A1.93,1.93,0,0,1,4.65,107.34Z" transform="translate(0 0)" style="fill:#fcab4b"/><path d="M4.94,108.08L5,108,75,34.5l0.39,0.2h0.06l-70.14,74-0.05.05A3,3,0,0,1,4.94,108.08Z" transform="translate(0 0)" style="fill:#fcab4b"/><path d="M5.43,109.08h0l70.2-74.16,0.3,0.26L5.76,109.56h0A2.72,2.72,0,0,1,5.43,109.08Z" transform="translate(0 0)" style="fill:#fcab4b"/><path d="M6,110v-0.05L76.19,35.39l0.23,0.19L6.36,110.25l-0.05.06Z" transform="translate(0 0)" style="fill:#fcab4b"/><path d="M6.74,110.75h0l70-74.85L76.88,36h0L7,110.94H7Z" transform="translate(0 0)" style="fill:#fcab4b"/><path d="M7.57,111.42h0l69.66-75,0.06,0.07L7.73,111.43v0.05Z" transform="translate(0 0)" style="fill:#fcab4b"/></g></g></g></g></g></g></svg>