<svg id="Layer_1" data-name="Layer 1" xmlns="http://www.w3.org/2000/svg" viewBox="0 0 105.57 128.97"><title>herb-brest</title><g id="Document"><g id="Spread"><g id="_001" data-name=" 001"><g id="Group"><path d="M52.71,129l-2.63-2.59a30.66,30.66,0,0,0-8.16-5.74l-21.5-10.32A36,36,0,0,1,0,78V64.67l1.21-1.11A14.75,14.75,0,0,0,6,52.7,14.76,14.76,0,0,0,1.22,41.86L0,40.74V12l2.2-1a121.72,121.72,0,0,1,101.17.08l2.2,1-0.18,28.69-1.2,1.1a14.77,14.77,0,0,0-.85,20.87q0.41,0.44.85,0.85l1.21,1.11V77.92A36,36,0,0,1,85,110.35L63.52,120.68a30.3,30.3,0,0,0-8.18,5.74Z" transform="translate(0 -0.03)"/><path d="M52.7,126.38l-1.32-1.3A32.54,32.54,0,0,0,42.72,119l-21.5-10.32A34.1,34.1,0,0,1,1.88,78V65.49l0.6-.56A16.62,16.62,0,0,0,7.84,52.7,16.63,16.63,0,0,0,2.49,40.48l-0.6-.56V13.17l1.1-.5a119.84,119.84,0,0,1,99.61.08l1.1,0.5-0.17,26.66-0.6.55A16.64,16.64,0,0,0,102,64q0.46,0.5,1,1l0.6,0.56V77.92a34.1,34.1,0,0,1-19.31,30.74L62.71,119A32.19,32.19,0,0,0,54,125.1Z" transform="translate(0 -0.03)" style="fill:#fff"/><path d="M52.7,123.75a34.41,34.41,0,0,0-9.17-6.45L22,107A32.23,32.23,0,0,1,3.75,78V66.31a18.5,18.5,0,0,0,6-13.61,18.51,18.51,0,0,0-6-13.6V14.38a118,118,0,0,1,98.05.08l-0.16,24.63a18.52,18.52,0,0,0-1.06,26.17q0.51,0.55,1.06,1.06v11.6A32.23,32.23,0,0,1,83.4,107L61.9,117.3A34,34,0,0,0,52.7,123.75Z" transform="translate(0 -0.03)" style="fill:#004aa7"/><g id="Group_1" data-name="Group 1"><path d="M52.78,107.4L19.18,75.35a7.75,7.75,0,0,1-2.54,0C14,74.9,11.67,73,11.73,70c0.13-7,7.84-6.25,8.71-4.72l0.19,0.33-0.37-.05c-2.71-.37-4.42.71-4.46,2.72,0,2.49,1.58,3,3.06,3,2.86,0,5.49-3.49,6.36-6,2-5.87,2.76-9,5.15-14.36,3-6.78,8.82-8,15-3a11.07,11.07,0,0,0,2.86,1.63L51,50.39V28.55L45.32,31l0.31-.5a57.84,57.84,0,0,0,7-16.23l0.18-.7L53,14.26a57.84,57.84,0,0,0,7,16.23L60.23,31,54.6,28.55V50.39l2.71-.79A11.07,11.07,0,0,0,60.17,48c6.19-5,12-3.78,15,3,2.39,5.34,3.16,8.49,5.15,14.36,0.87,2.53,3.5,6.06,6.36,6,1.48,0,3.1-.55,3.06-3,0-2-1.75-3.1-4.46-2.72l-0.37.05,0.19-.33C86,63.77,93.69,63,93.82,70c0.06,3-2.28,4.88-4.91,5.35a7.75,7.75,0,0,1-2.54,0Zm-4.66-8.16L51,96.42V96.18l-3,3Zm9.32,0,0.12-.11-3-3v0.24Zm-9.5-.17V96.7l3-3V93.45l-3,3V94l3-3V90.72l-3,3V91.24l3-3V88l-3,3V88.52l3-3V55.17A21.54,21.54,0,0,1,44.56,53c-6-2.86-8.76-1.3-10.56,1.72-2.67,4.46-3.33,10.14-6,14.19-1.52,2.71-4.85,4.52-6,5.46Zm9.68,0L83.51,74.35c-1.12-.95-4.44-2.75-6-5.46-2.66-4-3.33-9.72-6-14.19C69.71,51.7,66.9,50.13,61,53a21.54,21.54,0,0,1-6.41,2.16V85.49l3,3V91l-3-3v0.24l3,3v2.49l-3-3V91l3,3v2.5l-3-3v0.24l3,3v2.37Z" transform="translate(0 -0.03)"/><path d="M52.78,107.15l-33.52-32c-3.4.65-7.42-1.3-7.35-5.15,0.13-6.78,7.58-6,8.37-4.63-2.76-.38-4.63.72-4.67,2.9,0,2.64,1.72,3.2,3.24,3.22,3,0,5.66-3.61,6.54-6.14,2-5.88,2.76-9,5.14-14.34,3-6.65,8.62-7.83,14.73-2.93a13.86,13.86,0,0,0,5.88,2.53V28.26L45.8,30.58a58,58,0,0,0,7-16.28,58,58,0,0,0,7,16.28l-5.34-2.32V50.63a13.86,13.86,0,0,0,5.88-2.53C66.4,43.21,72,44.38,75,51c2.39,5.33,3.15,8.46,5.14,14.34,0.88,2.54,3.55,6.19,6.54,6.14,1.52,0,3.28-.58,3.24-3.22,0-2.18-1.91-3.28-4.67-2.9C86.06,64,93.51,63.25,93.64,70c0.07,3.85-3.95,5.8-7.35,5.15ZM48.12,99.5l3-3V95.74l-3,3v-2l3-3V93l-3,3V94l3-3V90.27l-3,3v-2l3-3V87.54l-3,3v-2l3-3V55a22.29,22.29,0,0,1-6.51-2.18c-6-2.89-8.94-1.32-10.8,1.79-2.87,4.8-3.17,9.9-6,14.18-1.82,2.76-3.47,3.62-6.1,5.55Zm9.31,0L83.8,74.33c-2.63-1.92-4.28-2.78-6.1-5.55-2.81-4.28-3.12-9.37-6-14.18-1.86-3.11-4.78-4.68-10.8-1.79A22.29,22.29,0,0,1,54.4,55V85.57l3,3v2l-3-3V88.3l3,3v2l-3-3V91l3,3v2l-3-3v0.77l3,3v2l-3-3V96.5Z" transform="translate(0 -0.03)" style="fill:#e5e5e5"/></g></g></g></g></g></svg>