<svg id="Layer_1" data-name="Layer 1" xmlns="http://www.w3.org/2000/svg" viewBox="0 0 105.57 128.97"><title>herb-vitebsk</title><g id="Document"><g id="Spread"><g id="_001" data-name=" 001"><g id="Group"><path d="M52.7,129l-2.63-2.6a30.67,30.67,0,0,0-8.16-5.75l-21.5-10.31A36,36,0,0,1,0,78V64.67l1.21-1.11A14.76,14.76,0,0,0,6,52.69,14.76,14.76,0,0,0,1.22,41.86L0,40.74V12l2.2-1a121.71,121.71,0,0,1,101.17.08l2.2,1-0.19,28.68-1.2,1.1a14.78,14.78,0,0,0-.85,20.88q0.41,0.44.85,0.85l1.21,1.12V77.94A36,36,0,0,1,85,110.34L63.5,120.67a30.17,30.17,0,0,0-8.18,5.75Z" transform="translate(0 -0.03)"/><path d="M52.7,126.38l-1.32-1.3a32.52,32.52,0,0,0-8.67-6.1l-21.5-10.31A34.09,34.09,0,0,1,1.88,78V65.49l0.6-.56A16.63,16.63,0,0,0,7.84,52.69,16.64,16.64,0,0,0,2.49,40.48l-0.6-.56V13.18l1.1-.5a119.83,119.83,0,0,1,99.61.08l1.1,0.51-0.17,26.65-0.6.55A16.66,16.66,0,0,0,102,64q0.45,0.49.95,0.95l0.6,0.56V77.93a34.09,34.09,0,0,1-19.31,30.74L62.7,119A32,32,0,0,0,54,125.1Z" transform="translate(0 -0.03)" style="fill:#fff"/><path d="M52.7,123.75a34.42,34.42,0,0,0-9.17-6.46L22,107A32.22,32.22,0,0,1,3.75,78V66.31a18.51,18.51,0,0,0,6-13.62,18.51,18.51,0,0,0-6-13.59V14.38a118,118,0,0,1,98.05.08l-0.16,24.63a18.53,18.53,0,0,0-1.06,26.18q0.51,0.55,1.06,1.06V77.91a32.21,32.21,0,0,1-18.25,29l-21.5,10.33A33.89,33.89,0,0,0,52.7,123.75Z" transform="translate(0 -0.03)" style="fill:#004aa7"/><g id="Group_1" data-name="Group 1"><path d="M31.77,96.53V89.76H83.94a18,18,0,0,1,10,2.75l0.52,0.37,0.34,0.26-0.34.26-0.52.37a18,18,0,0,1-10,2.75H31.77Z" transform="translate(0 -0.03)" style="fill:#ff0040"/><path d="M31.77,93.58V92.71H75.26c3,0,5.94.11,8.34,0.35h0c-2.4.24-5.33,0.35-8.34,0.35H31.77v0.17Z" transform="translate(0 -0.03)"/><path d="M43.62,73.81a7.34,7.34,0,0,1-4-.86l-0.1-.08c-1-1.26,1.29-2.9,2-3.45,1.24-.94,2.42-1.7,2.7-2.92,0.2-.86-0.47-1.58-0.81-2.7-1.08-3.48,1.06-4.13-.12-5.08s-2.92.12-4.5,0.9c-1.81.91-3.85,1.84-5.92,1.53a3.33,3.33,0,0,1-2.46-1.53c-0.83-1.59-.17-3.62.3-5.14,0.52-1.75,2.22-2.36,2.17-3.73,0-.36-1.36-1.23-1.36-2A1.21,1.21,0,0,1,32,47.87c0.58-.59.91-0.36,1.14-0.71A0.27,0.27,0,0,0,33.2,47a1.59,1.59,0,0,0-.55-0.43,4.4,4.4,0,0,1-1.28-.93,2.06,2.06,0,0,1-.22-1.36,3.37,3.37,0,0,1,.5-1.15,4.94,4.94,0,0,1,.58-0.77l0.19-.22H32.28l-1,.53a4.15,4.15,0,0,1-1.18.28c-1.69.13-2.1-1-1.64-2.52a18.21,18.21,0,0,1,4.06-6.63l1.56-1.64,0.11-1.36a7.52,7.52,0,0,0-.27-1.67,7,7,0,0,1,.88-4.74,15.52,15.52,0,0,0,1.79-5.69h0c0.53-2.37,2.37-3.23,4-4.09L41,15c-1.26,1.86-.23,4.11,6.59,7h0.08c2.16,1.77,3.75,4.42,3.88,9.46v2.23l1.11,2.5c1.43,2.5,3.67,5,5.67,7.85,2.23,3.25,4,6.4,3.57,11.14l-0.31,2.11c-0.36,2.59-.72,5.09.34,7.47l-0.21.43C55,67,49.21,73.44,43.62,73.81Z" transform="translate(0 -0.03)"/><path d="M33,42.08c0.59-.12,1.52,1.17,1.72.59a5.26,5.26,0,0,0-2.49-.9,4.5,4.5,0,0,1-2.16.82c-1.38.1-1.74-.67-1.32-2.12,1.25-3.72,3.43-6,5.62-8.21A6.89,6.89,0,0,0,34.21,29a6.74,6.74,0,0,1,.85-4.51,15.83,15.83,0,0,0,1.82-5.78c0.5-2.21,2.19-3,3.8-3.89-1.48,2.19,0,4.6,6.73,7.41,2.36,2,4.06,5,3.73,11.51,1.06,3.5,4.23,6.69,6.83,10.47s4.4,7.18,3.21,13c-0.36,2.58-.74,5.17.36,7.65-8.44,2.3-14.91,11.4-21.78,7.76-0.74-.94,1-2.31,2-3,1.19-.9,2.51-1.74,2.82-3.1,0.23-1-.53-1.93-0.82-2.87-1-3.06,1.13-4.14-.23-5.24s-3.37.14-4.82,0.87c-1.82.91-3.78,1.79-5.74,1.5a3,3,0,0,1-2.22-1.36c-0.76-1.46-.16-3.35.32-4.92,0.42-1.41,2.23-2.36,2.18-3.82,0-.82-1.36-1.23-1.36-2a1,1,0,0,1,.38-0.59,8.31,8.31,0,0,0,1.18-.75,0.52,0.52,0,0,0,.08-0.44,1.52,1.52,0,0,0-.63-0.58,4.52,4.52,0,0,1-1.22-.85,1.77,1.77,0,0,1-.17-1.16,3,3,0,0,1,.46-1,4.19,4.19,0,0,1,.53-0.72A1.25,1.25,0,0,1,33,42.08Z" transform="translate(0 -0.03)" style="fill:#fee18f"/><path d="M38.86,71.76c8.26,5.32,12.83-5.55,23.39-6.79A10,10,0,0,0,72,71.54c0.38,0.5,1.18,1.74.59,1.82-11.17,1.55-25.86,17.75-39.83,6Z" transform="translate(0 -0.03)" style="fill:#fff;stroke:#000;stroke-linejoin:bevel;stroke-width:0.30000001192092896px"/><path d="M75.47,75.44a9.21,9.21,0,0,1-5.79-1.93l-0.94-1.05-2.27-.69a11.25,11.25,0,0,1-5.64-6.09c-1.71-4.5.17-9.43-.85-14.12-1.36-6.23-9.56-14.46-9.68-17.89V33.61a14.7,14.7,0,0,0-1.8-8.37l-1.8-2L46.23,23a24.74,24.74,0,0,1-4-2.28,6.84,6.84,0,0,1-2.39-3,2.64,2.64,0,0,1,.06-1.83c-2.08,1.26-1.6,2.27-1.92,3.33-2.07-.83-5.73-5.94-0.45-7.18C42.34,10.92,48.6,7.62,54.2,8.62,73.13,12,75.4,24.56,74.44,34.3c-0.64,6.42-.51,9.3.7,13.67,0.7,2.51,3.74,4.83,4.21,7.91a9.9,9.9,0,0,1-1.4,7.34,14.3,14.3,0,0,0-1.74,3l-0.07.53h0l1.68,0.46c3.45,1.59,2.38,6.13.27,7.44A5.54,5.54,0,0,1,75.47,75.44Z" transform="translate(0 -0.03)"/><path d="M38.25,34c-0.44-.8-0.89-2.81.52-3.89,1.51,1.59,3.37,1.27,5.3,2.43C43.37,33.29,42.49,34.22,38.25,34Z" transform="translate(0 -0.03)" style="fill:#fff;stroke:#000;stroke-linejoin:bevel;stroke-width:0.30000001192092896px"/><path d="M29.92,62.06c-1.2,0-1.32-.62-1.36-1.63-0.19-4.36,2.23-7.55,4.35-9.73L33,50.62l0.09,0.06c4.64,2.52,11.56-2.93,19.1-9.6l0.16-.13,0.07,0.17c0.74,1.69.61,5.14-.23,7.47C49.45,56.24,40.31,62.07,29.92,62.06Z" transform="translate(0 -0.03)"/><path d="M52.28,41.17c0.73,1.64.61,5-.23,7.38-2.71,7.58-11.79,13.38-22.13,13.37-1.07,0-1.18-.5-1.22-1.49C28.51,56.12,30.9,53,33,50.79,37.76,53.38,44.78,47.81,52.28,41.17Z" transform="translate(0 -0.03)" style="fill:#630"/><path d="M37.92,49.34A1.74,1.74,0,0,1,37,48.63a4.63,4.63,0,0,0-.74-0.78,2.68,2.68,0,0,0-.57-0.45l-0.2-.07H35.34a15.23,15.23,0,0,1-4.09-1,1.41,1.41,0,0,1-.7-1.14,3.81,3.81,0,0,1,.45-2.5c0.08-.13.36-0.43,0.41-0.51a1.6,1.6,0,0,1,1.44-.71,3.14,3.14,0,0,1,1.27.58,4.94,4.94,0,0,1,.91.58l2,1.89a5,5,0,0,1,1.39,2.12,4.46,4.46,0,0,1,.09,2.2,0.76,0.76,0,0,1-.36.49h-0.2Z" transform="translate(0 -0.03)"/><path d="M35.54,47.23a1.87,1.87,0,0,1,.82.55,5.16,5.16,0,0,1,.75.79,1.27,1.27,0,0,0,1,.67,0.69,0.69,0,0,0,.3-0.43,4.39,4.39,0,0,0-.09-2.14A5,5,0,0,0,37,44.58l-2-1.87a5.5,5.5,0,0,0-.89-0.58,3.12,3.12,0,0,0-1.23-.56,1.47,1.47,0,0,0-1.34.66c-0.1.14-.32,0.34-0.41,0.5a3.68,3.68,0,0,0-.45,2.46,1.33,1.33,0,0,0,.66,1.08A14.42,14.42,0,0,0,35.54,47.23Z" transform="translate(0 -0.03)" style="fill:#630"/><path d="M36,28.36c2.89-1.66,5.7-1.22,9.26.7-2.73-2.33-5.8-3.66-10.16-2A1.77,1.77,0,0,0,36,28.36Z" transform="translate(0 -0.03)"/><path d="M38.25,34c-0.44-.8-0.89-2.81.52-3.89C40.28,31.74,42.49,34.22,38.25,34Z" transform="translate(0 -0.03)"/><path d="M38.24,33.66A5.82,5.82,0,0,1,38.35,31C38.69,32.12,39.17,33.79,38.24,33.66Z" transform="translate(0 -0.03)" style="fill:#fff"/><path d="M38.22,30.52c-0.35-1.22.3-1.82,1.81-1.91a24.39,24.39,0,0,0,5.07,4.22A15.11,15.11,0,0,1,38.22,30.52Z" transform="translate(0 -0.03)" style="fill:#fee18f;stroke:#000;stroke-miterlimit:79.83999633789062;stroke-width:0.30000001192092896px"/><path d="M37.58,18.19c-1.7-.69-4.34-4.47.09-5.5,5.11-1.2,11-4.39,16.38-3.41,18.46,3.3,20.62,15.43,19.68,25-0.64,6.45-.51,9.45.73,13.93,0.8,2.85,3.74,4.9,4.19,7.82a9.22,9.22,0,0,1-1.27,6.83c-0.94,1.3-3,4.44-1.37,4.64,4.54,0.57,3.9,5.3,1.75,6.62C75,75.8,70.34,74,69.12,71.89a10.24,10.24,0,0,1-7.65-6.42c-1.66-4.37.27-9-.82-14C59.23,44.89,51.1,36.8,51,33.65c0.25-3.72-.73-8.59-3.89-11C46.42,22.24,38,18.93,40.5,15,39.69,15.74,38,16,37.58,18.19Z" transform="translate(0 -0.03)" style="fill:#960"/><path d="M55.6,31.75c-0.41,7.78,8.64,13.46,9.79,18.8C67.12,58.61,64,75,74.54,75.09c10.16,0.5,3-13.49-.28-4.5-2.11-3.95.25-6.27,0.66-10,0.5-4.42-.55-8-4.07-13.22-1.13-1.66-.34-3-0.37-4.59C70.26,31.57,68.21,27.06,65.64,23c3.13,5.68,4.39,12.09,4.17,20.14-0.05,1.67-.87,3,0.64,5.1,0.9,1.26,3.85,5.5,4.06,8.87,0.36,6.24-3.13,10.67-.09,13.75,4.78-8.56,7.92,6.68-2.24,3.33-7.89-2.63-4.35-16.57-6.35-24.34C64.07,43.11,57.15,41.36,55.6,31.75Z" transform="translate(0 -0.03)"/><path d="M60.75,36.58c4.13,5.16,9.33,12,9.23,17.07-0.15,8.71-1.06,14,3,17.3-4.19-6.57-1.39-13.85-2.46-18.85C69.25,46.13,65,41.72,60.75,36.58Z" transform="translate(0 -0.03)"/><path d="M62.62,66.95c-10.88,2.62-11.44,6.74-17.31,7.36C51,74.79,54.21,71,60.64,69.82c-2,2.83-4.85,4.77-8.77,6.41,4.78-1,7.6-4,10.78-7.1-5.08-.42-6.44,1.53-13.27,4.49C53.38,71.84,56,69.18,62.62,66.95Z" transform="translate(0 -0.03)"/><path d="M43,78.86c5.36-.17,8.56-0.63,11.88-2.41,3.78-2,7.91-5.09,12-4.65-6,.88-8.87,4.28-12.43,5.83C50.55,79.32,47.89,79.37,43,78.86Z" transform="translate(0 -0.03)"/><path d="M34.41,77.53L35,76.62c0.55,1,1.41,1.87,5.42,2.69C36.18,79.24,35.18,78.15,34.41,77.53Z" transform="translate(0 -0.03)"/><path d="M12.5,24.87V35.3h1.64V24.87H12.5Z" transform="translate(0 -0.03)" style="fill:#ff0;stroke:#000;stroke-miterlimit:79.83999633789062;stroke-width:0.30000001192092896px"/><path d="M17.53,35.31l2.73-5.23-2.73-5.22h7V26.5H20.45l1.83,3.58-1.83,3.59h4v1.64h-7Z" transform="translate(0 -0.03)" style="fill:#ff0;stroke:#000;stroke-miterlimit:79.83999633789062;stroke-width:0.30000001192092896px"/><path d="M87.63,35.31l2.73-5.23-2.73-5.22h7V26.5h-4l1.83,3.58-1.83,3.59h4v1.64h-7Z" transform="translate(0 -0.03)" style="fill:#ff0;stroke:#000;stroke-miterlimit:79.83999633789062;stroke-width:0.30000001192092896px"/><path d="M77.76,35.3l3.11-5.21-3.11-5.21h2l2.11,3.54L84,24.88h2l-3.12,5.21L86,35.3H84l-2.12-3.54L79.76,35.3h-2Z" transform="translate(0 -0.03)" style="fill:#ff0;stroke:#000;stroke-miterlimit:79.83999633789062;stroke-width:0.30000001192092896px"/><path d="M12.61,23.17a3.86,3.86,0,0,1,3.72-4h2.3c1.93,0.08,4.22,0,6-1.78a3.87,3.87,0,0,1-3.74,4H20.81a12.15,12.15,0,0,1-1.35,0H18.62C16.71,21.31,14.41,21.41,12.61,23.17Z" transform="translate(0 -0.03)" style="fill:#ff0;stroke:#000;stroke-miterlimit:79.83999633789062;stroke-width:0.30000001192092896px"/><path d="M80.44,23.17a3.87,3.87,0,0,1,3.74-4h2.27c1.93,0.08,4.23,0,6-1.78a3.85,3.85,0,0,1-3.7,4h-0.1a12.33,12.33,0,0,1-1.36,0H86.45C84.54,21.31,82.24,21.41,80.44,23.17Z" transform="translate(0 -0.03)" style="fill:#ff0;stroke:#000;stroke-miterlimit:79.83999633789062;stroke-width:0.30000001192092896px"/><g id="Group_2" data-name="Group 2"><path d="M28.73,83.08c2.39,5.49,2.39,16.25,0,21.74h6.46c-2.39-5.5-2.39-16.25,0-21.74H28.73Z" transform="translate(0 -0.03)" style="fill:#ff0"/></g><g id="Group_3" data-name="Group 3"><path d="M31.7,83.55c0.19,5.26.19,15.54,0,20.8h0.5C32,99.1,32,88.81,32.2,83.55H31.7Z" transform="translate(0 -0.03)"/></g><g id="Group_4" data-name="Group 4"><path d="M29.79,96.53l-2-.18v-6.4l2-.19h0.45v6.76H29.79Z" transform="translate(0 -0.03)" style="fill:#ff0"/><path d="M27.51,96.32l-2.45-.22V90.21L27.51,90v6.32Z" transform="translate(0 -0.03)" style="fill:#ff0"/><path d="M24.77,96.07l-2.45-.23V90.46l2.45-.23v5.84Z" transform="translate(0 -0.03)" style="fill:#ff0"/><path d="M22,95.81H21.9l-2.35-.72V91.22l2.35-.73H22v5.33h0Z" transform="translate(0 -0.03)" style="fill:#ff0"/><path d="M19.3,95l-1.79-.55-0.66-.19V92l0.66-.19,1.79-.55V95Z" transform="translate(0 -0.03)" style="fill:#ff0"/></g><path d="M13.92,89.66a3.26,3.26,0,1,1-3.26,3.26,3.26,3.26,0,0,1,3.26-3.26h0Z" transform="translate(0 -0.03)" style="fill:#ff0"/><path d="M14.24,90.85c0.62,0.62-1.62,2.86-2.24,2.24A1.58,1.58,0,0,1,14.24,90.85Z" transform="translate(0 -0.03)" style="fill:#fff"/><path d="M29.55,93.22h-1.4V90.67l1.76-.12V93.2Z" transform="translate(0 -0.03)" style="fill:#fff"/><path d="M27.14,93.22H25.4v-2.3l1.74-.17v2.47Z" transform="translate(0 -0.03)" style="fill:#fff"/><path d="M24.39,93.22h-1.7v-2l1.7-.19v2.19Z" transform="translate(0 -0.03)" style="fill:#fff"/><path d="M21.66,93.22l-1.74-.14V91.84l1.74-.41v1.8h0Z" transform="translate(0 -0.03)" style="fill:#fff"/><path d="M19,93.07L17.9,93H17.55V92.42l0.35-.08,1-.26v1h0Z" transform="translate(0 -0.03)" style="fill:#fff"/><path d="M13.91,96.34a3.41,3.41,0,1,1,3.41-3.41,3.41,3.41,0,0,1-3.41,3.41h0Zm0-.3a3.11,3.11,0,1,0-3.11-3.11A3.11,3.11,0,0,0,13.91,96v0Z" transform="translate(0 -0.03)"/><path d="M29.79,96.68l-2.13-.19-2.74-.25L22.19,96H21.9l-2.45-.76-2-.61L16.8,94.4l0.11-.21L17,94v0.18l0.55,0.15,1.6,0.5V91.51l-1.6.5-0.48.14L17,92V91.89l0.48-.14,2-.62,2.45-.75h0.3l5.46-.51,2.13-.2H30.4v7.06H29.79v0Zm0.3-.3V89.92H29.8l-1.86.17V96.2l1.86,0.17h0.29Zm-2.74-.22v-6l-2.15.2V96Zm-2.73-.25V90.4l-2.15.19V95.7Zm-2.74-.27v-5l-2.15.66V95Z" transform="translate(0 -0.03)"/><path d="M28.5,105l0.09-.22c2.38-5.45,2.38-16.17,0-21.62l-0.09-.21h6.92l-0.09.21c-2.37,5.45-2.37,16.17,0,21.62L35.41,105H28.5Zm6.46-.3-0.13-.32c-2.12-5.48-2.12-15.31,0-20.8L35,83.23H29l0.13,0.32c2.11,5.48,2.11,15.31,0,20.8l-0.13.32h6Z" transform="translate(0 -0.03)"/><path d="M33.49,96.68v-0.3H83.94a17.83,17.83,0,0,0,9.92-2.73l0.52-.37,0.18-.13L94.38,93l-0.52-.36a17.79,17.79,0,0,0-9.92-2.73H33.6v-0.3H83.94A18.12,18.12,0,0,1,94,92.39l0.53,0.37L95,93.14l-0.5.38L94,93.9a18.13,18.13,0,0,1-10.08,2.78H33.49Z" transform="translate(0 -0.03)"/></g></g></g></g></g></svg>