<svg id="Layer_1" data-name="Layer 1" xmlns="http://www.w3.org/2000/svg" viewBox="0 0 124.07 90"><title>ico-service-singin-team</title><g id="Document"><g id="Spread"><g id="MouseOff"><path d="M63.7,90L51.79,81.68l0.29-1.08H32.33c-2.32-.22-3.48-1.4-3.43-3.6-0.23-21.81,9.25-24.53,18.48-27.76l8.27-4.83A22.15,22.15,0,0,1,50.32,37a8.52,8.52,0,0,1-.64-4c-1.78.87-3.68-3.09-4.24-5.22-1.33-5.08,0-6.47,2-6.8-1.8-7.36-2.63-13.79,2.3-14.2C52.47,1.36,57.82.22,63.7,0c5.88,0.22,11.23,1.36,13.92,6.8,4.93,0.41,4.1,6.83,2.3,14.2,2,0.33,3.36,1.73,2,6.8-0.56,2.13-2.46,6.1-4.24,5.22a8.5,8.5,0,0,1-.64,4,22.23,22.23,0,0,1-5.33,7.41L80,49.23c9.23,3.23,18.71,6,18.48,27.76,0.06,2.21-1.11,3.39-3.43,3.6H75.32l0.29,1.08Zm0-3.69,8.17-5.71L65.55,55H61.84L55.52,80.6ZM100.92,77c0.18-17.38-5.7-23.65-12.79-27.15l-2-.79c2.08-3,5.2-4,8.27-5.07l8.31,9.35a1.67,1.67,0,0,0,2.32,0L113.33,44c5.36,1.88,10.88,3.46,10.74,16.14,0,1.28-.64,17.59-2,17.72H100.9A8.22,8.22,0,0,0,100.92,77ZM0,66.35c-0.17-15.71,6.66-17.67,13.31-20l6-3.48a15.94,15.94,0,0,1-3.84-5.34A6.11,6.11,0,0,1,15,34.68c-1.28.63-2.65-2.22-3.05-3.76-1-3.66,0-4.66,1.46-4.9-1.3-5.3-1.89-9.93,1.66-10.22,1.94-3.92,5.8-4.74,10-4.9,4.23,0.16,8.09,1,10,4.9,3.55,0.29,3,4.92,1.66,10.22,1.45,0.24,2.42,1.24,1.46,4.9-0.4,1.54-1.77,4.39-3,3.76a6.15,6.15,0,0,1-.46,2.85,16,16,0,0,1-3.84,5.34l4.75,2.77,6.79,2.93-3.07,1.2a20,20,0,0,0-9.42,8.85H8.41V76.22H2.47C0.8,76.06,0,67.94,0,66.35Zm10.21-4.86a1.38,1.38,0,1,1,1.38,1.38A1.38,1.38,0,0,1,10.21,61.49ZM15,57.54L13.4,47.43l-3.19,1.11-1.81,9H15Zm50.58-3.86,2.19-6.8H59.6l2.19,6.8h3.82ZM98.09,41.37C94.25,41.88,91,38.22,91,30.5c0.07-8.63,5.66-14,12.82-14s12.75,5.39,12.82,14c0.07,7.72-3.21,11.38-7.06,10.87-2.08,2.68-3.79,3.92-5.76,3.92S100.17,44.06,98.09,41.37Zm-30,3c3.24-1.72,5.44-5,6.83-8.28a12.86,12.86,0,0,0,.58-5.5,2.64,2.64,0,0,0,2.91-.82c1.32-1.46,2-5.55,1-5.81s-2.1,1-3.15,1.67a40,40,0,0,0,.37-9.58c-0.53-4.42-1.49-6.6-4.2-7.55-3-1-4.76,3.56-8.74,3.56S57.92,7.47,55,8.51c-2.72,1-3.67,3.13-4.2,7.55a39.82,39.82,0,0,0,.37,9.58c-1.05-.72-2-1.95-3.16-1.67s-0.34,4.35,1,5.81a2.65,2.65,0,0,0,2.91.82,12.94,12.94,0,0,0,.58,5.5c1.39,3.3,3.59,6.56,6.83,8.28,0.89,0.47,3.06.46,4.44,0.46S67.25,44.84,68.14,44.37ZM111,35.56a0.94,0.94,0,0,0,1.28-.16,6.66,6.66,0,0,0,1.68-4.35c0.08-1.79-.84-2.11-2.36-1.55-2.06,1.29-7.3-2.31-9.38-6.11-0.12-.22-0.32,2,2.37,5.44-2.15,0-3.75-1.5-5-3-1.17,1.31-2.39,2.53-3.44,3.69-1.52-.57-2.44-0.24-2.36,1.55a6.68,6.68,0,0,0,1.68,4.35,0.94,0.94,0,0,0,1.28.16c1.58,4.25,4.34,8.37,7.11,8.37S109.39,39.81,111,35.56ZM28.26,42.85a11.71,11.71,0,0,0,4.92-6,9.32,9.32,0,0,0,.42-4,1.91,1.91,0,0,0,2.1-.59c0.94-1.05,1.43-4,.7-4.19s-1.51.68-2.27,1.2a28.58,28.58,0,0,0,.26-6.9c-0.38-3.18-6.45-2.87-9.32-2.87s-8.94-.31-9.32,2.88a28.58,28.58,0,0,0,.27,6.9c-0.76-.52-1.47-1.41-2.27-1.2s-0.25,3.13.69,4.19a1.91,1.91,0,0,0,2.1.59,9.3,9.3,0,0,0,.42,4,11.7,11.7,0,0,0,4.92,6,9.21,9.21,0,0,0,3.2.33A9.22,9.22,0,0,0,28.26,42.85Z"/></g></g></g></svg>