<svg id="Layer_1" data-name="Layer 1" xmlns="http://www.w3.org/2000/svg" viewBox="0 0 105 76.96"><title>ico-service-singin-submit</title><g id="Document"><g id="Spread"><g id="MouseOff"><path d="M54.74,75.48L43.61,60.64a3.53,3.53,0,0,1-.75-2.23,3.6,3.6,0,0,1,1.07-2.6,3.45,3.45,0,0,1,2.58-1.1,3.7,3.7,0,0,1,3.1,1.56L54,62.12v-26a3.71,3.71,0,0,1,3.71-3.71,3.49,3.49,0,0,1,2.64,1.15,3.87,3.87,0,0,1,1.07,2.73V52.85h0.93V50.07A3.71,3.71,0,0,1,66,46.36a3.47,3.47,0,0,1,2.64,1.15,3.84,3.84,0,0,1,1.07,2.74v2.61h0.92V51a3.26,3.26,0,0,1,3.24-3.24,3.07,3.07,0,0,1,2.32,1,3.27,3.27,0,0,1,.93,2.36v1.77H78.1a2.76,2.76,0,0,1,2.78-2.78,2.57,2.57,0,0,1,2,.87A2.91,2.91,0,0,1,83.66,53v6.29a23.13,23.13,0,0,1-.7,5.62L80.3,75.57a1.74,1.74,0,0,1-.65,1A1.8,1.8,0,0,1,78.5,77H57.7A3.5,3.5,0,0,1,54.74,75.48ZM0,60.71V4.19A4.44,4.44,0,0,1,4.65,0h95.69A4.44,4.44,0,0,1,105,4.19V60.71a4.45,4.45,0,0,1-4.65,4.19H87.12a26.93,26.93,0,0,0,.58-4.84H98a1.17,1.17,0,0,0,1.17-1.17V6A1.17,1.17,0,0,0,98,4.84H17.36A1.18,1.18,0,0,0,16.19,6V58.89a1.17,1.17,0,0,0,1.17,1.17H39a7.5,7.5,0,0,0,1.4,3l1.35,1.81H4.65A4.45,4.45,0,0,1,0,60.71Zm22.35-6.89a1.85,1.85,0,0,1,.35-2.55l2.56-2.57L22.7,46.14a1.86,1.86,0,0,1-.35-2.55,1.85,1.85,0,0,1,2.54.35l2.57,2.57L30,43.94a1.86,1.86,0,0,1,2.55-.35h0a1.85,1.85,0,0,1-.34,2.55l-2.57,2.57,2.57,2.57a1.85,1.85,0,0,1,.34,2.55h0A1.85,1.85,0,0,1,30,53.48l-2.57-2.57L24.9,53.48A1.85,1.85,0,0,1,22.35,53.82Zm15,0a1.86,1.86,0,0,1,.35-2.55l2.56-2.57-2.57-2.57a1.85,1.85,0,0,1-.35-2.55,1.86,1.86,0,0,1,2.55.35l2.57,2.57L45,43.94a1.86,1.86,0,0,1,2.55-.35h0a1.85,1.85,0,0,1-.35,2.55l-2.57,2.57,1.94,1.95H46.51a7.48,7.48,0,0,0-3.48.84l-0.58-.58-2.57,2.57A1.85,1.85,0,0,1,37.33,53.82ZM90,53.48l-2.57-2.57h0a7,7,0,0,0-1.6-2.74,6.65,6.65,0,0,0-3-1.89l-0.14-.15a1.61,1.61,0,1,1,2.2-2.2l2.57,2.57L90,43.94a1.85,1.85,0,0,1,2.55-.35h0a1.85,1.85,0,0,1-.35,2.55l-2.57,2.57,2.57,2.57a1.85,1.85,0,0,1,.35,2.55h0A1.85,1.85,0,0,1,90,53.48ZM24.74,36.32l-2.12-2.94a2.89,2.89,0,0,1-.3-3.11c0.53-.74,1.54-0.55,2.24.43L26.17,33l4.21-5.83c0.7-1,1.71-1.17,2.24-.43h0a2.9,2.9,0,0,1-.31,3.11l-4.71,6.53A1.61,1.61,0,0,1,24.74,36.32ZM45,36.49l-2.57-2.57-2.57,2.57a1.85,1.85,0,0,1-2.55.35,1.86,1.86,0,0,1,.35-2.55l2.56-2.56-2.57-2.57a1.85,1.85,0,0,1-.35-2.54,1.85,1.85,0,0,1,2.55.35l2.57,2.57L45,27a1.86,1.86,0,0,1,2.55-.35h0a1.85,1.85,0,0,1-.35,2.54l-2.57,2.57,2.57,2.56a1.86,1.86,0,0,1,.35,2.55h0A1.86,1.86,0,0,1,45,36.49Zm45,0-2.57-2.57-2.57,2.57a1.85,1.85,0,0,1-2.54.35,1.86,1.86,0,0,1,.34-2.55l2.57-2.56-2.57-2.57a1.84,1.84,0,0,1-.34-2.54,1.85,1.85,0,0,1,2.54.35l2.56,2.57L90,27a1.85,1.85,0,0,1,2.55-.35h0a1.85,1.85,0,0,1-.35,2.54l-2.57,2.57,2.57,2.56a1.85,1.85,0,0,1,.35,2.55h0A1.85,1.85,0,0,1,90,36.49Zm-14.73,0-2.57-2.57-2.57,2.57a1.86,1.86,0,0,1-2.54.34,1.85,1.85,0,0,1,.35-2.54l2.57-2.57-2.57-2.57a1.85,1.85,0,0,1-.35-2.54,1.85,1.85,0,0,1,2.54.35l2.56,2.57L75.24,27a1.85,1.85,0,0,1,2.54-.35h0a1.85,1.85,0,0,1-.34,2.54l-2.57,2.57,2.57,2.57a1.85,1.85,0,0,1,.34,2.54h0A1.86,1.86,0,0,1,75.24,36.49Zm-62.33-4a4.61,4.61,0,1,0-4.61,4.6A4.61,4.61,0,0,0,12.92,32.45Zm-6.68,0a2.07,2.07,0,1,1,2.07,2.07A2.07,2.07,0,0,1,6.24,32.45ZM69.7,19.33l-2.12-2.94a2.89,2.89,0,0,1-.3-3.11c0.53-.74,1.54-0.55,2.24.42L71.13,16l4.21-5.84C76,9.14,77,9,77.59,9.7h0a2.91,2.91,0,0,1-.31,3.11l-4.71,6.53A1.62,1.62,0,0,1,69.7,19.33Zm15,0-2.12-2.94a2.89,2.89,0,0,1-.3-3.11c0.53-.74,1.54-0.55,2.24.42L86.11,16l4.21-5.84C91,9.14,92,9,92.57,9.7h0a2.9,2.9,0,0,1-.31,3.11l-4.71,6.53A1.62,1.62,0,0,1,84.68,19.33ZM30,19.5l-2.57-2.57L24.9,19.5a1.84,1.84,0,0,1-2.54.34,1.85,1.85,0,0,1,.35-2.55l2.56-2.56L22.7,12.16a1.86,1.86,0,0,1-.35-2.54A1.85,1.85,0,0,1,24.9,10l2.57,2.57L30,10a1.85,1.85,0,0,1,2.55-.35h0a1.85,1.85,0,0,1-.34,2.54l-2.57,2.57,2.57,2.56a1.85,1.85,0,0,1,.34,2.55h0A1.85,1.85,0,0,1,30,19.5Zm15,0-2.57-2.57L39.88,19.5a1.85,1.85,0,0,1-2.55.34,1.86,1.86,0,0,1,.35-2.55l2.56-2.56-2.57-2.57a1.85,1.85,0,0,1-.35-2.54,1.85,1.85,0,0,1,2.55.35l2.57,2.57L45,10a1.86,1.86,0,0,1,2.55-.35h0a1.85,1.85,0,0,1-.35,2.54l-2.57,2.57,2.57,2.56a1.85,1.85,0,0,1,.35,2.55h0A1.86,1.86,0,0,1,45,19.5Zm15,0-2.57-2.57L54.87,19.5a1.85,1.85,0,0,1-2.55.34,1.86,1.86,0,0,1,.35-2.55l2.57-2.56-2.57-2.57a1.85,1.85,0,0,1-.35-2.54,1.86,1.86,0,0,1,2.55.35l2.56,2.57L60,10a1.85,1.85,0,0,1,2.55-.35h0a1.85,1.85,0,0,1-.35,2.54l-2.57,2.57,2.57,2.56a1.86,1.86,0,0,1,.35,2.55h0A1.85,1.85,0,0,1,60,19.5Z"/></g></g></g></svg>