<svg id="Layer_1" data-name="Layer 1" xmlns="http://www.w3.org/2000/svg" viewBox="0 0 108.15 108.15"><defs><style>.cls-1{fill:#bf0000;}</style></defs><title>ico-phone</title><g id="Document"><g id="Spread"><g id="_001" data-name="001"><g id="Group"><path class="cls-1" d="M21.69,46.75A90.26,90.26,0,0,0,61.4,86.47L74.64,73.23a5.28,5.28,0,0,1,6.2-1.41,67.3,67.3,0,0,0,21.41,3.38,5.78,5.78,0,0,1,5.91,5.91v21.13a5.78,5.78,0,0,1-5.91,5.91q-42.25,0-72.24-30T0,5.91A5.78,5.78,0,0,1,5.91,0H27A5.78,5.78,0,0,1,33,5.91a67.3,67.3,0,0,0,3.38,21.41,5.76,5.76,0,0,1-1.41,6.2Z"/></g></g></g></g></svg>