<svg id="Layer_1" data-name="Layer 1" xmlns="http://www.w3.org/2000/svg" viewBox="0 0 97.5 97.5"><title>ico-helper-menu-7</title><g id="Document"><g id="Spread"><g id="MouseOff"><path d="M0,48.75A48.75,48.75,0,1,1,48.75,97.5,48.77,48.77,0,0,1,0,48.75ZM47,68.11q4-5.16,4-14.92V44.54Q50.94,35.08,46.87,30T35.12,25q-7.69,0-11.77,5.1T19.26,45v8.65q0.09,9.46,4.16,14.53t11.75,5.07Q43,73.28,47,68.11ZM30.16,63q-1.57-2.79-1.56-8.54V43q0.09-5.39,1.66-7.93a5.3,5.3,0,0,1,4.86-2.54,5.41,5.41,0,0,1,5,2.66q1.6,2.67,1.6,8.51V54.88q-0.07,5.52-1.58,8.2a5.24,5.24,0,0,1-4.94,2.68A5.33,5.33,0,0,1,30.16,63Zm51.28,0.75A6.27,6.27,0,0,0,83.32,59V57.39a6.4,6.4,0,0,0-1.92-4.92,7.1,7.1,0,0,0-5-1.79,7,7,0,0,0-5,1.81,6.24,6.24,0,0,0-1.93,4.77v1.62a6.36,6.36,0,0,0,1.91,4.82,7,7,0,0,0,5.06,1.82A6.93,6.93,0,0,0,81.44,63.71Zm-19.05-1L78,37.75l-3.09-1.67L59.29,61ZM74.44,61A2.94,2.94,0,0,1,73.65,59V57.32a3.07,3.07,0,0,1,.75-2.18,2.83,2.83,0,0,1,3.95,0,3,3,0,0,1,.74,2.12v1.67c0,2-.89,3-2.67,3A2.59,2.59,0,0,1,74.44,61ZM66.14,45.75A6.23,6.23,0,0,0,68,41V39.41a6.42,6.42,0,0,0-1.91-4.9,7,7,0,0,0-5-1.81,6.92,6.92,0,0,0-5,1.83,6.31,6.31,0,0,0-1.91,4.77v1.56a6.38,6.38,0,0,0,1.92,4.88,7,7,0,0,0,5,1.81A7,7,0,0,0,66.14,45.75Zm-7-2.64A3,3,0,0,1,58.4,41v-1.6a3.13,3.13,0,0,1,.75-2.22,2.82,2.82,0,0,1,3.94,0,3.07,3.07,0,0,1,.72,2.13v1.62a3.13,3.13,0,0,1-.72,2.17,2.48,2.48,0,0,1-1.95.81A2.61,2.61,0,0,1,59.15,43.11Z"/></g></g></g></svg>