<svg id="Layer_1" data-name="Layer 1" xmlns="http://www.w3.org/2000/svg" viewBox="0 0 95.33 112.5"><title>ico-world-news</title><g id="Document"><g id="Spread"><g id="Layer_1-2" data-name="Layer 1"><path d="M0,112.5V0H95.33V112.5H0Zm91.78-3.56V3.56H3.56V108.94H91.78ZM9.59,82.24V65.62H28V82.24H9.59Zm21.67,0v-1.6H85.74v1.6H31.26Zm0-5v-1.6H85.74v1.6H31.26Zm0-5v-1.6H85.74v1.6H31.26Zm0-5v-1.6H85.74v1.6H31.26ZM9.59,58.86L14.36,41H85.74L81,58.86H9.59ZM70.22,56a6,6,0,0,0,2.3-1.51,5.59,5.59,0,0,0,1.31-2.4,3.28,3.28,0,0,0,.06-1.71,2.29,2.29,0,0,0-.71-1.14,4.08,4.08,0,0,0-1.2-.71,9.86,9.86,0,0,0-1.4-.42l-1.32-.27a4.74,4.74,0,0,1-.94-0.27A0.36,0.36,0,0,1,68,47.2a0.64,0.64,0,0,1,.31-0.41,1.64,1.64,0,0,1,.82-0.17,5.55,5.55,0,0,1,1.22.14,5.11,5.11,0,0,1,1.18.42,4.09,4.09,0,0,1,1,.7l2.8-2.74a5.38,5.38,0,0,0-2.11-1.34,8.49,8.49,0,0,0-2.83-.44,7.89,7.89,0,0,0-2.41.36,6.77,6.77,0,0,0-1.91.95A6,6,0,0,0,64.76,46,4.88,4.88,0,0,0,64,47.6a3.66,3.66,0,0,0-.09,1.8,2.32,2.32,0,0,0,.7,1.18,3.85,3.85,0,0,0,1.2.72,8.89,8.89,0,0,0,1.41.41L68.55,52a4.66,4.66,0,0,1,1,.25,0.35,0.35,0,0,1,.29.4,0.71,0.71,0,0,1-.31.4,1.71,1.71,0,0,1-.58.22,3.58,3.58,0,0,1-.71.07,5.34,5.34,0,0,1-1.56-.22,4.41,4.41,0,0,1-1.23-.59,4,4,0,0,1-.89-0.84l-2.78,2.87A5,5,0,0,0,63,55.61a6.11,6.11,0,0,0,1.76.7,10,10,0,0,0,2.38.25A8.66,8.66,0,0,0,70.22,56Zm-48,.3,1.73-6.48,3,6.48h3.72l3.42-12.78H30.19l-1.62,6.06-2.83-6.06h-4L18.34,56.34h3.87Zm19.6,0L42.71,53H36.88l0.37-1.4h5.69l0.9-3.37H38.16l0.34-1.26h5.83l0.9-3.37H35.53L32.11,56.34h9.69Zm8.79,0,3.59-7.24-0.29,7.24H58L65,43.56H60.69L57,51.38l0.16-7.82H54.21l-4,7.82,0.44-7.82H46.29l0.24,12.78H50.6Zm-10-16.94a3.74,3.74,0,0,1-1.67-1.14,3.35,3.35,0,0,1-.7-1.74,5.84,5.84,0,0,1,.2-2.19l2-7.53h3.93l-2,7.4a2.09,2.09,0,0,0,0,1.12,1.32,1.32,0,0,0,.59.79,2.32,2.32,0,0,0,1.25.3,3.22,3.22,0,0,0,1.4-.3,2.9,2.9,0,0,0,1-.79,3,3,0,0,0,.56-1.12l2-7.4H53l-2,7.51a7.74,7.74,0,0,1-1,2.2,6.78,6.78,0,0,1-1.62,1.74,7.29,7.29,0,0,1-2.27,1.15,9.84,9.84,0,0,1-2.92.41A7.8,7.8,0,0,1,40.55,39.4Zm25.77-.07A4.67,4.67,0,0,1,64.47,38a4.39,4.39,0,0,1-.92-2.09,6.4,6.4,0,0,1,.18-2.69A8.58,8.58,0,0,1,65,30.51a9.08,9.08,0,0,1,2-2.08,9.43,9.43,0,0,1,2.58-1.35,9,9,0,0,1,2.89-.48,6.86,6.86,0,0,1,2.63.48A4.62,4.62,0,0,1,77,28.43a4.4,4.4,0,0,1,.92,2.08,6.45,6.45,0,0,1-.18,2.69,8.55,8.55,0,0,1-1.26,2.69,9.08,9.08,0,0,1-2,2.09,9.35,9.35,0,0,1-2.58,1.35,8.93,8.93,0,0,1-2.88.48A6.86,6.86,0,0,1,66.32,39.33Zm-43.56.25L30.9,26.8h4.87l1.29,12.78H32.67l-0.06-1.49H28l-0.86,1.49H22.77Zm31.66,0,2.52-9.41H53.52l0.9-3.37H65.13l-0.9,3.37H60.81L58.3,39.58H54.43ZM71.61,36A4.27,4.27,0,0,0,73,34.82a4.49,4.49,0,0,0,.82-1.62,3.21,3.21,0,0,0,.05-1.62,2,2,0,0,0-.75-1.15A2.54,2.54,0,0,0,71.58,30a3.76,3.76,0,0,0-1.74.43,4.38,4.38,0,0,0-1.37,1.15,4.57,4.57,0,0,0-.82,1.62,3.28,3.28,0,0,0-.05,1.62A2,2,0,0,0,68.36,36a2.52,2.52,0,0,0,1.51.43A3.7,3.7,0,0,0,71.61,36ZM32.48,34.72L32.32,30.6,30,34.72h2.53Z"/></g></g></g></svg>