<svg id="Layer_1" data-name="Layer 1" xmlns="http://www.w3.org/2000/svg" viewBox="0 0 31.3 34.71"><defs><style>.cls-1{fill:#00a2e0;}</style></defs><title>ico-sound</title><g id="Document"><g id="Spread"><g id="Layer_1-2" data-name="Layer 1"><g id="Group"><path class="cls-1" d="M43.61,202c0-8.38,2.9-15.42,6.8-17.38a26.56,26.56,0,0,1,4.76.36H51.59a9.91,9.91,0,0,0-.91.8h3.95a3.27,3.27,0,0,1,1.79-.47c2.87,0,5.34,4.31,6.36,10.42l-1.8,1.5-0.21,0H60.34c-0.6-4.58-2-7.8-3.7-7.8-2.21,0-4,5.65-4,12.62s1.79,12.62,4,12.62c1.8,0,3.33-3.77,3.83-8.95h0.3l0.21,0,1.95,1.62h0c-0.82,6-3,10.51-5.67,11.31a24.7,24.7,0,0,1-7,.76C46.45,217.3,43.61,210.31,43.61,202Zm0.09,16.72a9.84,9.84,0,0,1-1.58-1.25h2.65q-0.34-.36-0.68-0.76H41.41a13.71,13.71,0,0,1-1-1.36h2.71c-0.18-.28-0.36-0.56-0.54-0.86H39.83a18.78,18.78,0,0,1-1.05-2.08h2.72q-0.21-.49-0.41-1H38.38a24.44,24.44,0,0,1-.84-2.74h2.7q-0.12-.49-0.23-1H37.32a28.22,28.22,0,0,1-.42-2.85h2.68c0-.33-0.06-0.66-0.08-1H36.82q-0.06-.9-0.06-1.83c0-.33,0-0.67,0-1h2.68c0-.55.05-1.1,0.1-1.63H36.88q0.1-1.18.3-2.31h2.69c0.1-.56.21-1.1,0.34-1.63H37.52q0.27-1.15.64-2.22h2.71c0.18-.51.37-1,0.58-1.49H38.73c0.25-.58.51-1.14,0.8-1.66h2.72c0.28-.52.59-1,0.9-1.5H40.44a14.11,14.11,0,0,1,.86-1.14H44q0.43-.53.89-1H42.25c0.24-.23.49-0.44,0.75-0.64h2.57a11.35,11.35,0,0,1,1-.8l2.38-.33c-4,2-6.94,9-6.94,17.35s2.88,15.16,6.79,17.27A38.26,38.26,0,0,1,43.7,218.74Zm9.65-2h-4q0.29,0.4.59,0.75h3.95Q53.64,217.13,53.35,216.73ZM52,214.51H48.05q0.22,0.44.47,0.86h4Q52.23,215,52,214.51Zm-1.28-3.08h-4c0.11,0.34.23,0.67,0.36,1h3.95Q50.89,211.94,50.72,211.43ZM53.24,202c0-5.51,1.31-10,2.92-10,1.1,0,2.06,2.09,2.56,5.16H56.94a1.31,1.31,0,0,0-1.31,1.31v5.86a1.31,1.31,0,0,0,1.31,1.31h1.94c-0.43,3.69-1.48,6.31-2.72,6.31C54.55,212,53.24,207.53,53.24,202Zm14.82,7.81-6.56-5.45v-5.86l6.56-5.45v16.77Zm-18.28-2.14h-4q0.09,0.5.2,1h4Q49.87,208.2,49.78,207.69Zm-0.45-3.84H45.38c0,0.34,0,.67.07,1h4C49.37,204.52,49.35,204.19,49.33,203.85Zm7.61,0.53v-5.86h3.83v5.86H56.94Zm-7.55-5H45.44q-0.07.81-.09,1.63h3.95Q49.32,200.2,49.38,199.39ZM50,195.44H46c-0.11.53-.21,1.08-0.3,1.63h3.95Q49.78,196.24,50,195.44ZM51,191.73H47.08c-0.18.48-.35,1-0.51,1.49h3.95C50.68,192.71,50.85,192.21,51,191.73Zm1.49-3.16H48.58c-0.28.47-.54,1-0.79,1.5h3.95C52,189.54,52.24,189,52.52,188.57ZM54,186.44H50.09q-0.41.47-.78,1h3.95C53.51,187.08,53.77,186.75,54,186.44Z" transform="translate(-36.76 -184.63)"/></g></g></g></g></svg>