<svg id="Layer_1" data-name="Layer 1" xmlns="http://www.w3.org/2000/svg" viewBox="0 0 73.65 97.5"><title>ico-helper-news-5</title><g id="Document"><g id="Spread"><g id="MouseOff"><path d="M0,93.12V4.38A4.38,4.38,0,0,1,4.38,0h64.9a4.38,4.38,0,0,1,4.38,4.38V93.12a4.38,4.38,0,0,1-4.38,4.38H4.38A4.38,4.38,0,0,1,0,93.12Zm33.26-4.62V66.71H54v21.8h2.3V66.71H68.22V64.3H56.28V57.58H68.22V55.17H56.28V48.46H68.22V46H56.28V39.33H68.22V36.92H56.28V26.17H54V36.92H33.26V26.17H31V36.92H5.43v2.41H31V46H5.43v2.41H31v6.72H5.43v2.41H31V64.3H5.43v2.41H31v21.8h2.3Zm9.4-8,6-6-1.2-1.19L42.66,78.1l-2.51-2.51L39,76.78ZM33.26,64.3V57.58H54V64.3H33.26Zm0-9.13V48.46H54v6.72H33.26Zm0-9.13V39.33H54V46H33.26ZM17,34.94l6-6-1.19-1.19L17,32.56,14.47,30l-1.19,1.2Zm25.69,0,6-6-1.19-1.19-4.77,4.77L40.15,30,39,31.24ZM31,25.48V13.06H5.43V25.48H31Zm23,0V13.06H33.26V25.48H54Zm14.24,0V13.06H56.28V25.48H68.22Z"/></g></g></g></svg>