<svg id="Layer_1" data-name="Layer 1" xmlns="http://www.w3.org/2000/svg" viewBox="0 0 105 95.76"><title>ico-service-singin-fulldoc</title><g id="Document"><g id="Spread"><g id="MouseOff"><path d="M42.51,95.38L0.6,60.55a1.67,1.67,0,0,1,.19-2.7L3.5,56.18,0.6,53.77a1.67,1.67,0,0,1,.19-2.7L3.5,49.4,0.6,47a1.67,1.67,0,0,1,.19-2.7l2.7-1.67-2.89-2.4a1.67,1.67,0,0,1,.19-2.7l17.3-10.68c0.33-3.18,1.16-5.56,2.43-7.13a5.17,5.17,0,0,1,5-2,7.19,7.19,0,0,1,3.81,2.16l-0.09.06,4.08-2.52a1.61,1.61,0,0,1,0-.35c0.33-3.23,1.15-5.65,2.44-7.23a5.16,5.16,0,0,1,5-2,7.38,7.38,0,0,1,4.08,2.45l-0.06,0L61.16,0.25a1.67,1.67,0,0,1,1.92.12l41.3,33.12a1.67,1.67,0,0,1-.13,2.7L101.51,38l2.86,2.29a1.67,1.67,0,0,1-.13,2.69l-2.74,1.79,2.87,2.3a1.67,1.67,0,0,1-.13,2.7l-2.74,1.79,2.87,2.3a1.67,1.67,0,0,1-.13,2.7l-59.75,39A1.67,1.67,0,0,1,42.51,95.38ZM43.7,92l56.79-37-1.93-1.54L44.49,88.71a1.67,1.67,0,0,1-2-.11L6.2,58.43l-1.69,1Zm0-6.78,56.79-37.05-1.93-1.55L44.49,81.92a1.66,1.66,0,0,1-2-.11L6.2,51.65l-1.69,1Zm0-6.78,56.79-37.05-1.91-1.53L44.49,75.15a1.67,1.67,0,0,1-2-.11L6.2,44.87l-1.68,1Zm24-40.75L73,33.16l-7.06-2.71Zm21.11-.52-3.45-2.95L70.54,28.52l-2.18-8.68-6.54-5.57,3.52,14ZM62.66,29.15l2.62-1L53.66,23.71l-4.82.15ZM34.49,26.62c0-.93-1-1.72-2.33-2a14.33,14.33,0,0,1,.44,1.72,1.67,1.67,0,0,1-3.28.61,10.68,10.68,0,0,0-.57-2,2,2,0,0,0-1.33,1.68c0,1.18,1.59,2.15,3.53,2.15S34.49,27.81,34.49,26.62Zm44,1.79,4.1-3.55L81,24.2,74.5,26.89ZM71.45,26.1l7.49-2.67-1.36-.53-6.89.21ZM21.88,24.5l0,0,4.51-2.79A3.45,3.45,0,0,0,25,21a1.86,1.86,0,0,0-1.87.82A7.2,7.2,0,0,0,21.88,24.5ZM49.52,17c0-.8-0.79-1.5-1.92-1.81,0.11,0.4.21,0.81,0.28,1.22A1.67,1.67,0,0,1,44.6,17a10.44,10.44,0,0,0-.42-1.57A1.86,1.86,0,0,0,43,17c0,1.1,1.47,2,3.28,2S49.52,18.11,49.52,17ZM37,15.14h0l5-3.07a3.77,3.77,0,0,0-1.76-1,1.86,1.86,0,0,0-1.87.82A7.85,7.85,0,0,0,37,15.14Z"/></g></g></g></svg>