<svg id="Layer_1" data-name="Layer 1" xmlns="http://www.w3.org/2000/svg" viewBox="0 0 87.19 112.5"><title>ico-helper-news-2</title><g id="Document"><g id="Spread"><g id="MouseOff"><path d="M0,104.17V8.33A8.34,8.34,0,0,1,8.33,0H78.86a8.34,8.34,0,0,1,8.33,8.33v95.83a8.34,8.34,0,0,1-8.33,8.33H8.33A8.34,8.34,0,0,1,0,104.17Zm30.1-3.39v0l0.93-.07a0.3,0.3,0,0,0,.39.38l2.36-.39a1.06,1.06,0,0,0,.74-0.62v0l0.89-.26a0.3,0.3,0,0,0,.46.29l2.23-.88a1,1,0,0,0,.58-0.75c0.28-.14.55-0.29,0.82-0.44a0.3,0.3,0,0,0,.51.21L42,97a1,1,0,0,0,.42-0.86v0l0.7-.59v0a0.3,0.3,0,0,0,.55.14l1.68-1.71A1.06,1.06,0,0,0,45.56,93v0c0.19-.23.38-0.48,0.56-0.72a0.3,0.3,0,0,0,.57,0l1.29-2a1,1,0,0,0,0-1l0-.06c0.14-.27.27-0.55,0.39-0.82h0a0.3,0.3,0,0,0,.56-0.1L49.77,86a1,1,0,0,0-.17-0.95L49.55,85c0.08-.29.15-0.58,0.21-0.88l0,0a0.3,0.3,0,0,0,.53-0.21l0.35-2.37a1,1,0,0,0-.36-0.89l-0.1-.07c0-.3,0-0.6,0-0.9l0.08,0a0.3,0.3,0,0,0,.47-0.32L50.64,77a1,1,0,0,0-.54-0.8L50,76.17q-0.07-.44-0.16-0.87l0.1,0a0.31,0.31,0,0,0,.4-0.41L49.65,72.6a1,1,0,0,0-.7-0.67l-0.18,0c-0.11-.27-0.22-0.55-0.34-0.81h0.13a0.31,0.31,0,0,0,.3-0.49l-1.1-2.12A1.05,1.05,0,0,0,47,68H46.74c-0.16-.24-0.33-0.48-0.51-0.72l0.16,0a0.3,0.3,0,0,0,.19-0.54l-1.52-1.85a1,1,0,0,0-.91-0.33l-0.24,0c-0.2-.2-0.42-0.4-0.63-0.6l0.18-.07a0.3,0.3,0,0,0,.08-0.57l-1.88-1.49a1,1,0,0,0-1-.13l-0.24.1c-0.24-.16-0.49-0.31-0.74-0.45l0.16-.11a0.31,0.31,0,0,0,0-.57L37.7,59.57a1,1,0,0,0-1,.07l-0.24.17,0,0-0.81-.29h0l0.15-.16a0.3,0.3,0,0,0-.16-0.55l-2.32-.6a1,1,0,0,0-.92.27l-0.19.2-0.86-.11,0.11-.18a0.31,0.31,0,0,0-.27-0.5l-2.39-.11a1,1,0,0,0-.85.46l-0.14.23h0L27,58.53h0l0.07-.19a0.3,0.3,0,0,0-.37-0.43l-2.36.39a1.05,1.05,0,0,0-.73.62l-0.09.25-0.83.24,0-.19a0.31,0.31,0,0,0-.45-0.35L20,59.73a1,1,0,0,0-.59.76l0,0.25-0.76.41,0-.18a0.3,0.3,0,0,0-.51-0.25l-2,1.32a1,1,0,0,0-.42.86l0,0.25h0l-0.66.56h0L15,63.54a0.3,0.3,0,0,0-.56-0.14l-1.68,1.7a1.06,1.06,0,0,0-.23.94l0.07,0.22h0l-0.54.69L12,66.81a0.31,0.31,0,0,0-.58,0l-1.28,2a1.06,1.06,0,0,0,0,1l0.09,0.16c-0.14.26-.27,0.52-0.39,0.79l-0.07-.09a0.31,0.31,0,0,0-.56.1L8.32,73a1,1,0,0,0,.17.95l0.1,0.12h0c-0.08.28-.15,0.57-0.22,0.86L8.3,74.85a0.31,0.31,0,0,0-.53.22L7.41,77.43a1,1,0,0,0,.37.89l0.1,0.08h0c0,0.3,0,.59,0,0.9l-0.06,0a0.3,0.3,0,0,0-.47.32L7.46,82a1,1,0,0,0,.54.79l0.08,0h0c0,0.3.1,0.6,0.15,0.89h0a0.3,0.3,0,0,0-.4.41l0.64,2.31a1.05,1.05,0,0,0,.69.67l0.06,0c0.11,0.28.22,0.56,0.34,0.84h0a0.3,0.3,0,0,0-.3.48l1.1,2.12a1.06,1.06,0,0,0,.82.51h0q0.24,0.38.51,0.75a0.3,0.3,0,0,0-.19.53L13,94.19a1,1,0,0,0,.9.33h0l0.66,0.64a0.3,0.3,0,0,0-.05.56l1.88,1.49a1,1,0,0,0,1,.13c0.26,0.17.52,0.34,0.78,0.49a0.3,0.3,0,0,0,.08.54l2.15,1.07a1.05,1.05,0,0,0,.94-0.06l0.87,0.32a0.3,0.3,0,0,0,.2.5l2.32,0.6a1,1,0,0,0,.91-0.25l0.93,0.13a0.3,0.3,0,0,0,.3.45l2.39,0.11A1.06,1.06,0,0,0,30.1,100.78Zm49.78,0.46V100H53v1.27H79.88Zm-5.73-3.79,5.73-5.73-1.44-1.44-4.29,4.29-2.63-2.63-1.44,1.44ZM16.25,79.51a12.8,12.8,0,1,1,12.8,12.8A12.81,12.81,0,0,1,16.25,79.51Zm63.63,7.15V85.39H53v1.26H79.87Zm-5.73-3.78,5.73-5.73L78.43,75.7,74.14,80l-2.63-2.63L70.07,78.8Zm5.74-10.79V70.81H53v1.26H79.88Zm-5.73-3.79,5.73-5.73-1.44-1.44-4.29,4.29-2.63-2.63-1.44,1.44ZM79.87,57.5V56.24H53V57.5H79.87Zm-5.73-3.78L79.87,48l-1.44-1.44-4.29,4.29L71.51,48.2l-1.44,1.44Zm5.73-11.44V33.53H63.36v5.72h-1V33.53H60.59V36.4h-1V33.53H57.83V36.4h-1V33.53H55.06V36.4H54V33.53H52.3v5.72h-1V33.53H49.52V36.4h-1V33.53H46.76V36.4h-1V33.53H44V36.4H43V33.53H41.22v5.72h-1V33.53H38.45V36.4h-1V33.53H35.69V36.4h-1V33.53H32.92V36.4h-1V33.53H30.15v5.72h-1V33.53H27.39V36.4h-1V33.53H24.62V36.4h-1V33.53H21.86V36.4h-1V33.53H7.32v8.74H79.87ZM42.8,24a5.69,5.69,0,0,0,1.65-.88A5.88,5.88,0,0,0,45.62,22a6.79,6.79,0,0,0,.75-1.29l-3.31-1.52a2.67,2.67,0,0,1-.53.92,2.74,2.74,0,0,1-.86.67A2.37,2.37,0,0,1,40.6,21,3.1,3.1,0,0,1,39,20.57a2.84,2.84,0,0,1-1.07-1.14,3.5,3.5,0,0,1,0-3.22A2.86,2.86,0,0,1,39,15.08a3.08,3.08,0,0,1,1.62-.43,2.4,2.4,0,0,1,1.07.26,2.77,2.77,0,0,1,.86.67,2.69,2.69,0,0,1,.53.92L46.36,15a6.73,6.73,0,0,0-.75-1.31,6,6,0,0,0-1.17-1.19,5.53,5.53,0,0,0-1.65-.85,6.92,6.92,0,0,0-2.19-.33,8.09,8.09,0,0,0-2.77.48,6.72,6.72,0,0,0-2.22,1.33,6.15,6.15,0,0,0-1.47,2.08,7,7,0,0,0,0,5.35,6.14,6.14,0,0,0,1.47,2.07,6.55,6.55,0,0,0,2.22,1.34,8,8,0,0,0,2.77.48A6.92,6.92,0,0,0,42.8,24Zm-24.6.12V14.82h3.39V11.47H11v3.35h3.41v9.34H18.2Zm14.38,0V20.81H26.8V19.42h5.65V16.08H26.8V14.82h5.78V11.47H23V24.16h9.62Zm21.53,0V14.82H57.5V11.47H46.87v3.35h3.4v9.34h3.84Zm13.5-.35a3.89,3.89,0,0,0,2.31-2.32,4.94,4.94,0,0,0,0-3.36A4,4,0,0,0,69,16.75a4.09,4.09,0,0,0-1.43-.94,5.36,5.36,0,0,0-2-.34H62.72v-4H58.87V24.16h6.78A5.4,5.4,0,0,0,67.61,23.81Zm7.22,0.35V11.47H71V24.16h3.84ZM62.72,20.81v-2h2.44a1.56,1.56,0,0,1,.59.11,0.94,0.94,0,0,1,.42.33,1,1,0,0,1,.16.55,1,1,0,0,1-.16.56,0.92,0.92,0,0,1-.42.33,1.5,1.5,0,0,1-.59.11H62.72Z"/></g></g></g></svg>