<svg id="Layer_1" data-name="Layer 1" xmlns="http://www.w3.org/2000/svg" viewBox="0 0 85.4 97.5"><title>ico-helper-menu-15</title><g id="Document"><g id="Spread"><g id="MouseOff"><path d="M0,79.92V17.58A17.58,17.58,0,0,1,17.58,0H67.82A17.59,17.59,0,0,1,85.4,17.58V79.92A17.59,17.59,0,0,1,67.82,97.5H17.58A17.58,17.58,0,0,1,0,79.92Zm74.83,0V17.58a7,7,0,0,0-7-7H17.58a7,7,0,0,0-7,7V79.92a7,7,0,0,0,7,7H67.82A7,7,0,0,0,74.83,79.92Zm-45.29-3q-4.71-3.51-4.71-10.18l9.5,0a5.24,5.24,0,0,0,2.1,4.49q2.1,1.56,6.27,1.56a10.35,10.35,0,0,0,5.59-1.23,3.76,3.76,0,0,0,1.9-3.3,4,4,0,0,0-2.12-3.48,34,34,0,0,0-8.11-3,38.47,38.47,0,0,1-9-3.47A12.82,12.82,0,0,1,26.39,54,11.28,11.28,0,0,1,24.9,48a9.76,9.76,0,0,1,5.32-9,11.19,11.19,0,0,1-4.47-9.46,10.78,10.78,0,0,1,4.61-9.06Q35,17.08,42.83,17.08q8.11,0,12.58,3.71t4.47,10.31h-9.5a5.82,5.82,0,0,0-2-4.61,8.15,8.15,0,0,0-5.54-1.76A10.25,10.25,0,0,0,37.25,26a4,4,0,0,0-2,3.52,4.06,4.06,0,0,0,1.82,3.61Q38.92,34.36,45,36a41,41,0,0,1,9.28,3.42A12.7,12.7,0,0,1,59,43.71a11.35,11.35,0,0,1,1.54,6.06,9.53,9.53,0,0,1-5.32,8.9,11.17,11.17,0,0,1,4.43,9.46,10.51,10.51,0,0,1-4.52,9q-4.52,3.27-12.47,3.27Q34.26,80.42,29.54,76.9ZM51.18,50.72a4.22,4.22,0,0,0-1.49-3.33,17,17,0,0,0-5.37-2.61l-7.46-2.33a4.88,4.88,0,0,0-2.46,4.63,4.47,4.47,0,0,0,1.36,3.5,16.15,16.15,0,0,0,5.44,2.54l7.29,2.2A5,5,0,0,0,51.18,50.72Z"/></g></g></g></svg>