<svg id="Layer_1" data-name="Layer 1" xmlns="http://www.w3.org/2000/svg" viewBox="0 0 50.41 48.42"><defs><style>.cls-1{fill:#00a2e0;}</style></defs><title>ico-rain</title><g id="Document"><g id="Spread"><g id="Layer_1-2" data-name="Layer 1"><g id="Group"><g id="Group_9" data-name="Group 9"><path class="cls-1" d="M113,44.48c0-8.38,2.89-15.42,6.8-17.39a26.71,26.71,0,0,1,4.76.36h-3.58a10.47,10.47,0,0,0-.91.8H124a3.26,3.26,0,0,1,1.79-.47c3.79,0,6.86,7.48,6.86,16.69,0,8.52-2.63,15.55-6,16.56a24.64,24.64,0,0,1-7,.76C115.79,59.76,113,52.78,113,44.48ZM113,61.2a9.86,9.86,0,0,1-1.58-1.25h2.65c-0.23-.24-0.46-0.49-0.68-0.75h-2.69a14.26,14.26,0,0,1-1-1.36h2.71c-0.18-.28-0.36-0.56-0.54-0.86h-2.72a18.82,18.82,0,0,1-1.05-2.09h2.72q-0.21-.49-0.41-1h-2.71a24,24,0,0,1-.84-2.74h2.7c-0.08-.33-0.16-0.66-0.23-1h-2.69a27.58,27.58,0,0,1-.42-2.85h2.68c0-.33-0.06-0.66-0.08-1h-2.68q-0.05-.9-0.05-1.83c0-.33,0-0.67,0-1h2.68c0-.55.05-1.1,0.1-1.63h-2.68q0.1-1.18.3-2.31h2.69q0.15-.83.34-1.63h-2.69c0.18-.77.4-1.51,0.64-2.22h2.71c0.18-.51.37-1,0.58-1.5h-2.71q0.37-.87.8-1.66h2.72q0.43-.79.9-1.49h-2.71a13.77,13.77,0,0,1,.87-1.14h2.69c0.29-.35.58-0.69,0.89-1H111.6c0.24-.23.49-0.44,0.74-0.64h2.57a11.11,11.11,0,0,1,1-.8l2.38-.33c-4,2-6.94,9-6.94,17.35s2.87,15.16,6.79,17.27A37.94,37.94,0,0,1,113,61.2Zm9.65-2h-3.95q0.29,0.39.59,0.75h3.95Q123,59.59,122.7,59.2ZM121.35,57H117.4c0.15,0.3.31,0.58,0.47,0.86h3.95Q121.57,57.42,121.35,57ZM130,44.48c0-7-1.79-12.62-4-12.62s-4,5.65-4,12.62,1.79,12.62,4,12.62S130,51.45,130,44.48Zm-9.92,9.42h-3.95q0.17,0.51.35,1h3.95Q120.24,54.41,120.07,53.9Zm2.52-9.42c0-5.51,1.31-10,2.92-10s2.92,4.47,2.92,10-1.31,10-2.92,10S122.58,50,122.58,44.48Zm-3.46,5.68h-3.95q0.09,0.51.2,1h3.95C119.25,50.83,119.18,50.5,119.13,50.16Zm-0.45-3.84h-4c0,0.33,0,.67.07,1h3.95C118.72,47,118.69,46.65,118.68,46.32Zm0.05-4.46h-3.95c0,0.54-.07,1.08-0.09,1.63h3.95C118.66,42.94,118.69,42.39,118.73,41.85Zm0.57-3.95h-3.95c-0.11.53-.22,1.08-0.3,1.63H119C119.09,39,119.19,38.44,119.3,37.91Zm1.07-3.72h-3.95c-0.18.48-.35,1-0.5,1.5h3.95C120,35.17,120.19,34.68,120.38,34.19ZM121.87,31h-3.95c-0.28.47-.54,1-0.79,1.5h4C121.33,32,121.59,31.51,121.87,31Zm1.52-2.13h-3.95q-0.4.47-.78,1h4Q123,29.37,123.39,28.9Z" transform="translate(-101.88 -13.39)"/><path class="cls-1" d="M102.82,48.62c3.82-1.11,1.91,4.62,4.18,6.88C102.56,54.78,100.57,49.27,102.82,48.62Z" transform="translate(-101.88 -13.39)"/><path class="cls-1" d="M137.82,49.61c2,2.66-2.92,3.17-4.59,5.89C132.89,51,136.43,47.74,137.82,49.61Z" transform="translate(-101.88 -13.39)"/><path class="cls-1" d="M139.34,57.1c0.22,5-6.28,1.78-9,3.54C134.47,55.39,138.43,53.92,139.34,57.1Z" transform="translate(-101.88 -13.39)"/><path class="cls-1" d="M103.35,58.09c-0.14,3.23,4.1,1.16,5.84,2.31C106.43,55.87,103.94,56,103.35,58.09Z" transform="translate(-101.88 -13.39)"/><path class="cls-1" d="M135.09,31.12a1.82,1.82,0,0,1-.75-2.46,5.77,5.77,0,0,1,3.19-2.1,0.3,0.3,0,0,1,.35.21,5.76,5.76,0,0,1-.28,3.81A1.82,1.82,0,0,1,135.09,31.12Zm5.36,0a1.82,1.82,0,0,1-.75-2.46,5.77,5.77,0,0,1,3.19-2.1,0.3,0.3,0,0,1,.35.21,5.76,5.76,0,0,1-.28,3.81A1.82,1.82,0,0,1,140.45,31.12Zm-3.37-.84a3.88,3.88,0,0,0,.37-1.47,5.8,5.8,0,0,0,0-1.43l0-.15-0.16.05A5.16,5.16,0,0,0,134.85,29,1.31,1.31,0,0,0,137.08,30.28Zm5.36,0a3.84,3.84,0,0,0,.37-1.47,5.7,5.7,0,0,0,0-1.43l0-.15-0.16.05A5.16,5.16,0,0,0,140.21,29,1.31,1.31,0,0,0,142.45,30.28Zm-8.8-3.88a2.22,2.22,0,0,1-1.13-2h-1.13c-1.72,0-3.11-.82-3.11-1.83s1.4-1.83,3.11-1.83a5,5,0,0,1,1.48.22,2.87,2.87,0,0,1-.07-0.62,3.48,3.48,0,0,1,3.67-3.24,4.07,4.07,0,0,1,1.21.18h0a4.4,4.4,0,0,1,8.74,0s0,0.09,0,.14a3,3,0,0,1,1.87,2.69,2.7,2.7,0,0,1-.1.72,5.21,5.21,0,0,1,1-.09c1.72,0,3.11.82,3.11,1.83s-1.39,1.83-3.11,1.83h-1.44a4.3,4.3,0,0,1-.45,1.4,2.11,2.11,0,0,1-2.92.63,2.22,2.22,0,0,1-1.13-2h-0.91a4.3,4.3,0,0,1-.45,1.4,2.11,2.11,0,0,1-2.92.63,2.22,2.22,0,0,1-1.13-2H137a4.3,4.3,0,0,1-.45,1.4A2.11,2.11,0,0,1,133.65,26.4Zm2.32-1a4.5,4.5,0,0,0,.43-1.71,6.69,6.69,0,0,0-.06-1.66l0-.18-0.19.06a6,6,0,0,0-2.75,2A1.52,1.52,0,0,0,136,25.42Zm5.33,0a4.47,4.47,0,0,0,.43-1.71,6.6,6.6,0,0,0-.06-1.66l0-.18-0.19.06a6,6,0,0,0-2.75,2A1.52,1.52,0,0,0,141.29,25.42Zm5.4,0a4.46,4.46,0,0,0,.43-1.71,6.69,6.69,0,0,0-.06-1.66l0-.18-0.18.06a6,6,0,0,0-2.75,2A1.52,1.52,0,0,0,146.69,25.42Z" transform="translate(-101.88 -13.39)"/></g></g></g></g></g></svg>