<svg id="Layer_1" data-name="Layer 1" xmlns="http://www.w3.org/2000/svg" viewBox="0 0 92.11 97.5"><title>ico-helper-menu-12</title><g id="Document"><g id="Spread"><g id="MouseOff"><path d="M0,20.55C13.48,10.43,29,3.92,46.06,0c17,3.92,32.58,10.43,46.05,20.55C90.66,61,72.74,83.89,46.06,97.5,19.37,83.89,1.45,61,0,20.55ZM58.94,67.87A25.71,25.71,0,0,0,68.35,58a28.94,28.94,0,0,0,.06-27.28A25.39,25.39,0,0,0,59,20.82a25.09,25.09,0,0,0-25.92,0,25.38,25.38,0,0,0-9.39,9.88,29,29,0,0,0,0,27.23,25.74,25.74,0,0,0,9.37,9.9A25,25,0,0,0,58.94,67.87ZM35.1,63.79a21.36,21.36,0,0,1-7.67-8.32,23.83,23.83,0,0,1-2.7-11.17,23.54,23.54,0,0,1,2.83-11.38,21.07,21.07,0,0,1,7.78-8.19,20.42,20.42,0,0,1,10.71-3,20.15,20.15,0,0,1,10.88,3.1,21.26,21.26,0,0,1,7.69,8.26,24.4,24.4,0,0,1,0,22.39,21.38,21.38,0,0,1-7.67,8.3A20.64,20.64,0,0,1,35.1,63.79Zm5.73-4.51V47.06h5.73a5.45,5.45,0,0,1,4,1.21,5.51,5.51,0,0,1,1.2,4q0,5.8.47,7h5.62V58.7a7.1,7.1,0,0,1-.49-2.07q-0.12-1.23-.13-4.22a13.24,13.24,0,0,0-.83-5,6.38,6.38,0,0,0-2.94-3.19A6.76,6.76,0,0,0,57.33,38a8.59,8.59,0,0,0-3.1-7q-3.1-2.54-8.68-2.54H35.36V59.28h5.48Zm0-17.08V33.28h5.11q3.37,0,4.66,1.11A4.46,4.46,0,0,1,51.89,38a3.47,3.47,0,0,1-1.83,3.06,8.51,8.51,0,0,1-4.59,1.14H40.83Z"/></g></g></g></svg>