<svg id="Layer_1" data-name="Layer 1" xmlns="http://www.w3.org/2000/svg" viewBox="0 0 112.5 86.57"><title>ico-helper-news-4</title><g id="Document"><g id="Spread"><g id="MouseOff"><path d="M101.75,86.57L88.65,77.32H62.45A5.46,5.46,0,0,1,57,71.86V44.19a5.46,5.46,0,0,1,5.46-5.46H107a5.46,5.46,0,0,1,5.46,5.46V71.86A5.46,5.46,0,0,1,107,77.32h-5.29v9.25Zm-66.42-16L20.41,62l14.92-8.55v4.92H50.22v7.28H35.33v4.92ZM87,71.5a2.78,2.78,0,0,0,.85-2.09A2.81,2.81,0,0,0,87,67.32a3.06,3.06,0,0,0-2.23-.83,3.11,3.11,0,0,0-2.25.82,3,3,0,0,0,0,4.19A3.46,3.46,0,0,0,87,71.5Zm0.07-8L87.7,44.18H81.81l0.65,19.29h4.59ZM10.75,47.84V38.59H5.46A5.46,5.46,0,0,1,0,33.13V5.46A5.46,5.46,0,0,1,5.46,0h44.6a5.46,5.46,0,0,1,5.46,5.46V33.13a5.46,5.46,0,0,1-5.46,5.46H23.85Zm19-15.15a3,3,0,0,0,0-4.19,3.39,3.39,0,0,0-4.45,0,3,3,0,0,0,0,4.19,3.08,3.08,0,0,0,2.25.82A3.09,3.09,0,0,0,29.71,32.69Zm0.1-8,0.08-1.17a5.25,5.25,0,0,1,1.66-3.27l1.55-1.47a12.61,12.61,0,0,0,2.55-3.2,6.73,6.73,0,0,0,.73-3.07A7,7,0,0,0,34.13,7a9.23,9.23,0,0,0-6.29-2A9.21,9.21,0,0,0,21.5,7.13a7.37,7.37,0,0,0-2.36,5.72h5.54a3.41,3.41,0,0,1,.89-2.4,3,3,0,0,1,2.26-.87q3,0,3,3.23a3.91,3.91,0,0,1-.57,2,12.29,12.29,0,0,1-2.3,2.51,8.71,8.71,0,0,0-2.38,3.13,11.45,11.45,0,0,0-.65,4.26h4.89Zm47.36-.87V19H62.28V11.69H77.17V6.77l14.92,8.55Z"/></g></g></g></svg>