<svg id="Layer_1" data-name="Layer 1" xmlns="http://www.w3.org/2000/svg" viewBox="0 0 92.11 97.5"><title>ico-helper-menu-10</title><g id="Document"><g id="Spread"><g id="MouseOff"><path d="M0,20.55C13.48,10.43,29,3.92,46.05,0c17,3.92,32.58,10.43,46.06,20.55C90.66,61,72.74,83.89,46.05,97.5,19.37,83.89,1.45,61,0,20.55ZM54.44,86.3V72H38.11V86.58h0a86.87,86.87,0,0,0,7.94,4.58A85.69,85.69,0,0,0,54.44,86.3ZM32.26,82.39V72h-4V69.24l-5,4.54h0A67.5,67.5,0,0,0,32.26,82.39Zm36.58-8.6h0L64.6,69.92V72H59.86V82.38A67.07,67.07,0,0,0,68.84,73.79ZM21,71h0l7.29-6.67V59.58l4-4.26V46.23H27.51V41a18,18,0,0,1,1-6L17,45.52v12.1L28.78,46.82v2.9L17,60.52v4.61A64.21,64.21,0,0,0,21,71Zm54.2-5.83v-4.6L63.34,49.72v-2.9L75.17,57.63V45.52l-12.5-11.4a17.74,17.74,0,0,1-1.28,13.21,24.13,24.13,0,0,1-1.52,2.6V55.5H64.6v9.45l6.54,6,0,0A64.7,64.7,0,0,0,75.15,65.12ZM59.34,66.79v-6H43.15l8.56-9a31.74,31.74,0,0,0,5-6.75,12.69,12.69,0,0,0,1.45-5.69A9.9,9.9,0,0,0,54.9,31.4q-3.22-2.79-9-2.79a14.09,14.09,0,0,0-6.8,1.62,11.57,11.57,0,0,0-4.64,4.46A12.36,12.36,0,0,0,32.77,41h7.5a6.92,6.92,0,0,1,1.46-4.59,4.94,4.94,0,0,1,4-1.75,4.58,4.58,0,0,1,3.62,1.43A5.76,5.76,0,0,1,50.62,40a7.72,7.72,0,0,1-1.2,3.88,30.15,30.15,0,0,1-3.71,4.78l-12.18,13v5.12H59.34ZM38.11,49.09l2.68-2.86H38.11v2.86ZM17,40.55l15.3-14V10.32A103.6,103.6,0,0,0,17,17.14V23.6L28.78,12.79v2.9L17,26.49V40.55Zm58.19,0V26.49L63.34,15.69v-2.9L75.17,23.6V17.14a103.35,103.35,0,0,0-15.31-6.82V26.6ZM54.44,25V8.55q-4.12-1.24-8.39-2.22-4,.93-7.94,2.09V24.85a19.78,19.78,0,0,1,7.75-1.51A21.28,21.28,0,0,1,54.44,25Zm-16.33-.08v0Z"/></g></g></g></svg>