<svg id="Layer_1" data-name="Layer 1" xmlns="http://www.w3.org/2000/svg" viewBox="0 0 105 86.08"><title>ico-helper-news-6</title><g id="Document"><g id="Spread"><g id="MouseOff"><path d="M80.44,85.19a7,7,0,0,1-1-1.37,4,4,0,0,0-.7-1,2.3,2.3,0,0,0-1.33-.44,6.32,6.32,0,0,0-1.92.54c-0.68.22-1.34,0.86-2,.7-0.44-.1-0.51-0.89-1-1a1.35,1.35,0,0,0-1.05.58A7.93,7.93,0,0,1,71,84.33a3.38,3.38,0,0,1-.79.13,6.34,6.34,0,0,1-.67.54,1.5,1.5,0,0,1-1.34-.16A2.12,2.12,0,0,1,68,84a7.52,7.52,0,0,0-.42-0.64c-0.25-.45-0.44-0.94-0.67-1.4a1.77,1.77,0,0,0-.54-1.08c-0.43-.15-0.8.46-1.24,0.54a5.22,5.22,0,0,0-1.15,0,2.24,2.24,0,0,0-.89,1.08c-0.23.45,0,1.14-.41,1.46a1.27,1.27,0,0,1-1.31.13c-0.64-.34-0.53-1.38-1-1.91a1.52,1.52,0,0,0-1-.6c-0.7,0-1.13,1.19-1.82,1s-0.6-1.68-1.34-1.78-1,1.2-1.75,1.31-1.16-.76-1.75-0.61a2.1,2.1,0,0,0-.89,1c-0.22.31-.18,0.9-0.54,1a1.4,1.4,0,0,1-1.27-1c-0.19-.45.45-1,0.19-1.46a0.77,0.77,0,0,0-.74-0.25,6.09,6.09,0,0,0-.6.41,3.16,3.16,0,0,1-.83-0.06c-0.81,0-1.72.49-2.42,0.09a1.82,1.82,0,0,1-.48-0.89c-0.31-.63-0.22-1.63-0.86-1.91s-1.26.66-1.94,0.64a5.54,5.54,0,0,1-.76-0.32H40.32c-0.53-.15-0.87-0.75-1.4-0.86s-1.2.39-1.78,0.26a15.07,15.07,0,0,1-1.34-.92c-0.73-.26-1.56,0-2.3-0.19s-1.15-.83-1.81-1.05a4.47,4.47,0,0,0-1.91-.22c-0.64.07-1.17,0.7-1.81,0.67-0.4,0-.69-0.46-1.09-0.51-0.63-.08-1.25.45-1.88,0.38-0.84-.09-1.48-1-2.32-1s-1.46,1-2.29,1c-0.44,0-.81-0.46-1.24-0.45-0.63,0-1.1.67-1.72,0.8-0.81.17-1.67-.21-2.48-0.06a2.61,2.61,0,0,0-1.56.61c-0.54.62,0,1.81-.57,2.39-0.35.35-1,.13-1.43,0.35-0.71.36-1.09,1.23-1.82,1.56a1.88,1.88,0,0,1-1.47.22c-0.3-.14-0.22-0.7-0.51-0.86H7c-0.4-.16-0.52-0.93-1-0.89a0.84,0.84,0,0,0-.53.69,4.59,4.59,0,0,0,.1,1.12,1.21,1.21,0,0,1-.12.83,0.79,0.79,0,0,1-.77.12A1.55,1.55,0,0,1,3.94,82a4.48,4.48,0,0,1-.16-1.43,5.18,5.18,0,0,1-.14-2,1.22,1.22,0,0,1,.51-0.61,2.4,2.4,0,0,0,.65-0.16,1.62,1.62,0,0,0,.06-1,5.58,5.58,0,0,1,0-.77c0-.32.27-0.59,0.33-0.9a2.18,2.18,0,0,0,0-.87,4.57,4.57,0,0,0-.56-1.09,5.79,5.79,0,0,0-.57-1,5.71,5.71,0,0,0-1.1-.9c-0.43-.3-0.91-0.55-1.37-0.81a2.68,2.68,0,0,1-.84-0.49,3.89,3.89,0,0,1-.2-0.71A2.34,2.34,0,0,1,0,68.48,0.93,0.93,0,0,1,.33,68c0.21-.26.45-0.49,0.67-0.73s0.57-.62.84-1a13.15,13.15,0,0,0,.81-1.19A6.37,6.37,0,0,1,3.26,64a4.63,4.63,0,0,1,1.82-1.1,7.08,7.08,0,0,1,1.32-.18,1.39,1.39,0,0,0,.39-0.06A4.34,4.34,0,0,0,7.59,62a2.54,2.54,0,0,0,.78-0.57,1.93,1.93,0,0,0,.1-1.1C8.41,59.66,8,59.06,8,58.4a2.35,2.35,0,0,1,.16-1.1c0.1-.21.37-0.31,0.45-0.53a1.87,1.87,0,0,0,0-1.1c-0.07-.29-0.38-0.5-0.45-0.8a6.36,6.36,0,0,1,.06-1.26,3.37,3.37,0,0,0-.08-0.79c-0.19-.72-0.66-1.34-0.92-2A31.23,31.23,0,0,1,6,46.7a15.91,15.91,0,0,0-.45-3C5.41,43.35,5,43.2,4.91,42.88a6.22,6.22,0,0,1-.08-3.08,1.47,1.47,0,0,1,.43-1.2c0.34-.14.65,0.35,1,0.45s0.69,0,1,.1a3.5,3.5,0,0,0,.88.45c0.52,0,.86-0.73,1.39-0.76s0.8,0.55,1.26.55c0.62,0,1.1-.77,1.71-0.71a3.27,3.27,0,0,1,1.14.77,2.17,2.17,0,0,0,1.16.61,1.57,1.57,0,0,0,.61-0.53c0.39-.31.81-0.61,1.22-0.9s0.76-.94,1.22-0.79a1.46,1.46,0,0,1,.19.45,0.67,0.67,0,0,0,.65.16,0.84,0.84,0,0,0,.37-0.82,2.31,2.31,0,0,0-.43-0.53,1.18,1.18,0,0,1-.18-0.85,1.27,1.27,0,0,1,.75-0.55,2.77,2.77,0,0,1,1.53-.33,5.67,5.67,0,0,0,.76.45,1.12,1.12,0,0,0,.65-0.4c0.52-.49.69-1.33,1.28-1.72a3.08,3.08,0,0,1,2.08-.47,2.56,2.56,0,0,1,1.41.86,3.3,3.3,0,0,1,.51,1.1,1.06,1.06,0,0,0,.21.69,0.74,0.74,0,0,0,.67-0.32A1.44,1.44,0,0,0,28.61,35a1.49,1.49,0,0,0,.13-0.65,1.1,1.1,0,0,0-.43-0.84,2.63,2.63,0,0,0-.57.08A1.54,1.54,0,0,1,27,33.06a1,1,0,0,1-.33-0.64,2.79,2.79,0,0,1,.45-0.69c0.11-.26.07-0.57,0.14-0.84A7.72,7.72,0,0,1,28,29.16a6.35,6.35,0,0,0,.67-0.88,2.43,2.43,0,0,0,0-.75c0-.7-0.09-1.41,0-2.1a5,5,0,0,1,.45-2.16,4.53,4.53,0,0,1,1.85-1.53c0.49-.25,1.1-0.19,1.59-0.45A2.77,2.77,0,0,0,34,20.13c0.13-.33-0.23-0.72-0.12-1.06a1.64,1.64,0,0,1,.84-1c0.61-.27,1.35.21,2,0.06,0.23,0,.41-0.25.63-0.32a3.4,3.4,0,0,0,.87-0.14,3.09,3.09,0,0,0,.55-1,1.8,1.8,0,0,0,.67-0.9,0.62,0.62,0,0,0-.51-0.37c-0.55-.13-1.13.39-1.67,0.24a1.36,1.36,0,0,1-1.06-.82c-0.12-.63.95-1,1-1.67,0-.45-0.61-0.78-0.57-1.23a3.72,3.72,0,0,1,.94-1.28A2.25,2.25,0,0,0,38,9.75c0-.37-0.5-0.71-0.37-1.06a1.31,1.31,0,0,1,1-.63,8.52,8.52,0,0,0,.94.18c0.79-.25,1-1.31,1.71-1.79a3.34,3.34,0,0,1,1.61-.75c0.75-.06,1.41.63,2.16,0.65,0.22,0,.43-0.14.65-0.14s0.64,0.23,1,.22A1.88,1.88,0,0,0,48.09,6c0.38-.45,0-1.22.2-1.77A2,2,0,0,1,49,3.12c0.31-.19.85,0.17,1.1-0.1a6,6,0,0,0,0-.81,3.54,3.54,0,0,1,1.1-.55A14.48,14.48,0,0,1,52.29.51,2.63,2.63,0,0,1,54.14,0c0.51,0.13.67,0.94,1.18,1.08A1.7,1.7,0,0,0,56,1,5.18,5.18,0,0,1,57.73.63a2.58,2.58,0,0,1,1.39.67c0.45,0.42.32,1.46,0.92,1.61s0.82-.53,1.25-0.75a3.23,3.23,0,0,1,1.26-.57A3,3,0,0,1,63.68,2c0.55,0.22,1.06.52,1.61,0.71s1.41,0,1.78.47,0,1.25,0,1.88a4.9,4.9,0,0,0-.08.71,1.47,1.47,0,0,0,.33,1,0.68,0.68,0,0,0,.61.11A9.68,9.68,0,0,0,68.7,6c0.48-.23,1.13.09,1.59-0.18A5.43,5.43,0,0,0,70.87,5a2.28,2.28,0,0,1,1.3-.74c0.54,0,1,.78,1.49.65a0.79,0.79,0,0,0,.2-0.24,1.73,1.73,0,0,1,.94-0.61c0.93,0,1.64.89,2.45,1.35S79,6,79.43,6.71c0.15,0.22,0,.59.12,0.79a5.08,5.08,0,0,0,.78.26c0.26,0.22.15,0.86,0.49,0.9a1.09,1.09,0,0,0,.41-0.45A0.87,0.87,0,0,1,81.81,8a1.39,1.39,0,0,1,.9.79,2.52,2.52,0,0,1,0,1.1c0,0.18,0,.37,0,0.55a7,7,0,0,0,0,.92,5,5,0,0,1,.18,1c-0.09.64-.89,1.11-0.84,1.75,0.09,1.08,1.54,1.64,1.88,2.67A3.38,3.38,0,0,1,84,19a4.1,4.1,0,0,1-.63.69c-0.14.19-.19,0.44-0.33,0.63a4.28,4.28,0,0,0-.63.57,2.73,2.73,0,0,0,0,1.08,2.26,2.26,0,0,0,0,1,2.67,2.67,0,0,0,1.21.92,9.28,9.28,0,0,1,1.91.76,2.79,2.79,0,0,1,.83,1.69c0.05,0.46-.51.92-0.32,1.34a2.07,2.07,0,0,0,.64.32,3.18,3.18,0,0,1,.8,1.3c0.29,0.81-.23,1.92.35,2.55a3.66,3.66,0,0,0,.93.19c0.35,0.2.47,0.71,0.82,0.92a10.71,10.71,0,0,0,1.82.51c0.39,0.15.74,0.39,1.11,0.57a4.28,4.28,0,0,1,1.75.83A3,3,0,0,1,94.49,37a13.83,13.83,0,0,0-.54,1.4,1.17,1.17,0,0,0,.38,1c0.53,0.31,1.23-.18,1.85-0.29a4,4,0,0,1,1.31-.26c0.71,0.12,1.18.89,1.88,1.09a5.54,5.54,0,0,1,1,0,1.75,1.75,0,0,1,1.05,1.34,4,4,0,0,1-.48.61,1.65,1.65,0,0,0,.25,1.24,2.34,2.34,0,0,0,1.59,1.05,7.19,7.19,0,0,1,.67-0.29,2.17,2.17,0,0,1,1.37,1.53c0.24,0.79.29,2-.38,2.46-0.29.2-.7-0.23-1.05-0.19a2.22,2.22,0,0,0-1.37.61c-0.33.36-.17,1-0.48,1.4s-0.69.27-.93,0.54-0.14.65-.35,0.89a6.36,6.36,0,0,1-1.31.73c-0.54.38-.86,1.13-1.5,1.31a1.55,1.55,0,0,1-.79-0.13c-0.45-.12-0.86-0.38-1.31-0.47a4.26,4.26,0,0,1-1.24-.1c-0.47-.28-0.4-1.2-0.92-1.37s-0.82.43-1.27,0.48-1.07-.48-1.47-0.19,0,1.06-.25,1.53c-0.11.23-.4,0.34-0.51,0.57a1.24,1.24,0,0,0-.13.8,2.88,2.88,0,0,0,.79,1.08c0.37,0.42.88,0.72,1.21,1.18a4.87,4.87,0,0,1,.38.8,3.53,3.53,0,0,1,.57,1.31c0,0.42-.53.76-0.48,1.18a1.88,1.88,0,0,0,.73,1.05,3.34,3.34,0,0,1,.86.48,3.37,3.37,0,0,1-.06,1.75A10,10,0,0,0,93.53,65a4,4,0,0,0,.35,1c0.29,0.65.77,1.21,1,1.88s0.9,1.51.48,2.07c-0.65.87-2.18,0-3.25,0.19a5.05,5.05,0,0,0-1.5.38c-0.54.27-.81,1-1.4,1.15a3.68,3.68,0,0,1-.77-0.19,2.71,2.71,0,0,0-1.85.35c-0.46.4-.29,1.19-0.57,1.72a3.2,3.2,0,0,1-.83,1.05c-0.13.1-.32,0.09-0.45,0.19a4.38,4.38,0,0,0-.92,1.37A19.6,19.6,0,0,1,83,78.28a7.91,7.91,0,0,0-.61.54,0.56,0.56,0,0,0-.06.38,8.33,8.33,0,0,0,.67.92,8.37,8.37,0,0,1,.16,1.37c0.14,0.7.47,1.36,0.61,2.07a2.47,2.47,0,0,1,.13,1.53,2.08,2.08,0,0,1-1.72,1A2.74,2.74,0,0,1,80.44,85.19ZM11.9,72.75a3.11,3.11,0,1,0-3.11,3.1A3.11,3.11,0,0,0,11.9,72.75Zm77.65-7.42a3.1,3.1,0,1,0-3.1,3.1A3.11,3.11,0,0,0,89.55,65.33Zm-20.39-12a2.29,2.29,0,1,0-2.29,2.29A2.29,2.29,0,0,0,69.16,53.33ZM48.92,51.64h0c4.91-5.38,6-7.56,6-10.3a6,6,0,0,0-12,0c0,2.74,1.09,4.92,6,10.3h0Zm-35.8-7.19a3.1,3.1,0,1,0-3.1,3.1A3.11,3.11,0,0,0,13.13,44.45Zm32.22-3.11a3.58,3.58,0,1,1,3.58,3.58A3.58,3.58,0,0,1,45.35,41.34Zm35.23-2.28a3.11,3.11,0,1,0-3.11,3.11A3.11,3.11,0,0,0,80.58,39.06ZM78,16.63a3.11,3.11,0,1,0-3.1,3.11A3.11,3.11,0,0,0,78,16.63Z"/></g></g></g></svg>