<svg id="Layer_1" data-name="Layer 1" xmlns="http://www.w3.org/2000/svg" viewBox="0 0 99.15 112.5"><title>ico-helper-news-3</title><g id="Document"><g id="Spread"><g id="MouseOff"><path d="M16,110.89a5.19,5.19,0,0,1-1.61-3.8V42.2a5.48,5.48,0,0,1,5.41-5.41H79.32a5.48,5.48,0,0,1,5.41,5.41v64.9a5.49,5.49,0,0,1-5.41,5.41H19.83A5.2,5.2,0,0,1,16,110.89Zm15.66-6.2V98.41a2,2,0,0,0-2-2H21.94a2,2,0,0,0-2,2v6.28a2,2,0,0,0,2,2h7.74A2,2,0,0,0,31.68,104.7Zm15.79,0V98.41a2,2,0,0,0-2-2H37.73a2,2,0,0,0-2,2v6.28a2,2,0,0,0,2,2h7.73A2,2,0,0,0,47.47,104.7Zm15.79,0V98.41a2,2,0,0,0-2-2H53.52a2,2,0,0,0-2,2v6.28a2,2,0,0,0,2,2h7.74A2,2,0,0,0,63.26,104.7Zm15.79,0v-21a2,2,0,0,0-2-2H69.31a2,2,0,0,0-2,2V98.41h0v6.28a2,2,0,0,0,2,2H77A2,2,0,0,0,79.05,104.7ZM31.68,90V83.71a2,2,0,0,0-2-2H21.94a2,2,0,0,0-2,2V90a2,2,0,0,0,2,2h7.74A2,2,0,0,0,31.68,90Zm15.79,0V83.71a2,2,0,0,0-2-2H37.73a2,2,0,0,0-2,2V90a2,2,0,0,0,2,2h7.73A2,2,0,0,0,47.47,90Zm15.79,0V83.71a2,2,0,0,0-2-2H53.52a2,2,0,0,0-2,2V90a2,2,0,0,0,2,2h7.74A2,2,0,0,0,63.26,90ZM31.68,75.29V69a2,2,0,0,0-2-2H21.94a2,2,0,0,0-2,2v6.28a2,2,0,0,0,2,2h7.74A2,2,0,0,0,31.68,75.29Zm15.79,0V69a2,2,0,0,0-2-2H37.73a2,2,0,0,0-2,2v6.28a2,2,0,0,0,2,2h7.73A2,2,0,0,0,47.47,75.29Zm15.79,0V69a2,2,0,0,0-2-2H53.52a2,2,0,0,0-2,2v6.28a2,2,0,0,0,2,2h7.74A2,2,0,0,0,63.26,75.29Zm15.79,0V69a2,2,0,0,0-2-2H69.31a2,2,0,0,0-2,2v6.28a2,2,0,0,0,2,2H77A2,2,0,0,0,79.05,75.29Zm12.32,0.77V42.2a11.84,11.84,0,0,0-3.55-8.5,12,12,0,0,0-5.08-3.06,38.34,38.34,0,0,0-66.37,0,12,12,0,0,0-5,3.05,11.82,11.82,0,0,0-3.55,8.5V75.6a2.23,2.23,0,0,1-.9-0.87L4.36,69.88a0.7,0.7,0,0,1,.69-1.11h0c-0.27-.63-0.52-1.27-0.77-1.92l-0.13,0A2.36,2.36,0,0,1,2.59,65.3L1.13,60A0.69,0.69,0,0,1,2,59.1l0.08,0c-0.13-.67-0.24-1.34-0.34-2h0L1.58,57A2.39,2.39,0,0,1,.34,55.19L0,49.73A0.69,0.69,0,0,1,1.08,49l0.14,0.06c0-.68,0-1.36.07-2h0l-0.23-.17a2.35,2.35,0,0,1-.83-2L1,39.43a0.7,0.7,0,0,1,1.21-.49l0.16,0.13c0.16-.65.32-1.32,0.5-2l-0.22-.27a2.37,2.37,0,0,1-.39-2.16l1.92-5.12a0.69,0.69,0,0,1,1.28-.22l0.18,0.21h0c0.28-.6.57-1.2,0.88-1.8l-0.2-.37a2.39,2.39,0,0,1,.07-2.2l2.93-4.6a0.7,0.7,0,0,1,1.31,0l0.16,0.31c0.4-.54.81-1.06,1.22-1.57l0,0-0.15-.5a2.34,2.34,0,0,1,.53-2.13l3.83-3.9a0.7,0.7,0,0,1,1.27.32l0.12,0.41v0c0.5-.44,1-0.87,1.51-1.28l0-.55a2.37,2.37,0,0,1,1-2l4.55-3a0.7,0.7,0,0,1,1.17.57l0,0.42c0.57-.32,1.15-0.64,1.73-0.94v0l0.08-.62A2.35,2.35,0,0,1,29,4.47l5.08-2a0.69,0.69,0,0,1,1,.8l-0.06.44c0.63-.2,1.26-0.39,1.9-0.55l0.2-.56a2.37,2.37,0,0,1,1.67-1.42l5.38-.9a0.7,0.7,0,0,1,.85,1l-0.16.44h0c0.65-.06,1.3-0.12,2-0.14L47.18,1a2.36,2.36,0,0,1,1.94-1l5.46,0.24a0.7,0.7,0,0,1,.62,1.15l-0.25.4c0.66,0.07,1.3.16,2,.26l0.42-.46A2.4,2.4,0,0,1,59.44,1l5.29,1.37a0.7,0.7,0,0,1,.36,1.25L64.75,4l0,0c0.62,0.21,1.24.42,1.85,0.66l0.5-.35a2.34,2.34,0,0,1,2.18-.15l4.89,2.43a0.7,0.7,0,0,1,.09,1.3l-0.36.26c0.57,0.33,1.13.67,1.69,1l0.54-.22a2.36,2.36,0,0,1,2.17.3l4.28,3.4a0.69,0.69,0,0,1-.18,1.29L82,14.07h0c0.49,0.44,1,.89,1.44,1.36L84,15.31a2.39,2.39,0,0,1,2.06.75l3.48,4.22a0.7,0.7,0,0,1-.44,1.23l-0.36.07c0.39,0.53.77,1.09,1.14,1.65h0.5a2.38,2.38,0,0,1,1.87,1.16l2.52,4.85a0.7,0.7,0,0,1-.69,1.11H93.8c0.27,0.61.53,1.24,0.78,1.86L95,32.29a2.38,2.38,0,0,1,1.58,1.52L98,39.07a0.69,0.69,0,0,1-.9.94L96.89,40c0.13,0.66.26,1.33,0.37,2l0.32,0.15a2.36,2.36,0,0,1,1.23,1.82l0.33,5.45a0.7,0.7,0,0,1-1.08.74L97.9,50c0,0.69,0,1.37-.05,2l0.23,0.18a2.34,2.34,0,0,1,.82,2l-0.8,5.4a0.7,0.7,0,0,1-1.21.5l-0.09-.07c-0.15.67-.31,1.34-0.48,2l0.14,0.16a2.36,2.36,0,0,1,.38,2.16l-1.91,5.12a0.69,0.69,0,0,1-1.28.23l0,0c-0.28.63-.59,1.26-0.9,1.87l0.07,0.13a2.34,2.34,0,0,1-.07,2.19ZM78.52,57.62a2.61,2.61,0,0,0,.8-1.9V44.9a2.73,2.73,0,0,0-2.7-2.7H22.53a2.73,2.73,0,0,0-2.7,2.7V55.72a2.74,2.74,0,0,0,2.7,2.71H76.62A2.61,2.61,0,0,0,78.52,57.62Zm-29-44.34A36.55,36.55,0,0,1,80.39,30.2c-0.36,0-.71,0-1.08,0H77a33.78,33.78,0,0,0-54.89,0H19.83c-0.38,0-.75,0-1.11.05A36.54,36.54,0,0,1,49.56,13.28Zm-30.39-1v0h0v0ZM66.59,4.63l0,0h0Z"/></g></g></g></svg>