<svg id="Layer_1" data-name="Layer 1" xmlns="http://www.w3.org/2000/svg" viewBox="0 0 112.5 118.4"><title>ico-contacts-truck</title><g id="Document"><g id="Spread"><g id="MouseOff"><path d="M99.91,116.53v-5.37c1.91-.92,3.07-2.64,3.07-5.89V80.6a0.43,0.43,0,0,0-.26-0.42c-0.67-.06-2.34-0.12-2.34-0.17V51.41c0-3.35-.21-7.61-0.53-12.07L104.57,37a1.29,1.29,0,0,0,.25,0l6.25-.54a1.51,1.51,0,0,0,1.43-1.42V20a1.51,1.51,0,0,0-1.42-1.42h0l-6.25-.78a1.48,1.48,0,0,0-.31.06l-6.86-2c-0.17-1.52-.27-2.41-0.27-2.41C95.44,1.44,92,0,87,0H25.5c-5,0-8.44,1.44-10.38,13.41,0,0-.11.89-0.28,2.41L8,17.87a1.64,1.64,0,0,0-.32-0.06l-6.25.78h0A1.5,1.5,0,0,0,0,20V35.1a1.5,1.5,0,0,0,1.42,1.42l6.25,0.54a1.37,1.37,0,0,0,.25,0l4.71,2.33c-0.32,4.46-.53,8.72-0.53,12.07V80c0,0.06-1.67.11-2.33,0.17a0.44,0.44,0,0,0-.27.42v24.67c0,3.24,1.16,5,3.08,5.89v5.37a1.87,1.87,0,0,0,1.87,1.87H26.26a1.87,1.87,0,0,0,1.86-1.87v-4.12H84.38v4.12a1.87,1.87,0,0,0,1.86,1.87H98A1.87,1.87,0,0,0,99.91,116.53ZM86,104c0.15-.72,3.38-14.77,3.38-14.77a1.47,1.47,0,0,1,1.3-1.3h5.92a1.3,1.3,0,0,1,1.29,1.3v15a1.29,1.29,0,0,1-1.3,1.29H87.25A1.18,1.18,0,0,1,86,104Zm-71.46.24v-15a1.3,1.3,0,0,1,1.29-1.3h5.92a1.46,1.46,0,0,1,1.29,1.3s3.24,14,3.38,14.77a1.17,1.17,0,0,1-1.22,1.52H15.86A1.29,1.29,0,0,1,14.57,104.24Zm15.6-1.1-0.53-3.23a0.82,0.82,0,0,1,.79-1.21H82.07a0.83,0.83,0,0,1,.79,1.21l-0.53,3.23a2.17,2.17,0,0,1-1.61,1.61H31.79A2.15,2.15,0,0,1,30.17,103.14ZM27.87,93l-1-3.71c-0.29-1,0-1.5.89-1.5h57c0.86,0,1.19.45,0.89,1.5l-1,3.71a1.93,1.93,0,0,1-1.88,1.58h-53A1.92,1.92,0,0,1,27.87,93Zm3.68-14.94-0.92-1.49a0.27,0.27,0,0,1,.25-0.46H81.63a0.27,0.27,0,0,1,.26.46L81,78.08a1.17,1.17,0,0,1-.86.46H32.4A1.15,1.15,0,0,1,31.55,78.08Zm0-4.41-0.93-1.42c-0.17-.25-0.06-0.46.25-0.46H81.63c0.31,0,.42.2,0.26,0.46L81,73.67a1.15,1.15,0,0,1-.86.46H32.4A1.13,1.13,0,0,1,31.55,73.67Zm0-4.44-0.93-1.43a0.27,0.27,0,0,1,.25-0.46H81.63a0.27,0.27,0,0,1,.26.46L81,69.23a1.17,1.17,0,0,1-.86.46H32.4A1.15,1.15,0,0,1,31.55,69.23Zm0-4.45-0.93-1.42c-0.17-.25-0.06-0.46.25-0.46H81.63c0.31,0,.42.2,0.26,0.46L81,64.78a1.15,1.15,0,0,1-.86.47H32.4A1.13,1.13,0,0,1,31.55,64.78ZM15,43.33c-0.3-3.94,1.71-24.7,1.71-24.7A1.31,1.31,0,0,1,18,17.34H94.53a1.31,1.31,0,0,1,1.29,1.29s2,20.76,1.72,24.7c-0.06,4-5.29,6.08-10.32,6.08h-62C20.24,49.41,15,47.3,15,43.33ZM97.91,18.18l5.49,1.64V35.18h0L99.7,37C99.15,29.94,98.41,22.74,97.91,18.18ZM12.8,37L9.08,35.18h0V19.83l5.49-1.64C14.09,22.74,13.34,29.94,12.8,37Z"/></g></g></g></svg>