<?xml version="1.0" standalone="no"?>
<!DOCTYPE svg PUBLIC "-//W3C//DTD SVG 1.1//EN" "http://www.w3.org/Graphics/SVG/1.1/DTD/svg11.dtd">
<!--Generator: Xara Designer (www.xara.com), SVG filter version: 6.1.0.18-->
<svg stroke-width="0.501" stroke-linejoin="bevel" fill-rule="evenodd" xmlns:xlink="http://www.w3.org/1999/xlink" xmlns="http://www.w3.org/2000/svg" version="1.1" overflow="visible" width="144pt" height="144pt" viewBox="0 0 144 144">
 <defs>
	</defs>
 <g id="Document" fill="none" stroke="black" font-family="Times New Roman" font-size="16" transform="scale(1 -1)">
  <g id="Spread" transform="translate(0 -144)">
   <g id="001">
    <g id="Group" fill-rule="nonzero" stroke-linejoin="miter" stroke="none" stroke-width="1.463">
     <path d="M 144,14.4 C 144,6.449 137.553,-0.004 129.608,-0.004 L 14.393,-0.004 C 6.442,-0.004 0.001,6.449 0.001,14.4 L 0.001,129.608 C 0.001,137.554 6.442,144 14.393,144 L 129.608,144 C 137.553,144 144,137.554 144,129.608 L 144,14.4 Z" fill="#ed1d24" marker-start="none" marker-end="none"/>
     <path d="M 71.989,18.629 C 45.078,18.629 33.049,40.07 33.049,61.312 C 33.049,91.236 53.8,125.344 71.989,125.344 C 90.206,125.344 110.969,91.236 110.969,61.312 C 110.969,40.07 98.929,18.629 71.989,18.629 Z" fill="#ffffff" marker-start="none" marker-end="none"/>
    </g>
   </g>
  </g>
 </g>
</svg>
