<svg id="Layer_1" data-name="Layer 1" xmlns="http://www.w3.org/2000/svg" viewBox="0 0 127.5 75.01"><title>ico-helper-menu-3</title><g id="Document"><g id="Spread"><g id="MouseOff"><path d="M65.23,55.08h0l7.85-7.85a22.51,22.51,0,1,0,0-9.19l-7.86-7.86A32.38,32.38,0,1,1,65.23,55.08Zm-15,6.74V52H0V33.24H50.18v-9.8l19.2,19.19ZM80.46,42.63A14.66,14.66,0,1,1,95.12,57.3,14.67,14.67,0,0,1,80.46,42.63ZM6.29,28V24.21l8.92-9.51a21.88,21.88,0,0,0,2.72-3.5,5.61,5.61,0,0,0,.88-2.84,4.22,4.22,0,0,0-.93-2.89,3.35,3.35,0,0,0-2.65-1.05,3.61,3.61,0,0,0-2.93,1.28,5.05,5.05,0,0,0-1.07,3.36H5.74a9,9,0,0,1,1.2-4.6,8.47,8.47,0,0,1,3.4-3.26,10.31,10.31,0,0,1,5-1.19,9.78,9.78,0,0,1,6.62,2,7.24,7.24,0,0,1,2.36,5.78A9.25,9.25,0,0,1,23.25,12a23.07,23.07,0,0,1-3.64,4.94l-6.27,6.61H25.2V28H6.29Zm29.58,0V22H24.57l-0.25-3.45L35.82,0.38h5.53v17.2h3.13V22H41.35v6H35.87Zm0-10.38V7.84l-0.36.62-5.74,9.11h6.1Z"/></g></g></g></svg>