<svg id="Layer_1" data-name="Layer 1" xmlns="http://www.w3.org/2000/svg" viewBox="0 0 97.5 86.72"><title>40_write_to_specialist</title><g id="Document"><g id="Spread"><g id="MouseOff"><path d="M0,86.72V6.61A6.33,6.33,0,0,1,2,2,6.33,6.33,0,0,1,6.61,0H90.89a6.34,6.34,0,0,1,4.64,2,6.33,6.33,0,0,1,2,4.64v60a6.6,6.6,0,0,1-2,4.72,6.23,6.23,0,0,1-4.64,2H13.37ZM6.61,73.35l6.76-6.76H90.89v-60H6.61V73.35ZM54.14,61.09V51.24H81.72v9.86H54.14ZM14.72,48V38.1h67V48h-67Zm0-13.14V25h67v9.86h-67Zm0-13.14V11.82h67v9.86h-67Z"/></g></g></g></svg>