<svg id="Layer_1" data-name="Layer 1" xmlns="http://www.w3.org/2000/svg" viewBox="0 0 120 71.7"><title>ico-helper-menu-1</title><g id="Document"><g id="Spread"><g id="MouseOff"><path d="M11.12,60.77A10.93,10.93,0,1,1,22.05,71.7,10.94,10.94,0,0,1,11.12,60.77Zm79.37,0A10.93,10.93,0,1,1,101.41,71.7,10.94,10.94,0,0,1,90.48,60.77Zm-30.93,3.8V52.5a2.15,2.15,0,0,1,2.14-2.14H80.25a2.15,2.15,0,0,1,2.14,2.14V64.57a2.15,2.15,0,0,1-2.14,2.14H61.7A2.15,2.15,0,0,1,59.56,64.57Zm-31.78-3.8a5.72,5.72,0,1,0-5.72,5.72A5.72,5.72,0,0,0,27.77,60.77Zm79.37,0a5.72,5.72,0,1,0-5.72,5.72A5.72,5.72,0,0,0,107.14,60.77Zm-71.77,0a13.32,13.32,0,1,0-26.64,0H5.2A16.85,16.85,0,0,1,30.94,46.46H92.21a18.47,18.47,0,0,1,9.2-2.54,16.85,16.85,0,0,1,14.46,8.19H120V64.22h-5.72a13.35,13.35,0,0,0,.45-3.45c0-6.9-4.33-13.32-13.32-13.32A13.32,13.32,0,0,0,88.55,64.22H84.36v-13a2.52,2.52,0,0,0-2.52-2.52H60.08a2.52,2.52,0,0,0-2.52,2.52v5.1H38.31a16.77,16.77,0,0,1,.59,4.42H57.56v3.45H34.92A13.31,13.31,0,0,0,35.37,60.77ZM116.9,47.23l-7-5.74H92.07V5.19c12,1.75,24.27,3.64,26.82,7.19L119,14.32h-4.42l1.28,14.26,0.14,0c2.35,0.88,3.82,2.29,3.82,5V47.23h-2.9ZM0,43.82V0H89.43V43.82H29.37a18.48,18.48,0,0,0-14.85,0H0ZM112.57,28.17l-1.06-14-16.17,0V24c0,1.56.39,2,1.81,2.19Z"/></g></g></g></svg>