<svg id="Layer_1" data-name="Layer 1" xmlns="http://www.w3.org/2000/svg" viewBox="0 0 127.5 63.78"><title>ico-service-singin-accuracy</title><g id="Document"><g id="Spread"><g id="MouseOff"><path d="M23.9,63.78V40.83l0.72-1.63V36.84a2.77,2.77,0,0,0,.7.09h9.86L29.33,58.25Zm20.74,0V45.2H127.5V63.78H105.18V51.63h-1.36V63.78h-2.38v-6.1h-1.36v6.1H97.7v-6.1H96.33v6.1H94v-6.1H92.6v6.1H90.22V51.63H88.85V63.78H86.48v-6.1H85.11v6.1H82.74v-6.1H81.37v6.1H79v-6.1H77.63v6.1H75.25V51.63H73.89V63.78H71.52v-6.1H70.15v6.1H67.78v-6.1H66.41v6.1H64v-6.1H62.68v6.1H60.29V51.63H58.93V63.78H56.56v-6.1H55.19v6.1H52.82v-6.1H51.45v6.1H49.08v-6.1H47.71v6.1H44.63Zm-30.19,0L9,58.25,2.64,35V30.42H0V17.51H2.68V14.14h6.7c0.22-1.89.74-4-.75-7V0l3.28,3.65,2.58,8.76v5.11h8.07v12.9H13.73V39.2l0.72,1.63V63.78ZM59.56,38.23l-1.41-2.41H25.32a1.65,1.65,0,0,1-1.65-1.65V13.95a1.65,1.65,0,0,1,1.65-1.65H42.74V9.54H40.82V4.67h5.84V9.54H44.74V12.3h7.19V11.4a1.65,1.65,0,0,1,1.65-1.65H70.42a1.65,1.65,0,0,1,1.65,1.65V23s0,0,0,0a1.44,1.44,0,0,1,.84,1.35V35.93a1.89,1.89,0,0,1-1.64,1.83L61.2,39.69C60.5,39.76,60.07,39.11,59.56,38.23Zm-0.9-8V18a0.84,0.84,0,0,0-.84-0.84h-31A0.84,0.84,0,0,0,26,18v12.2a0.84,0.84,0,0,0,.84.84h31A0.84,0.84,0,0,0,58.66,30.23ZM74,30.42V24.35a2.61,2.61,0,0,0-.41-1.42l-0.43-.5V17.51h50v7h4.32V27h-4.32v3.42H74ZM39.71,28.17a0.48,0.48,0,1,1,.47.48A0.48,0.48,0,0,1,39.71,28.17Zm-4.07.37L35.18,28l0.64-.55h2.46L38.73,28l-0.64.55H35.64Zm6.28,0L41.46,28l0.64-.55h2.46L45,28l-0.64.55H41.92Zm6.41,0L47.87,28l0.64-.55H51L51.42,28l-0.64.55H48.33Zm-9.27-.81-0.46-.55L39,24.72l0.64-.55,0.46,0.55L39.7,27.18Zm2.22,0-0.46-.55,0.39-2.46,0.64-.55,0.46,0.55-0.39,2.46Zm4.07,0-0.46-.55,0.4-2.46,0.64-.55,0.46,0.55L46,27.18Zm2.34,0-0.46-.55,0.39-2.46,0.64-.55,0.46,0.55-0.39,2.46Zm4.07,0-0.46-.55,0.4-2.46,0.64-.55,0.46,0.55-0.39,2.46ZM36.3,24.39l-0.46-.55,0.64-.55h2.46l0.46,0.55-0.64.55H36.3Zm6.28,0-0.46-.55,0.64-.55h2.46l0.46,0.55L45,24.39H42.59Zm6.4,0-0.46-.55,0.64-.55h2.46l0.46,0.55-0.64.55H49Zm-13.32-.91-0.46-.55,0.39-2.46,0.64-.55,0.46,0.55-0.4,2.46Zm4.07,0-0.46-.55,0.39-2.46,0.64-.55,0.46,0.55-0.39,2.46Zm2.22,0-0.46-.55,0.39-2.46,0.64-.55L43,20.48,42.6,22.94Zm4.07,0-0.46-.55L46,20.48l0.64-.55,0.46,0.55-0.39,2.46Zm2.34,0-0.46-.55,0.39-2.46,0.64-.55,0.46,0.55L49,22.94Zm4.07,0L52,22.94l0.4-2.46L53,19.93l0.46,0.55-0.39,2.46Zm1.7-1,0.22-1.41h0.32l0,0.13A0.51,0.51,0,0,1,55,21.1a0.22,0.22,0,0,1,.14,0,0.2,0.2,0,0,1,.07.13,0.53,0.53,0,0,1,.38-0.17,0.2,0.2,0,0,1,.18.08,0.34,0.34,0,0,1,0,.25l-0.17,1.1H55.31l0.17-1.07a0.17,0.17,0,0,0,0-.11,0.07,0.07,0,0,0-.07,0l-0.09,0-0.1.06v0L55,22.53H54.73l0.16-1.07a0.16,0.16,0,0,0,0-.11,0.08,0.08,0,0,0-.07,0l-0.09,0-0.1.06-0.17,1.13H54.13Zm1.75,0,0.22-1.41h0.32l0,0.13a0.51,0.51,0,0,1,.35-0.15,0.22,0.22,0,0,1,.14,0,0.2,0.2,0,0,1,.07.13,0.53,0.53,0,0,1,.38-0.17,0.2,0.2,0,0,1,.18.08,0.33,0.33,0,0,1,0,.25l-0.17,1.1H57.06l0.17-1.07a0.18,0.18,0,0,0,0-.11,0.07,0.07,0,0,0-.07,0l-0.09,0L57,21.4v0l-0.17,1.1H56.47l0.17-1.07a0.17,0.17,0,0,0,0-.11,0.08,0.08,0,0,0-.07,0l-0.09,0-0.1.06L56.2,22.53H55.88ZM37,20.22l-0.46-.55,0.64-.55h2.46l0.46,0.55-0.64.55H37Zm6.28,0-0.46-.55,0.64-.55h2.46l0.46,0.55-0.64.55H43.26Zm6.41,0-0.46-.55,0.64-.55H52.3l0.46,0.55-0.64.55H49.66ZM24.13,11.46l2.3-7.81L29.71,0V7.17a8.89,8.89,0,0,0-1,4H25.32A2.74,2.74,0,0,0,24.13,11.46Z"/></g></g></g></svg>