<svg id="Layer_1" data-name="Layer 1" xmlns="http://www.w3.org/2000/svg" viewBox="0 0 95.34 112.5"><title>ico-company-news</title><g id="Document"><g id="Spread"><g id="Layer_1-2" data-name="Layer 1"><path d="M0,112.5V0H95.34V112.5H0Zm91.78-3.56V3.56H3.56V108.94H91.78ZM9.59,91.13V65h26V91.13h-26Zm31.81,0v-1.5H85.75v1.5H41.4Zm0-4.91v-1.5H85.75v1.5H41.4Zm0-4.91v-1.5H85.75v1.5H41.4Zm0-4.91v-1.5H85.75v1.5H41.4Zm0-5.33V65H85.74v6.07H41.4ZM13.52,57.33l6.23-5.68,20.54-7.22-2.4,4.25Zm40.8-3L43.7,46.69l12.46-4.38ZM40.44,44.43L19.89,29.83h15L47.66,38.9l26.21-9.22h7.95Zm5.66-9.77-4.38-3.12,8.93-8.07L53,22.6Zm5-2.41,5.53-10.92,3-1-1.41,9.34Z"/></g></g></g></svg>