<svg id="Layer_1" data-name="Layer 1" xmlns="http://www.w3.org/2000/svg" viewBox="0 0 92.11 97.5"><title>ico-helper-menu-9</title><g id="Document"><g id="Spread"><g id="MouseOff"><path d="M0,20.55C13.48,10.42,29,3.92,46.06,0c17,3.92,32.58,10.42,46.06,20.55C90.67,61,72.74,83.88,46.06,97.5,19.38,83.88,1.45,61,0,20.55ZM46.06,89.73l1.21-.62c21.65-11,36.19-29.77,37.35-62.25l0-1.39-1.11-.84C72.69,16.47,60.21,11.26,46.65,8.14L46.06,8l-0.6.13c-13.55,3.12-26,8.33-36.9,16.48l-1.11.84,0.05,1.39c1.17,32.48,15.7,51.21,37.35,62.25Zm0-6-2.44-1.33C26.9,72.7,15.46,57.49,13.18,32.23l-0.26-4.15,2.73-1.92a90.82,90.82,0,0,1,26.2-11.6l4.21-1.06,4.22,1.06a90.91,90.91,0,0,1,26.19,11.6l2.72,1.92-0.25,4.15C76.65,57.49,65.22,72.7,48.5,82.37ZM21.53,54.53l19.53-6.92L43,44.2,26.53,50Zm32.69-2.39,1.48-9.65L45.72,46ZM43.1,44.2L76.25,32.39H69.89l-21,7.38L38.68,32.5h-12Zm4.55-7.83,5.56-9.65-1.93.68-7.15,6.47Zm4-1.92,5.68-2.05,1.13-7.49-2.38.8Z"/></g></g></g></svg>