<svg id="Layer_1" data-name="Layer 1" xmlns="http://www.w3.org/2000/svg" viewBox="0 0 127.5 84.3"><title>ico-helper-menu-4</title><g id="Document"><g id="Spread"><g id="MouseOff"><path d="M55.62,84.1l-0.3-.86,10-10L63,64.55l-8.73-2.33-10,10-0.86-.3A15.2,15.2,0,0,1,63.07,55l35.09-35.1A15.19,15.19,0,0,1,115.08.2l0.31,0.85-10,10,2.34,8.73,8.71,2.32,10-10,0.86,0.31a15.19,15.19,0,0,1-19.68,16.92L72.54,64.43A15.2,15.2,0,0,1,55.62,84.1Zm46.26-4.25a15.21,15.21,0,0,1-3.71-15.43L88.75,55l9.46-9.46L107.63,55A15.2,15.2,0,0,1,127.3,71.89l-0.86.3-10-10-8.74,2.34-2.33,8.71,10,10-0.31.85A15.15,15.15,0,0,1,101.87,79.85ZM15.22,72V56.76H0V27.54H15.22V12.31L45.06,42.14ZM72.5,38.75l-9.42-9.41A15.2,15.2,0,0,1,43.4,12.42l0.86-.31,10,10,8.72-2.32L65.28,11l-10-10,0.3-.85A15.2,15.2,0,0,1,72.53,19.87l9.42,9.43Z"/></g></g></g></svg>