<svg id="Layer_1" data-name="Layer 1" xmlns="http://www.w3.org/2000/svg" viewBox="0 0 48.85 48.85"><defs><style>.cls-1{fill:#00a2e0;}</style></defs><title>ico-good-weather</title><g id="Document"><g id="Spread"><g id="Layer_1-2" data-name="Layer 1"><g id="Group"><g id="Group_8" data-name="Group 8"><path class="cls-1" d="M42.91,44.48c0-8.38,2.89-15.42,6.8-17.39a26.74,26.74,0,0,1,4.76.36H50.89a9.91,9.91,0,0,0-.91.8h3.95a3.25,3.25,0,0,1,1.79-.47c3.78,0,6.86,7.48,6.86,16.69,0,8.52-2.63,15.55-6,16.56a24.64,24.64,0,0,1-7,.76C45.74,59.76,42.91,52.78,42.91,44.48ZM43,61.2a9.93,9.93,0,0,1-1.58-1.25h2.65c-0.23-.24-0.46-0.49-0.68-0.75H40.71a14.27,14.27,0,0,1-1-1.36h2.71q-0.28-.41-0.53-0.86H39.13a18.82,18.82,0,0,1-1.05-2.09h2.72q-0.21-.49-0.41-1H37.67a24,24,0,0,1-.84-2.74h2.7q-0.12-.49-0.23-1H36.62a28.14,28.14,0,0,1-.42-2.85h2.68c0-.33-0.06-0.66-0.08-1H36.12c0-.6-0.06-1.21-0.06-1.83,0-.33,0-0.67,0-1h2.68c0-.55.05-1.1,0.1-1.63H36.18q0.11-1.18.3-2.31h2.69c0.1-.56.21-1.1,0.34-1.63H36.81c0.18-.77.4-1.51,0.64-2.22h2.71q0.27-.77.58-1.5H38q0.37-.87.8-1.66h2.72q0.43-.79.91-1.49H39.74a13.76,13.76,0,0,1,.86-1.14h2.69c0.29-.35.59-0.69,0.89-1H41.54c0.24-.23.49-0.44,0.75-0.64h2.57a11.66,11.66,0,0,1,1-.8l2.38-.33c-4,2-6.94,9-6.94,17.35s2.88,15.16,6.79,17.27A38,38,0,0,1,43,61.2Zm9.65-2H48.7q0.28,0.39.59,0.75h3.95Q52.94,59.59,52.65,59.2ZM51.3,57H47.35c0.15,0.3.31,0.58,0.47,0.86h3.95Q51.52,57.42,51.3,57Zm8.64-12.5c0-7-1.79-12.62-4-12.62s-4,5.65-4,12.62,1.79,12.62,4,12.62S59.94,51.45,59.94,44.48ZM50,53.9h-4c0.11,0.34.23,0.67,0.36,1h3.95Q50.19,54.41,50,53.9Zm2.52-9.42c0-5.51,1.31-10,2.92-10s2.92,4.47,2.92,10-1.31,10-2.92,10S52.54,50,52.54,44.48Zm-3.46,5.68H45.13c0.06,0.34.13,0.67,0.2,1h3.95Q49.17,50.66,49.08,50.16Zm-0.45-3.84H44.68c0,0.33,0,.67.07,1h4Q48.66,46.82,48.63,46.32Zm0.05-4.46H44.73c0,0.54-.07,1.08-0.09,1.63h3.95C48.61,42.94,48.64,42.39,48.68,41.85Zm0.57-3.95H45.3q-0.17.8-.3,1.63h4C49,39,49.14,38.44,49.25,37.91Zm1.08-3.72H46.38q-0.27.73-.51,1.5h3.95C50,35.17,50.15,34.68,50.33,34.19ZM51.82,31H47.87q-0.42.71-.79,1.5H51Q51.4,31.74,51.82,31Zm1.52-2.13H49.39q-0.41.47-.78,1h3.95Q52.93,29.37,53.34,28.9Z" transform="translate(-36.06 -12.96)"/><path class="cls-1" d="M65.66,32.05V30.93A0.35,0.35,0,0,1,66,30.58h0.34V14.26a1.3,1.3,0,0,1,1.3-1.3h8.09a1.3,1.3,0,0,1,1.3,1.3v8.28a3.08,3.08,0,0,1,1.94.79,2.9,2.9,0,0,1,.78,2.15v4.09a1.59,1.59,0,0,0,1.66,1.65,1.55,1.55,0,0,0,1.65-1.67L83,21.76a1.39,1.39,0,0,1-.87-1.29c0-3.81-3.14-3.78-3.27-3.78a0.43,0.43,0,1,1,0-.86c3.36,0,6.05,2.45,6.05,4.64A1.39,1.39,0,0,1,84,21.76l0.08,7.79a2.59,2.59,0,0,1-2.7,2.72,2.64,2.64,0,0,1-2.69-2.69V25.49a1.87,1.87,0,0,0-.47-1.41A2,2,0,0,0,77,23.59v7h0.34a0.35,0.35,0,0,1,.35.35v1.12a0.35,0.35,0,0,1-.35.35H66A0.35,0.35,0,0,1,65.66,32.05Zm10-12.62v-4.6a0.37,0.37,0,0,0-.37-0.37H68.14a0.37,0.37,0,0,0-.37.37v4.6a0.37,0.37,0,0,0,.37.37h7.12A0.37,0.37,0,0,0,75.63,19.43Z" transform="translate(-36.06 -12.96)"/></g></g></g></g></g></svg>