<svg id="Layer_1" data-name="Layer 1" xmlns="http://www.w3.org/2000/svg" viewBox="0 0 92.11 97.5"><title>ico-helper-menu-11</title><g id="Document"><g id="Spread"><g id="MouseOff"><path d="M0,20.55C13.48,10.43,29,3.92,46.06,0c17,3.92,32.58,10.43,46.06,20.55C90.66,61,72.74,83.89,46.06,97.5,19.37,83.89,1.45,61,0,20.55ZM50,88.84a8.63,8.63,0,0,1-.09-1.18,10.41,10.41,0,0,1,.87-4.12c0.38-.94.8-1.77,1-2.53,0.35-1.13.84-2.08,1.2-3a4.71,4.71,0,0,0,.45-1.84A4.17,4.17,0,0,0,53,74.56c-0.3-.68-0.68-1.41-1-2.25a21.31,21.31,0,0,1-5.6.71,20.91,20.91,0,0,1-5.38-.69,9.75,9.75,0,0,1,.86,3.82A10.43,10.43,0,0,1,41,80.27c-0.38.94-.81,1.77-1,2.53-0.35,1.14-.84,2.09-1.2,3a7.61,7.61,0,0,0-.33,1Q42.1,89,46,90.94,48.06,89.93,50,88.84ZM67,76.1a4.4,4.4,0,0,0-.44-1.53c-0.35-.81-0.83-1.69-1.19-2.76-0.23-.69-0.64-1.45-1-2.32a9.81,9.81,0,0,1-.91-3.92,10.4,10.4,0,0,1,.87-4.12c0.38-.94.81-1.77,1-2.53,0.35-1.14.84-2.09,1.2-3A4.69,4.69,0,0,0,67,54.1a4.14,4.14,0,0,0-.44-1.64c-0.35-.81-0.83-1.69-1.19-2.76-0.23-.69-0.64-1.44-1-2.32a9.82,9.82,0,0,1-.91-3.93,10.41,10.41,0,0,1,.87-4.12c0.38-.94.81-1.77,1-2.53,0.35-1.14.84-2.08,1.2-3A4.71,4.71,0,0,0,67,32a4.13,4.13,0,0,0-.44-1.64c-0.35-.81-0.83-1.69-1.19-2.76-0.23-.7-0.64-1.45-1-2.32a9.84,9.84,0,0,1-.91-3.93,10.39,10.39,0,0,1,.87-4.12c0.38-.94.81-1.77,1-2.53a18,18,0,0,1,.74-1.91q-4.54-1.86-9.3-3.35c0,0.13,0,.26,0,0.39a10.44,10.44,0,0,1-.87,4.12c-0.38.94-.81,1.77-1,2.53-0.35,1.14-.84,2.09-1.2,3a4.71,4.71,0,0,0-.45,1.84,4.09,4.09,0,0,0,.44,1.64l0.21,0.48h9.76V41.08H59.88l0.44,0.43c3.28,3.58,4.55,8.25,4.55,13.2a19.39,19.39,0,0,1-2.21,9.22A16.59,16.59,0,0,1,56,70.72l-0.64.34c0.17,0.37.36,0.76,0.54,1.17a9.82,9.82,0,0,1,.91,3.93,10.43,10.43,0,0,1-.87,4.11c-0.38.94-.81,1.77-1,2.53-0.35,1.14-.84,2.09-1.2,3a6.87,6.87,0,0,0-.37,1.14A72.65,72.65,0,0,0,67,76.1ZM35.92,83.55c0.38-.94.81-1.77,1-2.53,0.35-1.13.84-2.08,1.2-3a4.7,4.7,0,0,0,.45-1.84,4.15,4.15,0,0,0-.44-1.64c-0.35-.81-0.83-1.69-1.19-2.76a12.9,12.9,0,0,0-.58-1.36,16.75,16.75,0,0,1-5.66-5.21A16.33,16.33,0,0,1,28,56.5V56.27c-0.13.37-.27,0.71-0.41,1-0.38.85-.81,1.6-1,2.29a29,29,0,0,1-1.2,2.68,3.89,3.89,0,0,0-.45,1.66,3.41,3.41,0,0,0,.44,1.48,26.73,26.73,0,0,1,1.19,2.49c0.23,0.63.64,1.31,1,2.1a8.16,8.16,0,0,1,.91,3.55,8.65,8.65,0,0,1-.87,3.72c-0.13.29-.27,0.57-0.4,0.84a71.82,71.82,0,0,0,8.34,6.67C35.62,84.32,35.77,83.91,35.92,83.55Zm-11.26-8.3a3.9,3.9,0,0,0,.45-1.66,3.46,3.46,0,0,0-.44-1.49,25.85,25.85,0,0,1-1.19-2.49c-0.23-.63-0.64-1.31-1-2.1A8.14,8.14,0,0,1,21.54,64a8.63,8.63,0,0,1,.87-3.72c0.38-.85.81-1.6,1-2.29a29.13,29.13,0,0,1,1.2-2.68,3.91,3.91,0,0,0,.45-1.66,3.45,3.45,0,0,0-.44-1.48,26.24,26.24,0,0,1-1.19-2.49c-0.23-.63-0.64-1.31-1-2.1A8.14,8.14,0,0,1,21.54,44a8.64,8.64,0,0,1,.87-3.72c0.38-.85.81-1.6,1-2.29a29.22,29.22,0,0,1,1.2-2.68,3.92,3.92,0,0,0,.45-1.66,3.45,3.45,0,0,0-.44-1.48,26.13,26.13,0,0,1-1.19-2.49c-0.23-.63-0.64-1.31-1-2.1A8.18,8.18,0,0,1,21.54,24a8.62,8.62,0,0,1,.87-3.72c0.38-.85.81-1.6,1-2.29a29.22,29.22,0,0,1,1.2-2.68,3.92,3.92,0,0,0,.45-1.66A2.23,2.23,0,0,0,25,13.18q-4,1.68-7.83,3.68V66.37a63.73,63.73,0,0,0,7.32,9.16Zm49.51-7.86V16.5q-2.39-1.23-4.84-2.33c-0.36.85-.73,1.6-0.95,2.3-0.35,1.14-.84,2.09-1.2,3a4.72,4.72,0,0,0-.45,1.84,4.12,4.12,0,0,0,.44,1.64c0.35,0.81.83,1.69,1.19,2.76,0.23,0.7.64,1.45,1,2.32a9.77,9.77,0,0,1,.91,3.93,10.42,10.42,0,0,1-.87,4.12c-0.38.94-.81,1.77-1,2.53-0.35,1.14-.84,2.08-1.2,3a4.71,4.71,0,0,0-.45,1.84A4.12,4.12,0,0,0,67.17,45c0.35,0.81.83,1.69,1.19,2.76,0.23,0.69.64,1.45,1,2.32A9.77,9.77,0,0,1,70.29,54a10.42,10.42,0,0,1-.87,4.12c-0.38.94-.81,1.77-1,2.53-0.35,1.14-.84,2.08-1.2,3a4.69,4.69,0,0,0-.45,1.84,4.13,4.13,0,0,0,.44,1.64c0.35,0.81.83,1.69,1.19,2.76,0.23,0.7.64,1.45,1,2.33,0.12,0.27.24,0.57,0.35,0.89A63.86,63.86,0,0,0,74.17,67.39Zm-21-1.68a10.87,10.87,0,0,0,4.41-4.48,13.67,13.67,0,0,0,1.54-6.53q0-6-3.05-9.34A10.85,10.85,0,0,0,47.67,42,11.84,11.84,0,0,0,42,43.45l0.93-8.1h15V29.12H36.81L34.63,48.26l6,1.47,0.72-.67a6.47,6.47,0,0,1,4.32-1.4,5.79,5.79,0,0,1,4.47,1.71,7,7,0,0,1,1.58,4.92,8.44,8.44,0,0,1-1.37,5.16,4.59,4.59,0,0,1-3.91,1.82A5.21,5.21,0,0,1,42.72,60a5.52,5.52,0,0,1-1.64-3.66h-7.4A10.61,10.61,0,0,0,35.48,62a11.25,11.25,0,0,0,4.62,3.89,14.62,14.62,0,0,0,6.34,1.38A13.76,13.76,0,0,0,53.21,65.71ZM27.77,50.63h0Zm0,0v0h0.84L31.7,23.4h3.61A8.88,8.88,0,0,1,35,21.34a10.43,10.43,0,0,1,.87-4.12c0.38-.94.81-1.77,1-2.53,0.35-1.14.84-2.09,1.2-3a4.71,4.71,0,0,0,.45-1.84,3.68,3.68,0,0,0-.32-1.34Q33.12,10,28.19,11.91a7.3,7.3,0,0,1,.23,1.72,8.66,8.66,0,0,1-.87,3.72c-0.38.85-.81,1.59-1,2.28a28.63,28.63,0,0,1-1.2,2.68A3.9,3.9,0,0,0,24.85,24a3.42,3.42,0,0,0,.44,1.49A26.46,26.46,0,0,1,26.48,28c0.23,0.63.64,1.31,1,2.1a8.12,8.12,0,0,1,.91,3.55,8.64,8.64,0,0,1-.87,3.72c-0.38.85-.81,1.6-1,2.29a28.56,28.56,0,0,1-1.2,2.68A3.89,3.89,0,0,0,24.85,44a3.42,3.42,0,0,0,.44,1.49,26.82,26.82,0,0,1,1.19,2.49c0.23,0.63.64,1.31,1,2.1C27.59,50.21,27.68,50.41,27.77,50.62ZM49.92,21.33a10.39,10.39,0,0,1,.87-4.11c0.38-.94.8-1.77,1-2.53,0.35-1.14.84-2.09,1.2-3a4.72,4.72,0,0,0,.45-1.84,4,4,0,0,0-.4-1.54q-3.48-1-7.05-1.78-2.23.5-4.42,1.07a8.88,8.88,0,0,1,.3,2.2A10.43,10.43,0,0,1,41,13.94c-0.38.94-.81,1.77-1,2.53-0.35,1.14-.84,2.09-1.2,3a4.74,4.74,0,0,0-.45,1.84,4.11,4.11,0,0,0,.44,1.64L39,23.4H50.18A8.89,8.89,0,0,1,49.92,21.33Z"/></g></g></g></svg>