<svg id="Layer_1" data-name="Layer 1" xmlns="http://www.w3.org/2000/svg" viewBox="0 0 85.04 97.5"><title>ico-helper-menu-13</title><g id="Document"><g id="Spread"><g id="MouseOff"><path d="M19.24,79.15L14.12,83c2.14,5.06,2.26,9.6.06,10.85-2.63,1.48-7.58-2.3-11.05-8.45S-1,73,1.6,71.55c2.11-1.19,5.71,1,8.84,5.09l4.64-2.88C7,62.12,2.06,47.1,1.36,27.6,13.61,18.4,27.74,12.49,43.2,8.92A132.23,132.23,0,0,1,57.4,13l0,0,1.44-2.69C54.54,7.5,52.12,4,53.17,1.87c1.31-2.72,7.54-2.44,13.9.63S77.52,10.26,76.21,13c-1.1,2.28-5.64,2.45-10.83.65l-1.31,2v0a99.39,99.39,0,0,1,21,12C83.73,64.32,67.44,85.14,43.2,97.5A77.36,77.36,0,0,1,19.24,79.15Zm31.58,8.18V36l-4.42,6.78c-2.2,1.5-3.69.36-3.88-1.94l8.3-15.51V16.69q-3.74-1.12-7.62-2-3.67.85-7.22,1.9v44.2l3.79-2.36c2.31,0,3.54,1.45,2.19,3.75l-6,4.47v21h0a78.13,78.13,0,0,0,7.22,4.16A78.1,78.1,0,0,0,50.83,87.33ZM30.67,83.77V70.6l-7.75,5.8,0,0A61.32,61.32,0,0,0,30.67,83.77ZM63.9,76h0l-8.15-7.44V83.77A61.08,61.08,0,0,0,63.9,76Zm5.73-7.87V63.91L58.91,54.09V51.46l10.74,9.82v-11L55.74,37.6V64L66,73.37h0A57.61,57.61,0,0,0,69.64,68.09ZM19,71.33l11.42-7.1L30.67,64V37.6L16.77,50.28v11l10.74-9.82v2.63L16.78,63.91V68.1q1,1.69,2.14,3.28ZM16.78,45.77L30.67,33.09V18.3a94.3,94.3,0,0,0-13.91,6.19v5.87l10.74-9.82v2.64L16.78,33V45.77Zm52.86,0V33L59.06,23.32l-3.32,5.1v4.66Zm0-15.4V24.5A90.74,90.74,0,0,0,61,20.34l-0.87,1.33Z"/></g></g></g></svg>