<svg id="Layer_1" data-name="Layer 1" xmlns="http://www.w3.org/2000/svg" viewBox="0 0 79.83 97.5"><title>ico-career-anket</title><g id="Document"><g id="Spread"><g id="MouseOff"><path d="M70.89,88.77V17.67H62.16V31H17.67V17.67H8.94v71.1H70.89ZM43,10.19a4.36,4.36,0,0,0-7.48,3.12,4.36,4.36,0,1,0,8.73,0A4.22,4.22,0,0,0,43,10.19ZM70.89,8.94a8.74,8.74,0,0,1,6.24,2.59,8.23,8.23,0,0,1,2.7,6.13v71.1a8.2,8.2,0,0,1-2.7,6.13,8.73,8.73,0,0,1-6.24,2.6H8.94A8.74,8.74,0,0,1,2.7,94.9,8.21,8.21,0,0,1,0,88.77V17.67a8.24,8.24,0,0,1,2.7-6.13A8.75,8.75,0,0,1,8.94,8.94h18.5A13.83,13.83,0,0,1,32.22,2.5,12.48,12.48,0,0,1,39.91,0a12.48,12.48,0,0,1,7.69,2.5,13.91,13.91,0,0,1,4.78,6.45h18.5Z"/></g></g></g></svg>