<svg id="Layer_1" data-name="Layer 1" xmlns="http://www.w3.org/2000/svg" viewBox="0 0 92.11 97.5"><title>ico-service-singin-365</title><g id="Document"><g id="Spread"><g id="MouseOff"><path d="M0,20.55C13.48,10.43,29,3.92,46.06,0c17,3.92,32.58,10.43,46.05,20.55C90.66,61,72.74,83.89,46.06,97.5,19.37,83.89,1.45,61,0,20.55ZM35.49,70.63a4.94,4.94,0,0,0,2-4.1,4.41,4.41,0,0,0-.87-2.78,5.13,5.13,0,0,0-2.39-1.68,5.39,5.39,0,0,0,2.2-1.78A4,4,0,0,0,37.16,58a4.85,4.85,0,0,0-1.83-4,7.84,7.84,0,0,0-5-1.46,8,8,0,0,0-3.28.66A5.56,5.56,0,0,0,24.71,55a4.54,4.54,0,0,0-.84,2.69h4.43a1.56,1.56,0,0,1,.65-1.27,2.4,2.4,0,0,1,1.53-.51,2.24,2.24,0,0,1,1.67.6,2.1,2.1,0,0,1,.59,1.54,2.17,2.17,0,0,1-2.48,2.43H28.16v3.3h2.16a3,3,0,0,1,2,.61,2.54,2.54,0,0,1,.72,2,2.17,2.17,0,0,1-.7,1.66,2.62,2.62,0,0,1-1.87.65,2.51,2.51,0,0,1-1.75-.64A2,2,0,0,1,28,66.59H23.56a5.16,5.16,0,0,0,.83,2.88,5.47,5.47,0,0,0,2.44,2,8.48,8.48,0,0,0,3.49.72A8.19,8.19,0,0,0,35.49,70.63ZM50.1,71.31a6.15,6.15,0,0,0,2.41-2.39,6.7,6.7,0,0,0,.86-3.35,7.32,7.32,0,0,0-1.47-4.76,4.83,4.83,0,0,0-4-1.81,5.17,5.17,0,0,0-3.79,1.47,5,5,0,0,1,2-3.31A6.65,6.65,0,0,1,50.2,56h0.2V52.5H49.73a10.36,10.36,0,0,0-5.22,1.34,9.2,9.2,0,0,0-3.62,3.7,11,11,0,0,0-1.27,5.31v1.77a8.72,8.72,0,0,0,.92,4A6.37,6.37,0,0,0,43,71.25a7.14,7.14,0,0,0,3.64.93A6.91,6.91,0,0,0,50.1,71.31Zm15.32,0.06a5.65,5.65,0,0,0,2.31-2.29A7.7,7.7,0,0,0,67,61a5.61,5.61,0,0,0-4.38-1.69,5.69,5.69,0,0,0-1.5.21,5.26,5.26,0,0,0-1.24.49l0.43-3.8H67.9V52.78H56.72l-1.17,9.78,3.52,0.83a2.72,2.72,0,0,1,2.31-1q2.73,0,2.73,3.06,0,3.31-2.23,3.31a2.12,2.12,0,0,1-1.59-.62,2.52,2.52,0,0,1-.67-1.67H55.18a5,5,0,0,0,.88,2.92,6.07,6.07,0,0,0,2.47,2,7.83,7.83,0,0,0,3.38.74A7.27,7.27,0,0,0,65.42,71.37ZM44.05,65.13V63.8a2.58,2.58,0,0,1,.88-1,2.54,2.54,0,0,1,1.47-.41,2.21,2.21,0,0,1,1.83.89,3.64,3.64,0,0,1,.69,2.29,3.69,3.69,0,0,1-.68,2.27,2,2,0,0,1-1.69.91Q44.05,68.76,44.05,65.13ZM73.22,44.58l2.94-3.78-0.4-5.54L41.21,25.83a11,11,0,0,0-17.65-6.28l0.12,0.65,9.82,2.68,1.66,6.31-4.63,4.58-9.82-2.68-0.43.5a11,11,0,0,0,18.39,3.56Z"/></g></g></g></svg>