<?xml version="1.0" standalone="no"?>
<!DOCTYPE svg PUBLIC "-//W3C//DTD SVG 1.1//EN" "http://www.w3.org/Graphics/SVG/1.1/DTD/svg11.dtd">
<!--Generator: Xara Designer (www.xara.com), SVG filter version: 6.1.0.18-->
<svg stroke-width="0.501" stroke-linejoin="bevel" fill-rule="evenodd" xmlns:xlink="http://www.w3.org/1999/xlink" xmlns="http://www.w3.org/2000/svg" version="1.1" overflow="visible" width="144pt" height="144pt" viewBox="0 0 144 144">
 <defs>
	</defs>
 <g id="Document" fill="none" stroke="black" font-family="Times New Roman" font-size="16" transform="scale(1 -1)">
  <g id="Spread" transform="translate(0 -144)">
   <g id="001">
    <g id="Group" stroke-linejoin="miter" stroke="none">
     <path d="M 144,14.4 C 144,6.449 137.553,-0.004 129.608,-0.004 L 14.393,-0.004 C 6.442,-0.004 0.001,6.449 0.001,14.4 L 0.001,129.608 C 0.001,137.553 6.442,144 14.393,144 L 129.608,144 C 137.553,144 144,137.553 144,129.608 L 144,14.4 Z" fill="#000000" fill-rule="nonzero" stroke-width="1.463" marker-start="none" marker-end="none"/>
     <g id="Group_1" stroke-width="0.086">
      <path d="M 72,86.783 L 101.571,57.212 L 72,27.641 L 42.429,57.212 L 72,86.783 Z" fill="#e0d900" marker-start="none" marker-end="none"/>
      <path d="M 101.571,116.353 L 131.142,86.781 L 101.571,57.212 L 72,86.781 L 101.571,116.353 Z" fill="#fff500" marker-start="none" marker-end="none"/>
      <path d="M 42.429,116.353 L 12.858,86.781 L 42.429,57.212 L 72,86.781 L 42.429,116.353 Z" fill="#fff74c" marker-start="none" marker-end="none"/>
     </g>
    </g>
   </g>
  </g>
 </g>
</svg>
