<svg id="Layer_1" data-name="Layer 1" xmlns="http://www.w3.org/2000/svg" viewBox="0 0 135 67.33"><title>ico-helper-menu-2</title><g id="Document"><g id="Spread"><g id="MouseOff"><path d="M65.89,64.75V57.17c0-7.53.92-9,2.08-10.16a17,17,0,0,1,1.74-1.44A5.07,5.07,0,0,0,66.94,47H65.42a1.07,1.07,0,0,1-.94-0.65C64,44.93,65,42,66.71,42h3.55a1.11,1.11,0,0,1,.85.47,45.4,45.4,0,0,1,3.31-6.63c0.94-1.71,7.49-2.2,11.22-2.2h9.88c3.71,0,10.27.48,11.21,2.2A45.61,45.61,0,0,1,110,42.51a1.1,1.1,0,0,1,.85-0.47h3.55c1.74,0,2.72,2.89,2.23,4.32a1.08,1.08,0,0,1-.94.65h-1.52a5.06,5.06,0,0,0-2.75-1.44A17.24,17.24,0,0,1,113.19,47c1.16,1.17,2.08,2.63,2.08,10.16v7.58a2.58,2.58,0,0,1-2.57,2.57h-5.14A2.58,2.58,0,0,1,105,64.75V61.5h-1.06c-0.08.41-.41,1.11-2.76,1.11H80c-2.35,0-2.68-.69-2.76-1.11H76.17v3.26a2.57,2.57,0,0,1-2.57,2.57H68.46A2.58,2.58,0,0,1,65.89,64.75ZM16.41,60.1V46.75H0V21.13H16.41V7.78L42.57,33.94Zm53.11,0.17a1.2,1.2,0,1,0-1.7,0A1.2,1.2,0,0,0,69.52,60.27Zm43.8,0a1.21,1.21,0,0,0,0-1.7A1.2,1.2,0,1,0,113.32,60.27ZM52,63.9V18.42l-5.86,1V7.71L90.58,0,135,7.71V19.43l-5.86-1V63.9h-7.71V15.76L90.58,11.11,59.72,15.76V63.9H52Zm57.7-4V59.83a0.41,0.41,0,0,0-.4-0.4H71.84a0.4,0.4,0,0,0-.4.4v0.12a0.4,0.4,0,0,0,.4.41h37.46A0.4,0.4,0,0,0,109.71,59.94Zm-8.25-2L102,56.8a0.25,0.25,0,0,0-.24-0.37H79.44a0.24,0.24,0,0,0-.24.37L79.7,58a0.67,0.67,0,0,0,.56.37h20.63A0.67,0.67,0,0,0,101.46,58Zm1.11-2.67,0.5-1.15a0.24,0.24,0,0,0-.24-0.37H78.33a0.25,0.25,0,0,0-.24.37l0.5,1.15a0.67,0.67,0,0,0,.57.37H102A0.66,0.66,0,0,0,102.57,55.28ZM76,53l-0.79-1.79A0.34,0.34,0,0,0,74.79,51l-6.73-.43a0.69,0.69,0,0,0-.85.4A5.11,5.11,0,0,0,67,53.24c0.08,0.24.2,0.33,0.62,0.33h8C76,53.57,76.09,53.38,76,53Zm38.17,0.24a5,5,0,0,0-.19-2.31,0.68,0.68,0,0,0-.84-0.4l-6.73.43a0.34,0.34,0,0,0-.37.24L105.2,53c-0.13.38,0,.56,0.33,0.56h8C113.93,53.57,114.05,53.48,114.13,53.24Zm-10.45-.63,0.5-1.15a0.25,0.25,0,0,0-.24-0.37H77.22a0.25,0.25,0,0,0-.24.37l0.5,1.15A0.68,0.68,0,0,0,78,53h25.06A0.66,0.66,0,0,0,103.67,52.61Zm-24.12-9h22a42,42,0,0,1,6.58.59,29.75,29.75,0,0,0-2.55-7.3c-0.72-1.42-5.67-2.08-10.07-2.08h-10c-4.4,0-9.35.66-10.07,2.08A29.39,29.39,0,0,0,73,44.25,41.8,41.8,0,0,1,79.56,43.66Z"/></g></g></g></svg>