<svg id="Layer_1" data-name="Layer 1" xmlns="http://www.w3.org/2000/svg" viewBox="0 0 105 67.35"><title>ico-contacts-car</title><g id="Document"><g id="Spread"><g id="MouseOff"><path d="M101.93,62.2V47c0-15.08-1.84-18-4.17-20.34a33.78,33.78,0,0,0-3.46-2.89,10.07,10.07,0,0,1,5.51,2.89h3a2.16,2.16,0,0,0,1.89-1.3c1-2.86-1-8.66-4.48-8.66h-7.1a2.23,2.23,0,0,0-1.71.95A89.63,89.63,0,0,0,84.84,4.4C83,1,69.83,0,62.39,0H42.61C35.16,0,22,1,20.16,4.4a89.44,89.44,0,0,0-6.63,13.28,2.23,2.23,0,0,0-1.71-.95H4.73c-3.48,0-5.46,5.8-4.48,8.66a2.15,2.15,0,0,0,1.89,1.3h3a10.13,10.13,0,0,1,5.52-2.89,33.69,33.69,0,0,0-3.47,2.89C4.91,29,3.07,31.94,3.07,47V62.2a5.15,5.15,0,0,0,5.14,5.15H18.5a5.15,5.15,0,0,0,5.15-5.15V55.68h2.11c0.16,0.83.83,2.21,5.52,2.21H73.71c4.7,0,5.36-1.38,5.52-2.21h2.11V62.2a5.16,5.16,0,0,0,5.15,5.15H96.78A5.16,5.16,0,0,0,101.93,62.2Zm-7.28-9a2.4,2.4,0,1,1,3.39,0A2.4,2.4,0,0,1,94.65,53.23ZM7,53.23a2.4,2.4,0,1,1,3.4,0A2.41,2.41,0,0,1,7,53.23Zm7.23-.65V52.33a0.81,0.81,0,0,1,.8-0.81H90a0.82,0.82,0,0,1,.81.81v0.24a0.81,0.81,0,0,1-.81.81H15A0.81,0.81,0,0,1,14.19,52.57Zm16.52-4-1-2.3a0.49,0.49,0,0,1,.49-0.75H74.8a0.5,0.5,0,0,1,.49.75l-1,2.3a1.35,1.35,0,0,1-1.14.74H31.85A1.34,1.34,0,0,1,30.72,48.59ZM28.5,43.24l-1-2.3A0.49,0.49,0,0,1,28,40.19H77a0.49,0.49,0,0,1,.49.74l-1,2.3a1.34,1.34,0,0,1-1.13.75H29.63A1.33,1.33,0,0,1,28.5,43.24Zm53.27-4.55,1.58-3.59a0.68,0.68,0,0,1,.75-0.49l13.47-.87c0.85-.08,1.49.1,1.69,0.79a10.2,10.2,0,0,1,.38,4.62c-0.15.47-.4,0.65-1.23,0.65h-16C81.72,39.81,81.51,39.44,81.77,38.69Zm-76.42.47a10.14,10.14,0,0,1,.38-4.62c0.2-.69.84-0.87,1.69-0.79L20.9,34.61a0.68,0.68,0,0,1,.75.49l1.58,3.59c0.26,0.75,0,1.12-.67,1.12h-16C5.75,39.81,5.5,39.63,5.35,39.16Zm20.92-1.26-1-2.3a0.49,0.49,0,0,1,.49-0.75H79.23a0.49,0.49,0,0,1,.49.75l-1,2.3a1.34,1.34,0,0,1-1.13.74H27.41A1.35,1.35,0,0,1,26.27,37.89ZM74.57,20H30.44a83.79,83.79,0,0,0-13.17,1.19A59.26,59.26,0,0,1,22.36,6.55c1.45-2.83,11.36-4.16,20.16-4.16h20c8.8,0,18.7,1.32,20.15,4.16a59.58,59.58,0,0,1,5.1,14.61A83.92,83.92,0,0,0,74.57,20Z"/></g></g></g></svg>