<svg id="Layer_1" data-name="Layer 1" xmlns="http://www.w3.org/2000/svg" viewBox="0 0 97.5 97.5"><title>ico-helper-menu-8</title><g id="Document"><g id="Spread"><g id="MouseOff"><path d="M0,48.75A48.75,48.75,0,1,1,48.75,97.5,48.77,48.77,0,0,1,0,48.75Zm59.14,38A39.36,39.36,0,1,0,9.5,45.07L9.43,46.41,2,46.31l10.64,25.8L24,46.61l-7.18-.1,0.31-3.31A32,32,0,1,1,26.59,72a3.66,3.66,0,0,0-5,5.31A39.36,39.36,0,0,0,59.14,86.74ZM40.54,65v-32H39.86L26.62,37.67v5.16l7.58-2.35V65h6.35Zm23.26,0V58h3.62V52.91H63.81V33H57.39L44.06,54l0.29,4H57.46V65h6.35Zm-13.42-12L57,42.35l0.42-.72V52.91H50.38Z"/></g></g></g></svg>