<svg id="Layer_1" data-name="Layer 1" xmlns="http://www.w3.org/2000/svg" viewBox="0 0 97.5 97.5"><title>28_consult_phone</title><g id="Document"><g id="Spread"><g id="MouseOff"><path d="M0,48.75a48.75,48.75,0,1,1,97.5,0A48.14,48.14,0,0,1,92.59,70l-4.14-3a43.79,43.79,0,1,0-8.53,12.35h0l-5.54-4.52a17.12,17.12,0,0,1-2.25,1.28,18.56,18.56,0,0,1-8,2.09q-4.49,0-15-4.88A45.32,45.32,0,0,1,35.7,64,104.34,104.34,0,0,1,24,49.42Q18.36,41,18.44,34.13V33.49A17.4,17.4,0,0,1,24.27,21a6,6,0,0,1,4.1-1.73,13.54,13.54,0,0,1,1.42.12,12.43,12.43,0,0,0,1.49.11,3.25,3.25,0,0,1,2.09.51,5.81,5.81,0,0,1,1.22,2.17c0.43,1,1.29,3.36,2.6,6.94a44.41,44.41,0,0,1,2,5.92c0,1.1-.9,2.61-2.71,4.53s-2.72,3.14-2.72,3.67a2.25,2.25,0,0,0,.4,1.18,35.49,35.49,0,0,0,8,10.79,50.62,50.62,0,0,0,11.91,8,3.48,3.48,0,0,0,1.73.56c0.8,0,2.21-1.28,4.26-3.83s3.42-3.83,4.1-3.83,3.25,1.16,7.69,3.47,6.79,3.71,7.05,4.19A3.32,3.32,0,0,1,79.06,65a16.27,16.27,0,0,1-1.18,5.61l5.61,4.65h0l3.29,2.72a0.94,0.94,0,0,1,.14,1.12A48.75,48.75,0,0,1,0,48.75Z"/></g></g></g></svg>