<svg id="Layer_1" data-name="Layer 1" xmlns="http://www.w3.org/2000/svg" viewBox="0 0 103.69 105"><title>ico-helper-menu-14</title><g id="Document"><g id="Spread"><g id="MouseOff"><path d="M85.15,27.56a7.32,7.32,0,0,1,2-2.63,10.1,10.1,0,0,0,1.94-2.11,3.26,3.26,0,0,0,.48-1.72q0-2.72-2.51-2.72a2.56,2.56,0,0,0-1.91.73,2.88,2.88,0,0,0-.75,2H79.73a6.2,6.2,0,0,1,2-4.82,7.72,7.72,0,0,1,5.34-1.74,7.77,7.77,0,0,1,5.3,1.65,5.87,5.87,0,0,1,1.89,4.66,5.67,5.67,0,0,1-.61,2.59,10.7,10.7,0,0,1-2.14,2.69l-1.31,1.24a4.46,4.46,0,0,0-1.4,2.76l-0.06,1H84.61A9.67,9.67,0,0,1,85.15,27.56Zm-0.3,10.3a2.52,2.52,0,0,1,0-3.54,2.86,2.86,0,0,1,3.75,0,2.54,2.54,0,0,1,0,3.54A2.94,2.94,0,0,1,84.85,37.86ZM69.64,49.27l5.45-5.45h26.31a2.1,2.1,0,0,0,1.59-.71,2.31,2.31,0,0,0,.7-1.67v-30a2.35,2.35,0,0,0-2.29-2.29H71.93a2.15,2.15,0,0,0-1.6.69,2.16,2.16,0,0,0-.69,1.6V49.27Zm-23.86,2.5c3.78-2,6.35-5.81,8-9.65a15,15,0,0,0,.68-6.41,3.08,3.08,0,0,0,3.39-1c1.53-1.7,2.32-6.48,1.13-6.78s-2.45,1.11-3.68,1.95a46.61,46.61,0,0,0,.43-11.17C55.08,13.59,54,11,50.79,9.93c-3.46-1.22-5.55,4.15-10.2,4.15S33.85,8.71,30.4,9.93c-3.17,1.12-4.29,3.66-4.9,8.81a46.46,46.46,0,0,0,.43,11.17c-1.23-.84-2.38-2.28-3.68-1.95s-0.4,5.08,1.13,6.78a3.09,3.09,0,0,0,3.4,1,15.11,15.11,0,0,0,.68,6.41c1.62,3.85,4.19,7.65,8,9.65,1,0.55,3.57.54,5.18,0.54S44.73,52.32,45.77,51.76Zm-3,10.86,2.56-7.93H35.81l2.56,7.93h4.46ZM40.6,100.69L50.13,94,42.76,64.16H38.43L31.05,94Zm0,4.31L26.7,95.29,27,94H4c-2.7-.25-4.06-1.63-4-4.2C-0.27,64.38,10.8,61.21,21.56,57.44l9.64-5.63A25.86,25.86,0,0,1,25,43.15a10,10,0,0,1-.75-4.62c-2.08,1-4.29-3.6-4.94-6.1-1.55-5.92,0-7.55,2.37-7.94-2.1-8.59-3.07-16.09,2.68-16.56C27.49,1.59,33.74.26,40.6,0c6.85,0.26,13.1,1.59,16.24,7.94,5.75,0.48,4.78,8,2.68,16.56,2.36,0.38,3.92,2,2.37,7.94-0.66,2.49-2.87,7.12-4.95,6.1a9.91,9.91,0,0,1-.75,4.62A26,26,0,0,1,50,51.8l9.65,5.63h0c10.76,3.77,21.83,6.94,21.56,32.39,0.06,2.57-1.3,4-4,4.2h-23l0.34,1.26Z"/></g></g></g></svg>