<svg id="Layer_1" data-name="Layer 1" xmlns="http://www.w3.org/2000/svg" viewBox="0 0 20.43 13.78"><title>ico-es-flat</title><g id="Document"><g id="Spread"><g id="Layer_1-2" data-name="Layer 1"><g id="Group"><g id="Group_54" data-name="Group 54"><path d="M7.5,226.22V240H27.93V226.22H7.5Z" transform="translate(-7.5 -226.22)" style="fill:#1b5ba7"/><g id="Group_55" data-name="Group 55"><path d="M17.14,228.41l0.38,0.29-0.14.46,0.39-.28,0.39,0.28L18,228.7l0.38-.29H17.93l-0.16-.45-0.16.45H17.14Z" transform="translate(-7.5 -226.22)" style="fill:#fffc00"/><path d="M19.41,229l0.38,0.29-0.14.46,0.39-.28,0.39,0.28-0.14-.46,0.38-.29H20.2L20,228.55l-0.16.45H19.41Z" transform="translate(-7.5 -226.22)" style="fill:#fffc00"/><path d="M21.07,230.66L21.46,231l-0.14.46,0.39-.28,0.39,0.28L22,231l0.38-.29H21.87l-0.16-.45-0.16.45H21.07Z" transform="translate(-7.5 -226.22)" style="fill:#fffc00"/><path d="M21.69,232.93l0.38,0.29-0.14.46,0.39-.28,0.39,0.28-0.14-.46,0.38-.29H22.48l-0.16-.45-0.16.45H21.69Z" transform="translate(-7.5 -226.22)" style="fill:#fffc00"/><path d="M21.09,235.2l0.38,0.29-0.14.46,0.39-.28,0.39,0.28L22,235.49l0.38-.29H21.88l-0.16-.45-0.16.45H21.09Z" transform="translate(-7.5 -226.22)" style="fill:#fffc00"/><path d="M19.44,236.86l0.38,0.29-0.14.46,0.39-.28,0.39,0.28-0.14-.46,0.38-.29H20.23l-0.16-.45-0.16.45H19.44Z" transform="translate(-7.5 -226.22)" style="fill:#fffc00"/><path d="M18.44,237.48l-0.38.29,0.14,0.46L17.81,238l-0.39.28,0.14-.46-0.38-.29h0.48l0.16-.45L18,237.47h0.48Z" transform="translate(-7.5 -226.22)" style="fill:#fffc00"/><path d="M14.9,236.88l0.38,0.29-0.14.46,0.39-.28,0.39,0.28-0.14-.46,0.38-.29H15.69l-0.16-.45-0.16.45H14.9Z" transform="translate(-7.5 -226.22)" style="fill:#fffc00"/><path d="M13.24,235.23l0.38,0.29-0.14.46,0.39-.28L14.27,236l-0.14-.46,0.38-.29H14l-0.16-.45-0.16.45H13.24Z" transform="translate(-7.5 -226.22)" style="fill:#fffc00"/><path d="M12.62,233L13,233.25l-0.14.46,0.39-.28,0.39,0.28-0.14-.46L13.9,233H13.41l-0.16-.45L13.1,233H12.62Z" transform="translate(-7.5 -226.22)" style="fill:#fffc00"/><path d="M13.22,230.69L13.6,231l-0.14.46,0.39-.28,0.39,0.28L14.11,231l0.38-.29H14l-0.16-.45-0.16.45H13.22Z" transform="translate(-7.5 -226.22)" style="fill:#fffc00"/><path d="M14.88,229l0.38,0.29-0.14.46,0.39-.28,0.39,0.28-0.14-.46,0.38-.29H15.67l-0.16-.45-0.16.45H14.88Z" transform="translate(-7.5 -226.22)" style="fill:#fffc00"/></g></g></g></g></g></g></svg>