<svg id="Layer_1" data-name="Layer 1" xmlns="http://www.w3.org/2000/svg" viewBox="0 0 90 112.5"><title>img-news-1</title><g id="Document"><g id="Spread"><g id="MouseOff"><path d="M0,112.5V0H90V112.5H0Zm84.93-5V5.06H5.06V107.45H84.93v0.05ZM10,103.24V99.33H80v3.91H10Zm0-6.46v-3.9H80v3.9H10Zm0-6.45v-3.9H80v3.9H10Zm0-12.85v-24H33.84v24H10Zm29.24,0V71.89H80v5.58H39.24Zm0-9.22V62.68H80v5.58H39.24Zm0-9.21V53.46H80V59H39.23V59ZM13.6,46.39l5.73-5.22,18.88-6.64L36,38.44Zm37.51-2.74-9.77-7,11.46-4ZM38.34,34.54L19.45,21.12h13.8L45,29.46,69.08,21h7.3Zm5.2-9-4-2.87,8.21-7.42,2.2-.79Zm4.56-2.22,5.09-10,2.73-.91L54.63,21Z" transform="translate(0 0)"/></g></g></g></svg>