<?xml version="1.0" standalone="no"?>
<!DOCTYPE svg PUBLIC "-//W3C//DTD SVG 1.1//EN" "http://www.w3.org/Graphics/SVG/1.1/DTD/svg11.dtd">
<!--Generator: Xara Designer (www.xara.com), SVG filter version: 6.1.0.18-->
<svg stroke-width="0.501" stroke-linejoin="bevel" fill-rule="evenodd" xmlns:xlink="http://www.w3.org/1999/xlink" xmlns="http://www.w3.org/2000/svg" version="1.1" overflow="visible" width="144pt" height="144pt" viewBox="0 0 144 144">
 <defs>
	</defs>
 <g id="Document" fill="#e2001a" stroke="#e2001a" font-family="Times New Roman" font-size="16" transform="scale(1 -1)">
  <g id="Spread" transform="translate(0 -144)">
   <g id="MouseOff">
    <path d="M 79.401,17.198 L 79.361,17.078 C 78.571,17.471 77.268,17.996 76.151,17.169 C 76.107,17.476 75.781,17.914 75.665,18.209 C 75.283,17.974 74.67,18.176 74.695,17.405 C 73.924,18.445 72.186,17.72 71.525,17.89 C 71.068,18.484 70.341,17.646 70.036,18.468 C 66.832,19.551 61.222,19.93 59.545,17.885 C 59.193,19.005 59.984,20.939 58.213,21.471 C 58.794,22.094 59.476,23.165 60.412,23.327 C 60.723,25.353 59.44,27.313 59.597,29.326 C 60.156,28.792 61.579,29.631 62.111,28.94 C 63.153,29.033 64.049,31.683 65.483,30.038 C 65.317,30.693 65.518,33.963 67.124,34.322 C 67.354,34.66 67.856,34.783 68.025,35.152 C 67.748,36.39 68.139,36.298 68.098,37.19 C 69.471,37.91 69.373,37.777 70.857,37.893 C 70.975,39.548 73.049,39.659 73.997,38.708 C 74.608,39.488 76.395,38.631 75.901,37.701 C 77.058,38.906 78.919,37.895 79.841,37.269 C 79.548,36.372 80.707,34.309 79.863,33.43 C 80.686,33.248 81.196,31.839 81.287,31.092 C 81.85,30.584 83.758,30.576 83.013,29.116 C 84.956,29.576 85.195,27.82 85.677,26.88 C 84.993,26.989 84.593,25.931 83.842,25.489 C 82.978,25.605 82.532,26.425 81.882,25.578 C 82.729,24.218 82.613,22.34 83.29,21.091 C 82.929,21.021 81.203,20.578 80.986,20.595 C 80.925,20.333 79.991,18.86 79.845,18.653 C 80.576,16.901 80.218,16.928 79.401,17.198 Z M 34.101,26.057 C 40.758,31.002 46.527,32.364 53.301,28.581 C 49.121,21.06 40.455,24.84 34.101,26.057 Z M 90.699,28.581 C 97.473,32.364 103.241,31.002 109.899,26.057 C 103.543,24.84 94.879,21.06 90.699,28.581 Z M 46.047,45.098 C 51.059,41.005 59.519,36.784 56.432,28.752 C 49.183,31.519 46.529,36.817 46.047,45.098 Z M 97.952,45.098 C 97.471,36.817 94.816,31.519 87.567,28.752 C 84.481,36.784 92.941,41.005 97.952,45.098 Z M 22.744,36.925 C 30.742,39.116 36.611,38.293 41.549,32.308 C 34.925,26.816 28.222,33.485 22.744,36.925 Z M 102.451,32.308 C 107.389,38.293 113.256,39.116 121.256,36.925 C 115.778,33.485 109.075,26.816 102.451,32.308 Z M 38.343,51.759 C 44.346,46.038 46.67,40.587 44.092,33.267 C 35.969,36.108 38.223,45.291 38.343,51.759 Z M 105.657,51.759 C 105.777,45.291 108.031,36.108 99.908,33.267 C 97.329,40.587 99.653,46.038 105.657,51.759 Z M 75.524,55.316 C 81.739,56.425 86.729,59.068 90.843,62.805 C 91.905,58.92 96.008,52.068 99.635,49.015 C 96.138,48.276 94.153,49.393 89.435,50.065 C 87.311,47.535 85.395,42.641 85.16,39.415 C 81.376,42.056 76.572,50.129 75.524,55.316 Z M 15.829,52.826 C 21.148,51.031 31.041,51.493 31.196,42.219 C 24.461,42.254 18.746,46.246 15.829,52.826 Z M 128.171,52.826 C 125.253,46.246 119.539,42.254 112.803,42.219 C 112.959,51.493 122.852,51.031 128.171,52.826 Z M 58.309,52.363 C 53.591,51.691 49.544,51.793 46.047,52.532 C 49.674,55.585 52.433,58.919 53.495,62.804 C 57.609,59.067 62.599,56.424 68.814,55.315 C 67.766,50.128 65.309,46.253 61.525,43.612 C 61.29,46.838 60.433,49.833 58.309,52.363 Z M 33.822,60.765 C 37.269,54.447 37.749,49.326 33.68,43.959 C 27.718,48.457 32.011,55.451 33.822,60.765 Z M 110.178,60.765 C 111.988,55.451 116.282,48.457 110.32,43.959 C 106.251,49.326 106.731,54.447 110.178,60.765 Z M 12,72.138 C 16.611,68.179 26.273,64.596 23.765,55.315 C 16.448,57.871 12.01,64.157 12,72.138 Z M 132,72.138 C 131.99,64.157 127.552,57.871 120.234,55.315 C 117.726,64.596 127.389,68.179 132,72.138 Z M 33.146,74.022 C 34.889,67.22 33.643,58.975 27.839,55.558 C 23.166,62.146 28.949,69.89 33.146,74.022 Z M 110.853,74.022 C 115.051,69.89 120.834,62.146 116.16,55.558 C 110.356,58.975 109.11,67.22 110.853,74.022 Z M 47.262,82.687 C 47.262,96.342 58.345,107.426 72.001,107.426 C 85.656,107.426 96.74,96.342 96.74,82.687 C 96.74,69.031 85.656,57.948 72.001,57.948 C 58.345,57.948 47.262,69.031 47.262,82.687 Z M 93.587,82.687 C 93.587,94.601 83.915,104.273 72.001,104.273 C 60.086,104.273 50.415,94.601 50.415,82.687 C 50.415,70.772 60.086,61.101 72.001,61.101 C 83.915,61.101 93.587,70.772 93.587,82.687 Z M 53.212,82.687 C 53.212,93.058 61.63,101.476 72.001,101.476 C 82.372,101.476 90.79,93.058 90.79,82.687 C 90.79,72.316 82.372,63.898 72.001,63.898 C 61.63,63.898 53.212,72.316 53.212,82.687 Z M 34.12,85.356 C 35.331,80.017 30.878,73.594 25.075,70.175 C 21.945,77.909 29.63,81.443 34.12,85.356 Z M 109.88,85.356 C 114.37,81.443 122.054,77.909 118.924,70.175 C 113.122,73.594 108.669,80.017 109.88,85.356 Z M 14.351,88.612 C 18.786,84.265 26.226,78.014 21.448,70.365 C 15.839,72.891 12.545,82.372 14.351,88.612 Z M 129.649,88.612 C 131.455,82.372 128.16,72.891 122.551,70.365 C 117.774,78.014 125.213,84.265 129.649,88.612 Z M 75.613,71.236 L 75.613,95.014 L 75.107,95.014 L 65.273,91.491 L 65.273,87.658 L 70.899,89.404 L 70.899,71.236 L 75.613,71.236 Z M 38.134,95.619 C 37.441,88.498 29.87,83.296 25.947,83.619 C 25.389,93.282 34.259,92.169 38.134,95.619 Z M 105.865,95.619 C 109.74,92.169 118.611,93.282 118.053,83.619 C 114.129,83.296 106.559,88.498 105.865,95.619 Z M 20.561,103.497 C 23.317,97.346 28.703,90.159 22.992,85.133 C 17.973,87.602 17.295,97.397 20.561,103.497 Z M 123.437,103.497 C 126.705,97.397 126.027,87.602 121.008,85.133 C 115.296,90.159 120.683,97.346 123.437,103.497 Z M 30.035,95.813 C 33.308,103.753 37.814,100.795 42.835,102.704 C 41.218,97.806 35.078,94.782 30.035,95.813 Z M 101.164,102.704 C 106.185,100.795 110.691,103.753 113.964,95.813 C 108.922,94.782 102.781,97.806 101.164,102.704 Z M 29.108,113.348 C 30.485,107.613 33.444,102.3 27.422,96.222 C 24.81,103.415 25.147,109.383 29.108,113.348 Z M 114.892,113.348 C 118.853,109.383 119.19,103.415 116.578,96.222 C 110.556,102.3 113.515,107.613 114.892,113.348 Z M 36.217,104.751 C 37.767,109.18 44.007,108.483 48.462,109.028 C 46.221,105.181 41.261,103.718 36.217,104.751 Z M 95.537,109.028 C 99.991,108.483 106.231,109.18 107.783,104.751 C 102.739,103.718 97.779,105.181 95.537,109.028 Z M 38.542,120.283 C 38.003,116.995 40.74,109.4 34.626,106.73 C 31.675,113.764 36.153,117.15 38.542,120.283 Z M 105.457,120.283 C 107.847,117.15 112.325,113.764 109.373,106.73 C 103.26,109.4 105.996,116.995 105.457,120.283 Z M 40.496,110.962 C 41.67,116.016 46.937,118.113 51.621,118.272 C 49.38,114.424 45.538,109.928 40.496,110.962 Z M 92.378,118.272 C 97.063,118.113 102.33,116.016 103.503,110.962 C 98.461,109.928 94.62,114.424 92.378,118.272 Z M 58.022,116.538 L 57.657,118.074 L 60.11,122.287 C 60.698,123.396 60.927,124.22 60.799,124.761 C 60.695,125.198 60.52,125.509 60.276,125.691 C 60.03,125.874 59.726,125.922 59.363,125.836 C 59.005,125.751 58.75,125.529 58.599,125.171 C 58.448,124.813 58.426,124.406 58.535,123.95 L 56.174,123.389 C 56.025,124.013 56.045,124.626 56.231,125.229 C 56.418,125.832 56.752,126.348 57.236,126.777 C 57.719,127.207 58.303,127.503 58.988,127.666 C 60.086,127.927 60.993,127.874 61.708,127.507 C 62.422,127.141 62.892,126.482 63.117,125.532 C 63.212,125.132 63.231,124.724 63.172,124.309 C 63.113,123.894 62.976,123.441 62.76,122.95 C 62.545,122.458 62.171,121.781 61.638,120.916 L 60.685,119.089 L 64.688,120.039 L 65.119,118.223 L 58.022,116.538 Z M 84.01,116.936 L 81.558,117.657 L 87.736,124.79 L 82.956,126.196 L 83.483,127.987 L 90.708,125.861 L 90.343,124.621 L 84.01,116.936 Z M 78.91,118.06 L 76.5,118.338 L 77.386,126.012 L 74.938,125.594 L 75.149,127.42 L 79.888,128.47 L 80.109,128.444 L 78.91,118.06 Z M 67.242,119.454 C 66.581,120.204 66.228,121.28 66.183,122.681 L 66.121,124.59 C 66.076,126.001 66.358,127.1 66.967,127.885 C 67.577,128.671 68.46,129.083 69.618,129.12 C 70.775,129.157 71.685,128.801 72.346,128.051 C 73.006,127.301 73.36,126.223 73.405,124.817 L 73.466,122.915 C 73.511,121.504 73.229,120.406 72.62,119.62 C 72.011,118.834 71.13,118.423 69.977,118.386 C 68.815,118.348 67.903,118.704 67.242,119.454 Z M 70.811,120.808 C 70.996,121.166 71.079,121.72 71.06,122.472 L 70.976,125.055 C 70.952,125.806 70.836,126.364 70.628,126.728 C 70.42,127.093 70.103,127.268 69.678,127.254 C 69.261,127.241 68.964,127.059 68.786,126.708 C 68.608,126.358 68.524,125.833 68.532,125.134 L 68.618,122.465 C 68.643,121.685 68.759,121.118 68.967,120.763 C 69.175,120.408 69.491,120.238 69.917,120.251 C 70.329,120.265 70.627,120.45 70.811,120.808 Z" stroke-linejoin="round" stroke-width="0.272" stroke-linecap="round" stroke="none" fill-rule="nonzero" fill="#000000" marker-start="none" marker-end="none" stroke-miterlimit="79.8403193612775"/>
   </g>
  </g>
 </g>
</svg>
