<?xml version="1.0" standalone="no"?>
<!DOCTYPE svg PUBLIC "-//W3C//DTD SVG 1.1//EN" "http://www.w3.org/Graphics/SVG/1.1/DTD/svg11.dtd">
<!--Generator: Xara Designer (www.xara.com), SVG filter version: 6.1.0.18-->
<svg stroke-width="0.501" stroke-linejoin="bevel" fill-rule="evenodd" xmlns:xlink="http://www.w3.org/1999/xlink" xmlns="http://www.w3.org/2000/svg" version="1.1" overflow="visible" width="36pt" height="36pt" viewBox="0 0 36 36">
 <defs>
	</defs>
 <g id="Document" fill="none" stroke="black" font-family="Times New Roman" font-size="16" transform="scale(1 -1)">
  <g id="Spread" transform="translate(0 -36)">
   <g id="001">
    <path d="M 20.999,6.749 L 20.999,11.251 C 20.999,11.469 20.928,11.648 20.79,11.789 C 20.649,11.929 20.468,12 20.25,12 L 15.75,12 C 15.532,12 15.351,11.929 15.21,11.789 C 15.07,11.648 15.001,11.469 15.001,11.251 L 15.001,6.749 C 15.001,6.531 15.07,6.352 15.21,6.211 C 15.351,6.069 15.532,6 15.75,6 L 20.25,6 C 20.468,6 20.649,6.069 20.79,6.211 C 20.928,6.352 20.999,6.531 20.999,6.749 Z M 27.001,22.5 C 27.001,26.01 24.673,30 18.469,30 C 15.128,30 11.773,28.336 9.773,25.007 C 9.539,24.632 9.601,24.304 9.96,24.023 L 13.053,21.679 C 13.165,21.585 13.312,21.539 13.5,21.539 C 13.749,21.539 13.944,21.633 14.086,21.819 C 14.914,22.881 15.587,23.6 16.102,23.975 C 16.633,24.352 17.306,24.54 18.117,24.54 C 18.868,24.54 19.536,24.336 20.122,23.929 C 20.708,23.524 20.999,23.062 20.999,22.546 C 20.999,21.953 20.845,21.477 20.532,21.116 C 20.22,20.758 19.689,20.406 18.938,20.062 C 17.952,19.625 17.052,18.948 16.231,18.036 C 15.411,17.121 15.001,16.141 15.001,15.093 L 15.001,14.25 C 15.001,14.031 15.07,13.85 15.21,13.71 C 15.351,13.571 15.532,13.5 15.75,13.5 L 20.25,13.5 C 20.948,13.5 21.028,14.352 21.125,14.762 C 21.72,17.257 27.001,18.413 27.001,22.5 Z M 33.587,27.035 C 35.196,24.277 36,21.264 36,18 C 36,14.735 35.196,11.721 33.587,8.964 C 31.976,6.206 29.794,4.024 27.035,2.413 C 24.279,0.804 21.265,0 18,0 C 14.735,0 11.723,0.804 8.965,2.413 C 6.208,4.024 4.024,6.206 2.413,8.964 C 0.804,11.721 0,14.735 0,18 C 0,21.264 0.804,24.277 2.413,27.035 C 4.024,29.792 6.208,31.976 8.965,33.585 C 11.723,35.196 14.735,36 18,36 C 21.265,36 24.279,35.196 27.035,33.585 C 29.794,31.976 31.976,29.792 33.587,27.035 Z" fill="#e2001a" fill-rule="nonzero" stroke="none" stroke-linecap="round" stroke-width="0.964" stroke-linejoin="round" marker-start="none" marker-end="none" stroke-miterlimit="79.8403193612775"/>
   </g>
  </g>
 </g>
</svg>
